<?xml version="1.0" standalone="no"?>
<!--
  - MyTh Ahmed Faiz Copyright © 2016-2023 All rights reserved.
  - Email: mythpe@gmail.com
  - Mobile: +966590470092
  - Website: https://www.4myth.com
  - Github: https://github.com/mythpe
  -->

<!DOCTYPE svg PUBLIC "-//W3C//DTD SVG 1.1//EN" "http://www.w3.org/Graphics/SVG/1.1/DTD/svg11.dtd" >
<svg xmlns="http://www.w3.org/2000/svg" version="1.1">
    <metadata>
        Created by FontForge 20191125 at Thu Nov 15 16:38:14 2018
        By convertio
        Copyright (c) 2018. Netflix, Inc. and its affiliates. All rights reserved.
    </metadata>
    <defs>
        <font id="." horiz-adv-x="612">
            <font-face
                    font-family="."
                    font-weight="100"
                    font-stretch="normal"
                    units-per-em="1000"
                    panose-1="2 11 4 3 2 2 2 2 2 4"
                    ascent="800"
                    descent="-200"
                    x-height="505"
                    cap-height="696"
                    bbox="-230 -454 2000 1033"
                    underline-thickness="80"
                    underline-position="-149"
                    unicode-range="U+000D-FFFD"
            />
            <missing-glyph horiz-adv-x="500"
                           d="M450 0h-400v750h400v-750zM400 50v650h-300v-650h300z"/>
            <glyph glyph-name=".notdef" horiz-adv-x="500"
                   d="M450 0h-400v750h400v-750zM400 50v650h-300v-650h300z"/>
            <glyph glyph-name="glyph1" horiz-adv-x="0"
            />
            <glyph glyph-name="glyph1" horiz-adv-x="0"
            />
            <glyph glyph-name="uni000D" unicode="&#xd;" horiz-adv-x="236"
            />
            <glyph glyph-name="space" unicode=" " horiz-adv-x="236"
            />
            <glyph glyph-name="period" unicode="." horiz-adv-x="258"
                   d="M129 -10q-19 0 -32 13t-13 32t13 32t32 13t32 -13t13 -32t-13 -32t-32 -13z"/>
            <glyph glyph-name="colon" unicode=":" horiz-adv-x="258"
                   d="M129 -10q-19 0 -32 13t-13 32t13 32t32 13t32 -13t13 -32t-13 -32t-32 -13zM129 426q-19 0 -32 13t-13 32t13 32t32 13t32 -13t13 -32t-13 -32t-32 -13z"/>
            <glyph glyph-name="comma" unicode="," horiz-adv-x="258"
                   d="M39 -168q41 59 60 94t27 68q-23 0 -35.5 11.5t-12.5 28.5t12 29.5t32 12.5q23 0 36 -15t13 -38q0 -39 -21.5 -87t-62.5 -104h-48z"/>
            <glyph glyph-name="semicolon" unicode=";" horiz-adv-x="258"
                   d="M39 -168q41 59 60 94t27 68q-23 0 -35.5 11.5t-12.5 28.5t12 29.5t32 12.5q23 0 36 -15t13 -38q0 -39 -21.5 -87t-62.5 -104h-48zM129 426q-19 0 -32 13t-13 32t13 32t32 13t32 -13t13 -32t-13 -32t-32 -13z"/>
            <glyph glyph-name="question" unicode="?" horiz-adv-x="569"
                   d="M246 173v56q0 33 8 60t32 53t72 56q41 26 62 46.5t28.5 41.5t7.5 48q0 35 -20.5 65t-58 48t-89.5 18q-76 0 -125.5 -37.5t-57.5 -96.5h-51q9 50 39 90.5t79.5 64.5t115.5 24q68 0 116.5 -24.5t74 -64.5t25.5 -87q0 -50 -26.5 -90t-94.5 -82q-42 -26 -61.5 -47t-24.5 -42
t-5 -47v-53h-46zM275 -10q-19 0 -32 13t-13 32t13 32t32 13t32 -13t13 -32t-13 -32t-32 -13z"/>
            <glyph glyph-name="exclam" unicode="!" horiz-adv-x="268"
                   d="M113 173l-3 523h48l-3 -523h-42zM134 -10q-19 0 -32 13t-13 32t13 32t32 13t32 -13t13 -32t-13 -32t-32 -13z"/>
            <glyph glyph-name="questiondown" unicode="&#xbf;" horiz-adv-x="539"
                   d="M294 428q-19 0 -32 13t-13 32t13 32t32 13t32 -13t13 -32t-13 -32t-32 -13zM281 -202q-68 0 -116.5 24.5t-74 65t-25.5 86.5q0 50 26.5 90t94.5 82q43 26 62 47t24 42.5t5 46.5v53h46v-56q0 -33 -8 -60t-32 -53t-72 -56q-40 -25 -61.5 -46t-29 -42t-7.5 -48
q0 -35 20.5 -65t58.5 -48t89 -18q77 0 126.5 38t56.5 96h51q-8 -50 -38.5 -90.5t-79.5 -64.5t-116 -24z"/>
            <glyph glyph-name="exclamdown" unicode="&#xa1;" horiz-adv-x="268"
                   d="M134 428q-19 0 -32 13t-13 32t13 32t32 13t32 -13t13 -32t-13 -32t-32 -13zM110 -188l3 523h42l3 -523h-48z"/>
            <glyph glyph-name="quotesingle" unicode="'" horiz-adv-x="187"
                   d="M73 490l-3 235h47l-3 -235h-41z"/>
            <glyph glyph-name="quotedbl" unicode="&#x22;" horiz-adv-x="336"
                   d="M73 490l-3 235h47l-3 -235h-41zM222 490l-3 235h47l-3 -235h-41z"/>
            <glyph glyph-name="ellipsis" unicode="&#x2026;" horiz-adv-x="1000"
                   d="M165 -10q-19 0 -32 13t-13 32t13 32t32 13t32 -13t13 -32t-13 -32t-32 -13zM500 -10q-19 0 -32 13t-13 32t13 32t32 13t32 -13t13 -32t-13 -32t-32 -13zM835 -10q-19 0 -32 13t-13 32t13 32t32 13t32 -13t13 -32t-13 -32t-32 -13z"/>
            <glyph glyph-name="uni00A0" unicode="&#xa0;" horiz-adv-x="236"
            />
            <glyph glyph-name="uni2000" unicode="&#x2000;" horiz-adv-x="500"
            />
            <glyph glyph-name="uni2001" unicode="&#x2001;" horiz-adv-x="1000"
            />
            <glyph glyph-name="uni2002" unicode="&#x2002;" horiz-adv-x="500"
            />
            <glyph glyph-name="uni2003" unicode="&#x2003;" horiz-adv-x="1000"
            />
            <glyph glyph-name="uni2004" unicode="&#x2004;" horiz-adv-x="333"
            />
            <glyph glyph-name="uni2005" unicode="&#x2005;" horiz-adv-x="250"
            />
            <glyph glyph-name="uni2006" unicode="&#x2006;" horiz-adv-x="167"
            />
            <glyph glyph-name="uni2007" unicode="&#x2007;"
            />
            <glyph glyph-name="uni2008" unicode="&#x2008;" horiz-adv-x="258"
            />
            <glyph glyph-name="uni2009" unicode="&#x2009;" horiz-adv-x="200"
            />
            <glyph glyph-name="uni200A" unicode="&#x200a;" horiz-adv-x="63"
            />
            <glyph glyph-name="uni200B" unicode="&#x200b;" horiz-adv-x="0"
            />
            <glyph glyph-name="zero" unicode="0"
                   d="M306 -14q-77 0 -135.5 45t-91.5 126.5t-33 190.5q0 110 33 191t91.5 126t135.5 45t135.5 -45t91.5 -126t33 -191q0 -109 -33 -190.5t-91.5 -126.5t-135.5 -45zM306 30q63 0 111 39.5t75 111t27 167.5t-27 167.5t-75 111t-111 39.5t-111 -39.5t-75 -111t-27 -167.5
t27 -167.5t75 -111t111 -39.5z"/>
            <glyph glyph-name="one" unicode="1"
                   d="M328 0v647l-190 -72v46l236 88v-709h-46z"/>
            <glyph glyph-name="two" unicode="2"
                   d="M64 0v38l282 258q51 47 80.5 82t42 66t12.5 65q0 44 -22.5 79.5t-62.5 56.5t-93 21q-76 0 -125 -40t-61 -104h-50q11 55 42.5 97.5t81 66.5t112.5 24q67 0 117.5 -26t79 -71.5t28.5 -103.5q0 -42 -14 -78t-46 -74.5t-88 -89.5l-245 -224h403v-43h-474z"/>
            <glyph glyph-name="three" unicode="3"
                   d="M306 -14q-100 0 -163.5 44.5t-86.5 123.5h51q18 -58 70.5 -91t128.5 -33q47 0 90 17.5t71 53.5t28 89q0 69 -53 107t-139 38h-80v43h80q74 0 121.5 37t47.5 103q0 49 -24.5 82t-64 49.5t-84.5 16.5q-69 0 -118 -34t-67 -90h-51q22 74 83 121t151 47q60 0 110.5 -22
t81 -65t30.5 -105q0 -61 -32 -101.5t-88 -58.5q66 -17 104.5 -59.5t38.5 -108.5q0 -67 -34 -112t-87.5 -68.5t-114.5 -23.5z"/>
            <glyph glyph-name="four" unicode="4"
                   d="M413 0v187h-376v38l381 471h41v-466h116v-43h-116v-187h-46zM96 230h317v392z"/>
            <glyph glyph-name="five" unicode="5"
                   d="M313 -14q-85 0 -146 39t-88 109h54q21 -51 70 -77.5t110 -26.5q50 0 93 23.5t70 66t27 99.5q0 87 -54 133.5t-138 46.5q-49 0 -100 -24.5t-86 -67.5h-43l38 389h383v-43h-344l-28 -290q34 36 82.5 58.5t101.5 22.5q70 0 122.5 -27t82.5 -77.5t30 -120.5t-33 -122.5
t-86.5 -81.5t-117.5 -29z"/>
            <glyph glyph-name="six" unicode="6"
                   d="M327 -14q-54 0 -102 19t-85 61.5t-58 112.5t-21 173q0 110 33 190t93.5 124t143.5 44q159 0 219 -145h-52q-23 51 -66.5 76t-100.5 25q-103 0 -163 -82.5t-60 -231.5q0 -22 1 -49q15 40 46.5 73t75 52.5t94.5 19.5q67 0 120.5 -29.5t84.5 -81t31 -117.5q0 -67 -31 -120
t-83.5 -83.5t-119.5 -30.5zM321 30q56 0 99.5 24.5t68.5 67.5t25 96t-25.5 95t-69 66.5t-98.5 24.5q-53 0 -96.5 -25t-69.5 -67t-26 -94t26 -95t70 -68t96 -25z"/>
            <glyph glyph-name="seven" unicode="7"
                   d="M536 696v-36l-292 -660h-52l291 653h-411v43h464z"/>
            <glyph glyph-name="eight" unicode="8"
                   d="M306 -14q-66 0 -124 21.5t-93.5 65t-35.5 109.5t42.5 112t111.5 64q-59 19 -94.5 62.5t-35.5 104.5q0 55 31 96.5t83 65t115 23.5t115 -23.5t83 -65t31 -96.5q0 -61 -35.5 -104.5t-94.5 -62.5q69 -18 111.5 -64t42.5 -112t-36 -109.5t-93.5 -65t-123.5 -21.5zM306 379
q47 0 88.5 17.5t67.5 50.5t26 79q0 41 -25 72.5t-66 49.5t-91 18q-49 0 -90.5 -18t-66.5 -49.5t-25 -72.5q0 -46 26 -79t68 -50.5t88 -17.5zM306 30q52 0 99 16t77 49.5t30 86.5q0 49 -30 83t-77 52t-99 18t-99 -18t-77 -52t-30 -83q0 -53 30 -86.5t77 -49.5t99 -16z"/>
            <glyph glyph-name="nine" unicode="9"
                   d="M285 710q74 0 134 -34.5t96 -114.5t36 -217q0 -167 -68 -262.5t-193 -95.5q-75 0 -136.5 36t-91.5 109h52q23 -52 73 -76.5t103 -24.5q105 0 159.5 83t54.5 231q0 22 -1 49q-15 -40 -46.5 -73t-75 -52.5t-93.5 -19.5q-67 0 -121 30t-85 81.5t-31 116.5q0 67 30.5 119.5
t83.5 83.5t120 31zM291 666q-55 0 -99 -24.5t-69 -67t-25 -96.5q0 -52 25.5 -94.5t69.5 -67t98 -24.5q53 0 96.5 25t69.5 67t26 94q0 53 -26 95.5t-69.5 67.5t-96.5 25z"/>
            <glyph glyph-name="zero.pnum" horiz-adv-x="652"
                   d="M326 -14q-77 0 -135.5 45t-91.5 126.5t-33 190.5q0 110 33 191t91.5 126t135.5 45t135.5 -45t91.5 -126t33 -191q0 -109 -33 -190.5t-91.5 -126.5t-135.5 -45zM326 30q63 0 111 39.5t75 111t27 167.5t-27 167.5t-75 111t-111 39.5t-111 -39.5t-75 -111t-27 -167.5
t27 -167.5t75 -111t111 -39.5z"/>
            <glyph glyph-name="one.pnum" horiz-adv-x="350"
                   d="M204 0v647l-170 -65v46l216 81v-709h-46z"/>
            <glyph glyph-name="two.pnum" horiz-adv-x="574"
                   d="M45 0v38l282 258q51 47 80.5 82t42 66t12.5 65q0 44 -22.5 79.5t-62.5 56.5t-93 21q-76 0 -125 -40t-61 -104h-50q11 55 42.5 97.5t81 66.5t112.5 24q67 0 117.5 -26t79 -71.5t28.5 -103.5q0 -42 -14 -78t-46 -74.5t-88 -89.5l-245 -224h403v-43h-474z"/>
            <glyph glyph-name="three.pnum" horiz-adv-x="594"
                   d="M296 -14q-100 0 -163.5 44.5t-86.5 123.5h51q18 -58 70.5 -91t128.5 -33q47 0 90 17.5t71 53.5t28 89q0 69 -53 107t-139 38h-80v43h80q74 0 121.5 37t47.5 103q0 49 -24.5 82t-64 49.5t-84.5 16.5q-69 0 -118 -34t-67 -90h-51q22 74 83 121t151 47q60 0 110.5 -22
t81 -65t30.5 -105q0 -61 -32 -101.5t-88 -58.5q66 -17 104.5 -59.5t38.5 -108.5q0 -67 -34 -112t-87.5 -68.5t-114.5 -23.5z"/>
            <glyph glyph-name="four.pnum" horiz-adv-x="608"
                   d="M411 0v187h-376v38l381 471h41v-466h116v-43h-116v-187h-46zM94 230h317v392z"/>
            <glyph glyph-name="five.pnum" horiz-adv-x="599"
                   d="M308 -14q-85 0 -146 39t-88 109h54q21 -51 70 -77.5t110 -26.5q50 0 93 23.5t70 66t27 99.5q0 87 -54 133.5t-138 46.5q-49 0 -100 -24.5t-86 -67.5h-43l38 389h383v-43h-344l-28 -290q34 36 82.5 58.5t101.5 22.5q70 0 122.5 -27t82.5 -77.5t30 -120.5t-33 -122.5
t-86.5 -81.5t-117.5 -29z"/>
            <glyph glyph-name="six.pnum" horiz-adv-x="628"
                   d="M336 -14q-54 0 -102 19t-85 61.5t-58 112.5t-21 173q0 110 33 190t93.5 124t143.5 44q159 0 219 -145h-52q-23 51 -66.5 76t-100.5 25q-103 0 -163 -82.5t-60 -231.5q0 -22 1 -49q15 40 46.5 73t75 52.5t94.5 19.5q67 0 120.5 -29.5t84.5 -81t31 -117.5q0 -67 -31 -120
t-83.5 -83.5t-119.5 -30.5zM330 30q56 0 99.5 24.5t68.5 67.5t25 96t-25.5 95t-69 66.5t-98.5 24.5q-53 0 -96.5 -25t-69.5 -67t-26 -94t26 -95t70 -68t96 -25z"/>
            <glyph glyph-name="seven.pnum" horiz-adv-x="532"
                   d="M495 696v-36l-292 -660h-52l291 653h-411v43h464z"/>
            <glyph glyph-name="eight.pnum" horiz-adv-x="626"
                   d="M313 -14q-66 0 -124 21.5t-93.5 65t-35.5 109.5t42.5 112t111.5 64q-59 19 -94.5 62.5t-35.5 104.5q0 55 31 96.5t83 65t115 23.5t115 -23.5t83 -65t31 -96.5q0 -61 -35.5 -104.5t-94.5 -62.5q69 -18 111.5 -64t42.5 -112t-36 -109.5t-93.5 -65t-123.5 -21.5zM313 379
q47 0 88.5 17.5t67.5 50.5t26 79q0 41 -25 72.5t-66 49.5t-91 18q-49 0 -90.5 -18t-66.5 -49.5t-25 -72.5q0 -46 26 -79t68 -50.5t88 -17.5zM313 30q52 0 99 16t77 49.5t30 86.5q0 49 -30 83t-77 52t-99 18t-99 -18t-77 -52t-30 -83q0 -53 30 -86.5t77 -49.5t99 -16z"/>
            <glyph glyph-name="nine.pnum" horiz-adv-x="628"
                   d="M292 710q74 0 134 -34.5t96 -114.5t36 -217q0 -167 -68 -262.5t-193 -95.5q-75 0 -136.5 36t-91.5 109h52q23 -52 73 -76.5t103 -24.5q105 0 159.5 83t54.5 231q0 22 -1 49q-15 -40 -46.5 -73t-75 -52.5t-93.5 -19.5q-67 0 -121 30t-85 81.5t-31 116.5q0 67 30.5 119.5
t83.5 83.5t120 31zM298 666q-55 0 -99 -24.5t-69 -67t-25 -96.5q0 -52 25.5 -94.5t69.5 -67t98 -24.5q53 0 96.5 25t69.5 67t26 94q0 53 -26 95.5t-69.5 67.5t-96.5 25z"/>
            <glyph glyph-name="uni2080" unicode="&#x2080;" horiz-adv-x="400"
                   d="M200 -108q-72 0 -116 56t-44 150q0 95 44 151t116 56q71 0 115.5 -56t44.5 -151q0 -94 -44.5 -150t-115.5 -56zM200 -67q51 0 82.5 45t31.5 120q0 76 -31.5 121t-82.5 45t-82.5 -45t-31.5 -121q0 -75 31.5 -120t82.5 -45z"/>
            <glyph glyph-name="uni2081" unicode="&#x2081;" horiz-adv-x="400"
                   d="M205 -100v350l-110 -37v42l155 49v-404h-45z"/>
            <glyph glyph-name="uni2082" unicode="&#x2082;" horiz-adv-x="400"
                   d="M53 -100v37l167 142q41 35 57 58.5t16 49.5q0 32 -26 54.5t-68 22.5q-40 0 -66.5 -19.5t-32.5 -51.5h-47q9 50 48.5 81t97.5 31q62 0 101 -33t39 -85q0 -37 -20 -65.5t-67 -68.5l-132 -112h224v-41h-291z"/>
            <glyph glyph-name="uni2083" unicode="&#x2083;" horiz-adv-x="400"
                   d="M201 -108q-64 0 -103 27t-52 74h47q10 -28 38 -44.5t68 -16.5q38 0 69.5 19.5t31.5 59.5q0 35 -28.5 53.5t-73.5 18.5h-49v39h48q40 0 65.5 18.5t25.5 51.5q0 36 -28 54.5t-65 18.5t-63 -17t-35 -44h-47q13 45 51 73t95 28q56 0 96.5 -29.5t40.5 -82.5q0 -33 -18.5 -55.5
t-51.5 -32.5q39 -11 61 -35.5t22 -60.5q0 -37 -20.5 -63.5t-53.5 -40t-71 -13.5z"/>
            <glyph glyph-name="uni2084" unicode="&#x2084;" horiz-adv-x="400"
                   d="M254 -100v100h-218v36l220 261h42v-258h67v-39h-67v-100h-44zM88 39h166v195z"/>
            <glyph glyph-name="uni2085" unicode="&#x2085;" horiz-adv-x="400"
                   d="M205 -108q-55 0 -93 23.5t-54 66.5h49q11 -24 37 -37t58 -13q41 0 71.5 25.5t30.5 68.5t-29 66t-74 23q-26 0 -53 -12.5t-46 -32.5h-41l23 227h238v-40h-203l-15 -145q42 43 106 43q62 0 101 -35t39 -94q0 -41 -20 -71t-53 -46.5t-72 -16.5z"/>
            <glyph glyph-name="uni2086" unicode="&#x2086;" horiz-adv-x="400"
                   d="M211 -108q-70 0 -117 50t-47 159q0 95 45 149.5t120 54.5q102 0 137 -89h-48q-24 49 -88 49q-55 0 -88 -42.5t-33 -122.5q0 -7 1 -15q15 31 47.5 51.5t75.5 20.5q39 0 71 -17t50.5 -46t18.5 -67q0 -40 -19.5 -70.5t-52.5 -47.5t-73 -17zM208 -68q43 0 72.5 26.5
t29.5 66.5t-29.5 66.5t-72.5 26.5t-73.5 -27t-30.5 -66q0 -38 30.5 -65.5t73.5 -27.5z"/>
            <glyph glyph-name="uni2087" unicode="&#x2087;" horiz-adv-x="400"
                   d="M125 -100l168 356h-237v41h286v-37l-169 -360h-48z"/>
            <glyph glyph-name="uni2088" unicode="&#x2088;" horiz-adv-x="400"
                   d="M200 -108q-41 0 -76.5 12.5t-57.5 38t-22 63.5q0 35 24.5 61.5t64.5 37.5q-34 10 -54.5 34.5t-20.5 57.5q0 48 41.5 78t100.5 30t100 -30t41 -78q0 -33 -20 -57t-55 -35q40 -11 65 -37.5t25 -61.5q0 -38 -22 -63.5t-57.5 -38t-76.5 -12.5zM200 122q38 0 67 20t29 54
q0 31 -27.5 50.5t-68.5 19.5t-69 -19.5t-28 -50.5q0 -34 29 -54t68 -20zM200 -69q43 0 76 19t33 58q0 36 -33 56t-76 20t-76.5 -20t-33.5 -56q0 -39 33.5 -58t76.5 -19z"/>
            <glyph glyph-name="uni2089" unicode="&#x2089;" horiz-adv-x="400"
                   d="M193 -108q-49 0 -87.5 22.5t-55.5 65.5h48q12 -25 38.5 -36.5t54.5 -11.5q57 0 87 42.5t30 121.5v17q-15 -32 -48 -52.5t-76 -20.5q-39 0 -71 17t-50.5 46t-18.5 66q0 40 19.5 70.5t52.5 48t73 17.5q71 0 117.5 -49t46.5 -159q0 -97 -42 -151t-118 -54zM193 79
q42 0 72.5 27t30.5 65q0 39 -30.5 66.5t-72.5 27.5q-43 0 -73 -27t-30 -67q0 -39 30 -65.5t73 -26.5z"/>
            <glyph glyph-name="uni2070" unicode="&#x2070;" horiz-adv-x="400"
                   d="M200 392q-72 0 -116 56t-44 150q0 95 44 151t116 56q71 0 115.5 -56t44.5 -151q0 -94 -44.5 -150t-115.5 -56zM200 433q51 0 82.5 45t31.5 120q0 76 -31.5 121t-82.5 45t-82.5 -45t-31.5 -121q0 -75 31.5 -120t82.5 -45z"/>
            <glyph glyph-name="uni00B9" unicode="&#xb9;" horiz-adv-x="400"
                   d="M205 400v350l-110 -37v42l155 49v-404h-45z"/>
            <glyph glyph-name="uni00B2" unicode="&#xb2;" horiz-adv-x="400"
                   d="M53 400v37l167 142q41 35 57 58.5t16 49.5q0 32 -26 54.5t-68 22.5q-40 0 -66.5 -19.5t-32.5 -51.5h-47q9 50 48.5 81t97.5 31q62 0 101 -33t39 -85q0 -37 -20 -65.5t-67 -68.5l-132 -112h224v-41h-291z"/>
            <glyph glyph-name="uni00B3" unicode="&#xb3;" horiz-adv-x="400"
                   d="M201 392q-64 0 -103 27t-52 74h47q10 -28 38 -44.5t68 -16.5q38 0 69.5 19.5t31.5 59.5q0 35 -28.5 53.5t-73.5 18.5h-49v39h48q40 0 65.5 18.5t25.5 51.5q0 36 -28 54.5t-65 18.5t-63 -17t-35 -44h-47q13 45 51 73t95 28q56 0 96.5 -29.5t40.5 -82.5q0 -33 -18.5 -55.5
t-51.5 -32.5q39 -11 61 -35.5t22 -60.5q0 -37 -20.5 -63.5t-53.5 -40t-71 -13.5z"/>
            <glyph glyph-name="uni2074" unicode="&#x2074;" horiz-adv-x="400"
                   d="M254 400v100h-218v36l220 261h42v-258h67v-39h-67v-100h-44zM88 539h166v195z"/>
            <glyph glyph-name="uni2075" unicode="&#x2075;" horiz-adv-x="400"
                   d="M205 392q-55 0 -93 23.5t-54 66.5h49q11 -24 37 -37t58 -13q41 0 71.5 25.5t30.5 68.5t-29 66t-74 23q-26 0 -53 -12.5t-46 -32.5h-41l23 227h238v-40h-203l-15 -145q42 43 106 43q62 0 101 -35t39 -94q0 -41 -20 -71t-53 -46.5t-72 -16.5z"/>
            <glyph glyph-name="uni2076" unicode="&#x2076;" horiz-adv-x="400"
                   d="M211 392q-70 0 -117 50t-47 159q0 95 45 149.5t120 54.5q102 0 137 -89h-48q-24 49 -88 49q-55 0 -88 -42.5t-33 -122.5q0 -7 1 -15q15 31 47.5 51.5t75.5 20.5q39 0 71 -17t50.5 -46t18.5 -67q0 -40 -19.5 -70.5t-52.5 -47.5t-73 -17zM208 432q43 0 72.5 26.5t29.5 66.5
t-29.5 66.5t-72.5 26.5t-73.5 -27t-30.5 -66q0 -38 30.5 -65.5t73.5 -27.5z"/>
            <glyph glyph-name="uni2077" unicode="&#x2077;" horiz-adv-x="400"
                   d="M125 400l168 356h-237v41h286v-37l-169 -360h-48z"/>
            <glyph glyph-name="uni2078" unicode="&#x2078;" horiz-adv-x="400"
                   d="M200 392q-41 0 -76.5 12.5t-57.5 38t-22 63.5q0 35 24.5 61.5t64.5 37.5q-34 10 -54.5 34.5t-20.5 57.5q0 48 41.5 78t100.5 30t100 -30t41 -78q0 -33 -20 -57t-55 -35q40 -11 65 -37.5t25 -61.5q0 -38 -22 -63.5t-57.5 -38t-76.5 -12.5zM200 622q38 0 67 20t29 54
q0 31 -27.5 50.5t-68.5 19.5t-69 -19.5t-28 -50.5q0 -34 29 -54t68 -20zM200 431q43 0 76 19t33 58q0 36 -33 56t-76 20t-76.5 -20t-33.5 -56q0 -39 33.5 -58t76.5 -19z"/>
            <glyph glyph-name="uni2079" unicode="&#x2079;" horiz-adv-x="400"
                   d="M193 392q-49 0 -87.5 22.5t-55.5 65.5h48q12 -25 38.5 -36.5t54.5 -11.5q57 0 87 42.5t30 121.5v17q-15 -32 -48 -52.5t-76 -20.5q-39 0 -71 17t-50.5 46t-18.5 66q0 40 19.5 70.5t52.5 48t73 17.5q71 0 117.5 -49t46.5 -159q0 -97 -42 -151t-118 -54zM193 579
q42 0 72.5 27t30.5 65q0 39 -30.5 66.5t-72.5 27.5q-43 0 -73 -27t-30 -67q0 -39 30 -65.5t73 -26.5z"/>
            <glyph glyph-name="glyph68" horiz-adv-x="400"
                   d="M200 -8q-72 0 -116 56t-44 150q0 95 44 151t116 56q71 0 115.5 -56t44.5 -151q0 -94 -44.5 -150t-115.5 -56zM200 33q51 0 82.5 45t31.5 120q0 76 -31.5 121t-82.5 45t-82.5 -45t-31.5 -121q0 -75 31.5 -120t82.5 -45z"/>
            <glyph glyph-name="glyph69" horiz-adv-x="400"
                   d="M205 0v350l-110 -37v42l155 49v-404h-45z"/>
            <glyph glyph-name="glyph70" horiz-adv-x="400"
                   d="M53 0v37l167 142q41 35 57 58.5t16 49.5q0 32 -26 54.5t-68 22.5q-40 0 -66.5 -19.5t-32.5 -51.5h-47q9 50 48.5 81t97.5 31q62 0 101 -33t39 -85q0 -37 -20 -65.5t-67 -68.5l-132 -112h224v-41h-291z"/>
            <glyph glyph-name="glyph71" horiz-adv-x="400"
                   d="M201 -8q-64 0 -103 27t-52 74h47q10 -28 38 -44.5t68 -16.5q38 0 69.5 19.5t31.5 59.5q0 35 -28.5 53.5t-73.5 18.5h-49v39h48q40 0 65.5 18.5t25.5 51.5q0 36 -28 54.5t-65 18.5t-63 -17t-35 -44h-47q13 45 51 73t95 28q56 0 96.5 -29.5t40.5 -82.5q0 -33 -18.5 -55.5
t-51.5 -32.5q39 -11 61 -35.5t22 -60.5q0 -37 -20.5 -63.5t-53.5 -40t-71 -13.5z"/>
            <glyph glyph-name="glyph72" horiz-adv-x="400"
                   d="M254 0v100h-218v36l220 261h42v-258h67v-39h-67v-100h-44zM88 139h166v195z"/>
            <glyph glyph-name="glyph73" horiz-adv-x="400"
                   d="M205 -8q-55 0 -93 23.5t-54 66.5h49q11 -24 37 -37t58 -13q41 0 71.5 25.5t30.5 68.5t-29 66t-74 23q-26 0 -53 -12.5t-46 -32.5h-41l23 227h238v-40h-203l-15 -145q42 43 106 43q62 0 101 -35t39 -94q0 -41 -20 -71t-53 -46.5t-72 -16.5z"/>
            <glyph glyph-name="glyph74" horiz-adv-x="400"
                   d="M211 -8q-70 0 -117 50t-47 159q0 95 45 149.5t120 54.5q102 0 137 -89h-48q-24 49 -88 49q-55 0 -88 -42.5t-33 -122.5q0 -7 1 -15q15 31 47.5 51.5t75.5 20.5q39 0 71 -17t50.5 -46t18.5 -67q0 -40 -19.5 -70.5t-52.5 -47.5t-73 -17zM208 32q43 0 72.5 26.5t29.5 66.5
t-29.5 66.5t-72.5 26.5t-73.5 -27t-30.5 -66q0 -38 30.5 -65.5t73.5 -27.5z"/>
            <glyph glyph-name="glyph75" horiz-adv-x="400"
                   d="M125 0l168 356h-237v41h286v-37l-169 -360h-48z"/>
            <glyph glyph-name="glyph76" horiz-adv-x="400"
                   d="M200 -8q-41 0 -76.5 12.5t-57.5 38t-22 63.5q0 35 24.5 61.5t64.5 37.5q-34 10 -54.5 34.5t-20.5 57.5q0 48 41.5 78t100.5 30t100 -30t41 -78q0 -33 -20 -57t-55 -35q40 -11 65 -37.5t25 -61.5q0 -38 -22 -63.5t-57.5 -38t-76.5 -12.5zM200 222q38 0 67 20t29 54
q0 31 -27.5 50.5t-68.5 19.5t-69 -19.5t-28 -50.5q0 -34 29 -54t68 -20zM200 31q43 0 76 19t33 58q0 36 -33 56t-76 20t-76.5 -20t-33.5 -56q0 -39 33.5 -58t76.5 -19z"/>
            <glyph glyph-name="glyph77" horiz-adv-x="400"
                   d="M193 -8q-49 0 -87.5 22.5t-55.5 65.5h48q12 -25 38.5 -36.5t54.5 -11.5q57 0 87 42.5t30 121.5v17q-15 -32 -48 -52.5t-76 -20.5q-39 0 -71 17t-50.5 46t-18.5 66q0 40 19.5 70.5t52.5 48t73 17.5q71 0 117.5 -49t46.5 -159q0 -97 -42 -151t-118 -54zM193 179
q42 0 72.5 27t30.5 65q0 39 -30.5 66.5t-72.5 27.5q-43 0 -73 -27t-30 -67q0 -39 30 -65.5t73 -26.5z"/>
            <glyph glyph-name="glyph78" horiz-adv-x="400"
                   d="M200 312q-72 0 -116 56t-44 150q0 95 44 151t116 56q71 0 115.5 -56t44.5 -151q0 -94 -44.5 -150t-115.5 -56zM200 353q51 0 82.5 45t31.5 120q0 76 -31.5 121t-82.5 45t-82.5 -45t-31.5 -121q0 -75 31.5 -120t82.5 -45z"/>
            <glyph glyph-name="glyph79" horiz-adv-x="400"
                   d="M205 320v350l-110 -37v42l155 49v-404h-45z"/>
            <glyph glyph-name="glyph80" horiz-adv-x="400"
                   d="M53 320v37l167 142q41 35 57 58.5t16 49.5q0 32 -26 54.5t-68 22.5q-40 0 -66.5 -19.5t-32.5 -51.5h-47q9 50 48.5 81t97.5 31q62 0 101 -33t39 -85q0 -37 -20 -65.5t-67 -68.5l-132 -112h224v-41h-291z"/>
            <glyph glyph-name="glyph81" horiz-adv-x="400"
                   d="M201 312q-64 0 -103 27t-52 74h47q10 -28 38 -44.5t68 -16.5q38 0 69.5 19.5t31.5 59.5q0 35 -28.5 53.5t-73.5 18.5h-49v39h48q40 0 65.5 18.5t25.5 51.5q0 36 -28 54.5t-65 18.5t-63 -17t-35 -44h-47q13 45 51 73t95 28q56 0 96.5 -29.5t40.5 -82.5q0 -33 -18.5 -55.5
t-51.5 -32.5q39 -11 61 -35.5t22 -60.5q0 -37 -20.5 -63.5t-53.5 -40t-71 -13.5z"/>
            <glyph glyph-name="glyph82" horiz-adv-x="400"
                   d="M254 320v100h-218v36l220 261h42v-258h67v-39h-67v-100h-44zM88 459h166v195z"/>
            <glyph glyph-name="glyph83" horiz-adv-x="400"
                   d="M205 312q-55 0 -93 23.5t-54 66.5h49q11 -24 37 -37t58 -13q41 0 71.5 25.5t30.5 68.5t-29 66t-74 23q-26 0 -53 -12.5t-46 -32.5h-41l23 227h238v-40h-203l-15 -145q42 43 106 43q62 0 101 -35t39 -94q0 -41 -20 -71t-53 -46.5t-72 -16.5z"/>
            <glyph glyph-name="glyph84" horiz-adv-x="400"
                   d="M211 312q-70 0 -117 50t-47 159q0 95 45 149.5t120 54.5q102 0 137 -89h-48q-24 49 -88 49q-55 0 -88 -42.5t-33 -122.5q0 -7 1 -15q15 31 47.5 51.5t75.5 20.5q39 0 71 -17t50.5 -46t18.5 -67q0 -40 -19.5 -70.5t-52.5 -47.5t-73 -17zM208 352q43 0 72.5 26.5t29.5 66.5
t-29.5 66.5t-72.5 26.5t-73.5 -27t-30.5 -66q0 -38 30.5 -65.5t73.5 -27.5z"/>
            <glyph glyph-name="glyph85" horiz-adv-x="400"
                   d="M125 320l168 356h-237v41h286v-37l-169 -360h-48z"/>
            <glyph glyph-name="glyph86" horiz-adv-x="400"
                   d="M200 312q-41 0 -76.5 12.5t-57.5 38t-22 63.5q0 35 24.5 61.5t64.5 37.5q-34 10 -54.5 34.5t-20.5 57.5q0 48 41.5 78t100.5 30t100 -30t41 -78q0 -33 -20 -57t-55 -35q40 -11 65 -37.5t25 -61.5q0 -38 -22 -63.5t-57.5 -38t-76.5 -12.5zM200 542q38 0 67 20t29 54
q0 31 -27.5 50.5t-68.5 19.5t-69 -19.5t-28 -50.5q0 -34 29 -54t68 -20zM200 351q43 0 76 19t33 58q0 36 -33 56t-76 20t-76.5 -20t-33.5 -56q0 -39 33.5 -58t76.5 -19z"/>
            <glyph glyph-name="glyph87" horiz-adv-x="400"
                   d="M193 312q-49 0 -87.5 22.5t-55.5 65.5h48q12 -25 38.5 -36.5t54.5 -11.5q57 0 87 42.5t30 121.5v17q-15 -32 -48 -52.5t-76 -20.5q-39 0 -71 17t-50.5 46t-18.5 66q0 40 19.5 70.5t52.5 48t73 17.5q71 0 117.5 -49t46.5 -159q0 -97 -42 -151t-118 -54zM193 499
q42 0 72.5 27t30.5 65q0 39 -30.5 66.5t-72.5 27.5q-43 0 -73 -27t-30 -67q0 -39 30 -65.5t73 -26.5z"/>
            <glyph glyph-name="fraction" unicode="&#x2044;" horiz-adv-x="140"
                   d="M-184 0l454 696h54l-454 -696h-54z"/>
            <glyph glyph-name="percent" unicode="%" horiz-adv-x="910"
                   d="M233 376q-46 0 -84 22.5t-60.5 60.5t-22.5 84q0 47 22.5 84.5t60.5 60t84 22.5q47 0 84.5 -22.5t60 -60t22.5 -84.5q0 -46 -22.5 -84t-60 -60.5t-84.5 -22.5zM187 0l481 696h55l-481 -696h-55zM233 423q33 0 60.5 16t43.5 43t16 61t-16 61t-43.5 43t-60.5 16t-60 -16
t-43.5 -43t-16.5 -61t16.5 -61t43.5 -43t60 -16zM677 -14q-46 0 -84 22.5t-60.5 60.5t-22.5 84q0 47 22.5 84.5t60.5 60t84 22.5q47 0 84.5 -22.5t60 -60t22.5 -84.5q0 -46 -22.5 -84t-60 -60.5t-84.5 -22.5zM677 33q33 0 60.5 16t43.5 43t16 61t-16 61t-43.5 43t-60.5 16
t-60 -16t-43.5 -43t-16.5 -61t16.5 -61t43.5 -43t60 -16z"/>
            <glyph glyph-name="perthousand" unicode="&#x2030;" horiz-adv-x="1339"
                   d="M233 376q-46 0 -84 22.5t-60.5 60.5t-22.5 84q0 47 22.5 84.5t60.5 60t84 22.5q47 0 84.5 -22.5t60 -60t22.5 -84.5q0 -46 -22.5 -84t-60 -60.5t-84.5 -22.5zM187 0l481 696h55l-481 -696h-55zM233 423q33 0 60.5 16t43.5 43t16 61t-16 61t-43.5 43t-60.5 16t-60 -16
t-43.5 -43t-16.5 -61t16.5 -61t43.5 -43t60 -16zM677 -14q-46 0 -84 22.5t-60.5 60.5t-22.5 84q0 47 22.5 84.5t60.5 60t84 22.5q47 0 84.5 -22.5t60 -60t22.5 -84.5q0 -46 -22.5 -84t-60 -60.5t-84.5 -22.5zM1106 -14q-46 0 -84 22.5t-60.5 60.5t-22.5 84q0 47 22.5 84.5
t60.5 60t84 22.5q47 0 84.5 -22.5t60 -60t22.5 -84.5q0 -46 -22.5 -84t-60 -60.5t-84.5 -22.5zM677 33q33 0 60.5 16t43.5 43t16 61t-16 61t-43.5 43t-60.5 16t-60 -16t-43.5 -43t-16.5 -61t16.5 -61t43.5 -43t60 -16zM1107 33q33 0 60 16t43 43t16 61t-16 61t-43 43t-60 16
t-60.5 -16t-44 -43t-16.5 -61t16.5 -61t44 -43t60.5 -16z"/>
            <glyph glyph-name="onehalf" unicode="&#xbd;" horiz-adv-x="940"
                   d="M205 320v350l-110 -37v42l155 49v-404h-45zM206 0l454 696h54l-454 -696h-54zM593 0v37l167 142q41 35 57 58.5t16 49.5q0 32 -26 54.5t-68 22.5q-40 0 -66.5 -19.5t-32.5 -51.5h-47q9 50 48.5 81t97.5 31q62 0 101 -33t39 -85q0 -37 -20 -65.5t-67 -68.5l-132 -112h224
v-41h-291z"/>
            <glyph glyph-name="onethird" unicode="&#x2153;" horiz-adv-x="940"
                   d="M205 320v350l-110 -37v42l155 49v-404h-45zM206 0l454 696h54l-454 -696h-54zM741 -8q-64 0 -103 27t-52 74h47q10 -28 38 -44.5t68 -16.5q38 0 69.5 19.5t31.5 59.5q0 35 -28.5 53.5t-73.5 18.5h-49v39h48q40 0 65.5 18.5t25.5 51.5q0 36 -28 54.5t-65 18.5t-63 -17
t-35 -44h-47q13 45 51 73t95 28q56 0 96.5 -29.5t40.5 -82.5q0 -33 -18.5 -55.5t-51.5 -32.5q39 -11 61 -35.5t22 -60.5q0 -37 -20.5 -63.5t-53.5 -40t-71 -13.5z"/>
            <glyph glyph-name="twothirds" unicode="&#x2154;" horiz-adv-x="940"
                   d="M53 320v37l167 142q41 35 57 58.5t16 49.5q0 32 -26 54.5t-68 22.5q-40 0 -66.5 -19.5t-32.5 -51.5h-47q9 50 48.5 81t97.5 31q62 0 101 -33t39 -85q0 -37 -20 -65.5t-67 -68.5l-132 -112h224v-41h-291zM216 0l454 696h54l-454 -696h-54zM741 -8q-64 0 -103 27t-52 74h47
q10 -28 38 -44.5t68 -16.5q38 0 69.5 19.5t31.5 59.5q0 35 -28.5 53.5t-73.5 18.5h-49v39h48q40 0 65.5 18.5t25.5 51.5q0 36 -28 54.5t-65 18.5t-63 -17t-35 -44h-47q13 45 51 73t95 28q56 0 96.5 -29.5t40.5 -82.5q0 -33 -18.5 -55.5t-51.5 -32.5q39 -11 61 -35.5
t22 -60.5q0 -37 -20.5 -63.5t-53.5 -40t-71 -13.5z"/>
            <glyph glyph-name="onequarter" unicode="&#xbc;" horiz-adv-x="940"
                   d="M205 320v350l-110 -37v42l155 49v-404h-45zM236 0l454 696h54l-454 -696h-54zM794 0v100h-218v36l220 261h42v-258h67v-39h-67v-100h-44zM628 139h166v195z"/>
            <glyph glyph-name="threequarters" unicode="&#xbe;" horiz-adv-x="940"
                   d="M201 312q-64 0 -103 27t-52 74h47q10 -28 38 -44.5t68 -16.5q38 0 69.5 19.5t31.5 59.5q0 35 -28.5 53.5t-73.5 18.5h-49v39h48q40 0 65.5 18.5t25.5 51.5q0 36 -28 54.5t-65 18.5t-63 -17t-35 -44h-47q13 45 51 73t95 28q56 0 96.5 -29.5t40.5 -82.5q0 -33 -18.5 -55.5
t-51.5 -32.5q39 -11 61 -35.5t22 -60.5q0 -37 -20.5 -63.5t-53.5 -40t-71 -13.5zM246 0l454 696h54l-454 -696h-54zM794 0v100h-218v36l220 261h42v-258h67v-39h-67v-100h-44zM628 139h166v195z"/>
            <glyph glyph-name="uni2155" unicode="&#x2155;" horiz-adv-x="940"
                   d="M205 320v350l-110 -37v42l155 49v-404h-45zM216 0l454 696h54l-454 -696h-54zM745 -8q-55 0 -93 23.5t-54 66.5h49q11 -24 37 -37t58 -13q41 0 71.5 25.5t30.5 68.5t-29 66t-74 23q-26 0 -53 -12.5t-46 -32.5h-41l23 227h238v-40h-203l-15 -145q42 43 106 43
q62 0 101 -35t39 -94q0 -41 -20 -71t-53 -46.5t-72 -16.5z"/>
            <glyph glyph-name="uni2156" unicode="&#x2156;" horiz-adv-x="940"
                   d="M53 320v37l167 142q41 35 57 58.5t16 49.5q0 32 -26 54.5t-68 22.5q-40 0 -66.5 -19.5t-32.5 -51.5h-47q9 50 48.5 81t97.5 31q62 0 101 -33t39 -85q0 -37 -20 -65.5t-67 -68.5l-132 -112h224v-41h-291zM216 0l454 696h54l-454 -696h-54zM745 -8q-55 0 -93 23.5t-54 66.5
h49q11 -24 37 -37t58 -13q41 0 71.5 25.5t30.5 68.5t-29 66t-74 23q-26 0 -53 -12.5t-46 -32.5h-41l23 227h238v-40h-203l-15 -145q42 43 106 43q62 0 101 -35t39 -94q0 -41 -20 -71t-53 -46.5t-72 -16.5z"/>
            <glyph glyph-name="uni2157" unicode="&#x2157;" horiz-adv-x="940"
                   d="M201 312q-64 0 -103 27t-52 74h47q10 -28 38 -44.5t68 -16.5q38 0 69.5 19.5t31.5 59.5q0 35 -28.5 53.5t-73.5 18.5h-49v39h48q40 0 65.5 18.5t25.5 51.5q0 36 -28 54.5t-65 18.5t-63 -17t-35 -44h-47q13 45 51 73t95 28q56 0 96.5 -29.5t40.5 -82.5q0 -33 -18.5 -55.5
t-51.5 -32.5q39 -11 61 -35.5t22 -60.5q0 -37 -20.5 -63.5t-53.5 -40t-71 -13.5zM216 0l454 696h54l-454 -696h-54zM745 -8q-55 0 -93 23.5t-54 66.5h49q11 -24 37 -37t58 -13q41 0 71.5 25.5t30.5 68.5t-29 66t-74 23q-26 0 -53 -12.5t-46 -32.5h-41l23 227h238v-40h-203
l-15 -145q42 43 106 43q62 0 101 -35t39 -94q0 -41 -20 -71t-53 -46.5t-72 -16.5z"/>
            <glyph glyph-name="uni2158" unicode="&#x2158;" horiz-adv-x="940"
                   d="M254 320v100h-218v36l220 261h42v-258h67v-39h-67v-100h-44zM88 459h166v195zM216 0l454 696h54l-454 -696h-54zM745 -8q-55 0 -93 23.5t-54 66.5h49q11 -24 37 -37t58 -13q41 0 71.5 25.5t30.5 68.5t-29 66t-74 23q-26 0 -53 -12.5t-46 -32.5h-41l23 227h238v-40h-203
l-15 -145q42 43 106 43q62 0 101 -35t39 -94q0 -41 -20 -71t-53 -46.5t-72 -16.5z"/>
            <glyph glyph-name="uni2159" unicode="&#x2159;" horiz-adv-x="940"
                   d="M205 320v350l-110 -37v42l155 49v-404h-45zM196 0l454 696h54l-454 -696h-54zM751 -8q-70 0 -117 50t-47 159q0 95 45 149.5t120 54.5q102 0 137 -89h-48q-24 49 -88 49q-55 0 -88 -42.5t-33 -122.5q0 -7 1 -15q15 31 47.5 51.5t75.5 20.5q39 0 71 -17t50.5 -46t18.5 -67
q0 -40 -19.5 -70.5t-52.5 -47.5t-73 -17zM748 32q43 0 72.5 26.5t29.5 66.5t-29.5 66.5t-72.5 26.5t-73.5 -27t-30.5 -66q0 -38 30.5 -65.5t73.5 -27.5z"/>
            <glyph glyph-name="uni215A" unicode="&#x215a;" horiz-adv-x="940"
                   d="M205 312q-55 0 -93 23.5t-54 66.5h49q11 -24 37 -37t58 -13q41 0 71.5 25.5t30.5 68.5t-29 66t-74 23q-26 0 -53 -12.5t-46 -32.5h-41l23 227h238v-40h-203l-15 -145q42 43 106 43q62 0 101 -35t39 -94q0 -41 -20 -71t-53 -46.5t-72 -16.5zM216 0l454 696h54l-454 -696
h-54zM751 -8q-70 0 -117 50t-47 159q0 95 45 149.5t120 54.5q102 0 137 -89h-48q-24 49 -88 49q-55 0 -88 -42.5t-33 -122.5q0 -7 1 -15q15 31 47.5 51.5t75.5 20.5q39 0 71 -17t50.5 -46t18.5 -67q0 -40 -19.5 -70.5t-52.5 -47.5t-73 -17zM748 32q43 0 72.5 26.5t29.5 66.5
t-29.5 66.5t-72.5 26.5t-73.5 -27t-30.5 -66q0 -38 30.5 -65.5t73.5 -27.5z"/>
            <glyph glyph-name="oneeighth" unicode="&#x215b;" horiz-adv-x="940"
                   d="M205 320v350l-110 -37v42l155 49v-404h-45zM196 0l454 696h54l-454 -696h-54zM740 -8q-41 0 -76.5 12.5t-57.5 38t-22 63.5q0 35 24.5 61.5t64.5 37.5q-34 10 -54.5 34.5t-20.5 57.5q0 48 41.5 78t100.5 30t100 -30t41 -78q0 -33 -20 -57t-55 -35q40 -11 65 -37.5
t25 -61.5q0 -38 -22 -63.5t-57.5 -38t-76.5 -12.5zM740 222q38 0 67 20t29 54q0 31 -27.5 50.5t-68.5 19.5t-69 -19.5t-28 -50.5q0 -34 29 -54t68 -20zM740 31q43 0 76 19t33 58q0 36 -33 56t-76 20t-76.5 -20t-33.5 -56q0 -39 33.5 -58t76.5 -19z"/>
            <glyph glyph-name="threeeighths" unicode="&#x215c;" horiz-adv-x="940"
                   d="M201 312q-64 0 -103 27t-52 74h47q10 -28 38 -44.5t68 -16.5q38 0 69.5 19.5t31.5 59.5q0 35 -28.5 53.5t-73.5 18.5h-49v39h48q40 0 65.5 18.5t25.5 51.5q0 36 -28 54.5t-65 18.5t-63 -17t-35 -44h-47q13 45 51 73t95 28q56 0 96.5 -29.5t40.5 -82.5q0 -33 -18.5 -55.5
t-51.5 -32.5q39 -11 61 -35.5t22 -60.5q0 -37 -20.5 -63.5t-53.5 -40t-71 -13.5zM216 0l454 696h54l-454 -696h-54zM740 -8q-41 0 -76.5 12.5t-57.5 38t-22 63.5q0 35 24.5 61.5t64.5 37.5q-34 10 -54.5 34.5t-20.5 57.5q0 48 41.5 78t100.5 30t100 -30t41 -78
q0 -33 -20 -57t-55 -35q40 -11 65 -37.5t25 -61.5q0 -38 -22 -63.5t-57.5 -38t-76.5 -12.5zM740 222q38 0 67 20t29 54q0 31 -27.5 50.5t-68.5 19.5t-69 -19.5t-28 -50.5q0 -34 29 -54t68 -20zM740 31q43 0 76 19t33 58q0 36 -33 56t-76 20t-76.5 -20t-33.5 -56
q0 -39 33.5 -58t76.5 -19z"/>
            <glyph glyph-name="fiveeighths" unicode="&#x215d;" horiz-adv-x="940"
                   d="M205 312q-55 0 -93 23.5t-54 66.5h49q11 -24 37 -37t58 -13q41 0 71.5 25.5t30.5 68.5t-29 66t-74 23q-26 0 -53 -12.5t-46 -32.5h-41l23 227h238v-40h-203l-15 -145q42 43 106 43q62 0 101 -35t39 -94q0 -41 -20 -71t-53 -46.5t-72 -16.5zM216 0l454 696h54l-454 -696
h-54zM740 -8q-41 0 -76.5 12.5t-57.5 38t-22 63.5q0 35 24.5 61.5t64.5 37.5q-34 10 -54.5 34.5t-20.5 57.5q0 48 41.5 78t100.5 30t100 -30t41 -78q0 -33 -20 -57t-55 -35q40 -11 65 -37.5t25 -61.5q0 -38 -22 -63.5t-57.5 -38t-76.5 -12.5zM740 222q38 0 67 20t29 54
q0 31 -27.5 50.5t-68.5 19.5t-69 -19.5t-28 -50.5q0 -34 29 -54t68 -20zM740 31q43 0 76 19t33 58q0 36 -33 56t-76 20t-76.5 -20t-33.5 -56q0 -39 33.5 -58t76.5 -19z"/>
            <glyph glyph-name="seveneighths" unicode="&#x215e;" horiz-adv-x="940"
                   d="M125 320l168 356h-237v41h286v-37l-169 -360h-48zM176 0l454 696h54l-454 -696h-54zM740 -8q-41 0 -76.5 12.5t-57.5 38t-22 63.5q0 35 24.5 61.5t64.5 37.5q-34 10 -54.5 34.5t-20.5 57.5q0 48 41.5 78t100.5 30t100 -30t41 -78q0 -33 -20 -57t-55 -35q40 -11 65 -37.5
t25 -61.5q0 -38 -22 -63.5t-57.5 -38t-76.5 -12.5zM740 222q38 0 67 20t29 54q0 31 -27.5 50.5t-68.5 19.5t-69 -19.5t-28 -50.5q0 -34 29 -54t68 -20zM740 31q43 0 76 19t33 58q0 36 -33 56t-76 20t-76.5 -20t-33.5 -56q0 -39 33.5 -58t76.5 -19z"/>
            <glyph glyph-name="dollar" unicode="$"
                   d="M284 -108v101q-87 7 -146 53t-77 122h51q15 -53 59 -88.5t113 -42.5v303l-36 6q-88 15 -134 57.5t-46 115.5q0 55 29 96t78 64.5t109 25.5v106h43v-107q75 -6 133 -44t78 -119h-51q-16 59 -59 86.5t-101 32.5v-281l28 -5q90 -16 143 -60.5t53 -124.5q0 -58 -28 -102
t-78 -69t-118 -27v-99h-43zM116 519q0 -34 14 -60t50.5 -43.5t103.5 -29.5v275q-73 -3 -120.5 -40.5t-47.5 -101.5zM503 189q0 59 -42 93.5t-134 49.5v-297q77 2 126.5 43.5t49.5 110.5z"/>
            <glyph glyph-name="cent" unicode="&#xa2;"
                   d="M295 -10v90q-61 8 -107 44t-71.5 94t-25.5 131t25.5 131t71.5 94t107 44v88h43v-86q75 -4 125 -46t62 -107h-50q-9 46 -44 76.5t-93 33.5v-456q59 3 94 33t44 76h49q-12 -64 -61 -106t-126 -46v-88h-43zM137 349q0 -91 43.5 -152.5t114.5 -72.5v450q-71 -11 -114.5 -72.5
t-43.5 -152.5z"/>
            <glyph glyph-name="sterling" unicode="&#xa3;"
                   d="M64 0v38q60 59 81 117t21 115q0 27 -4 52h-96v43h85q-12 38 -19 64t-10.5 48t-3.5 46q0 53 25.5 95.5t73 67t112.5 24.5q73 0 124.5 -35t77.5 -96h-53q-44 87 -149 87q-52 0 -89 -19t-56 -50.5t-19 -69.5q0 -37 7.5 -74t24.5 -88h269v-43h-258q5 -25 5 -52
q0 -59 -17.5 -115t-68.5 -112h421v-43h-484z"/>
            <glyph glyph-name="yen" unicode="&#xa5;"
                   d="M284 0v150h-184v42h184v97h-184v42h157l-224 365h57l218 -363l216 363h55l-223 -365h159v-42h-184v-97h184v-42h-184v-150h-47z"/>
            <glyph glyph-name="Euro" unicode="&#x20ac;"
                   d="M99 347q0 27 2 52h-82v42h87q20 126 90 197.5t168 71.5q80 0 134 -38t84 -110h-52q-24 49 -66 76.5t-100 27.5q-78 0 -135 -58t-75 -167h263l-9 -42h-259q-2 -25 -2 -52t2 -52h243l-9 -42h-229q18 -109 75 -166t135 -57q57 0 99 27t66 71h52q-29 -67 -83 -104.5
t-134 -37.5q-98 0 -168 70.5t-90 196.5h-87v42h82q-2 25 -2 52z"/>
            <glyph glyph-name="uni20BA" unicode="&#x20ba;"
                   d="M152 0v254l-91 -44v46l91 44v108l-91 -44v46l91 44v242h46v-219l185 90v-46l-185 -90v-108l185 90v-46l-185 -90v-234q90 0 162.5 24.5t115 80.5t42.5 149h44q0 -106 -47 -171.5t-129 -95.5t-187 -30h-47z"/>
            <glyph glyph-name="uni20B9" unicode="&#x20b9;"
                   d="M69 493v43h353q-8 52 -53 84.5t-141 32.5h-159v43h504l-10 -43h-166q34 -21 51.5 -51t21.5 -66h103l-10 -43h-92q-5 -81 -64 -125.5t-179 -44.5h-90l366 -323h-69l-366 323v43h159q100 0 145 32.5t50 94.5h-354z"/>
            <glyph glyph-name="uni0E3F" unicode="&#xe3f;"
                   d="M72 2v692h213v117h43v-118q212 -11 212 -171q0 -57 -35 -98t-94 -61q78 -17 116 -61.5t38 -109.5q0 -87 -59.5 -136.5t-177.5 -53.5v-110h-43v110h-213zM285 651h-167v-270h167v270zM493 522q0 117 -165 128v-268q77 7 121 45t44 95zM118 338v-293h167v293h-167zM518 192
q0 64 -49.5 103t-140.5 43v-293q94 4 142 42t48 105z"/>
            <glyph glyph-name="colonmonetary" unicode="&#x20a1;"
                   d="M100 -108l48 183q-44 46 -69.5 114.5t-25.5 157.5q0 104 34.5 180.5t93.5 121.5t132 54l28 105h44l-27 -103q56 -2 103 -24l33 127h44l-40 -150q50 -38 79 -101h-52q-15 30 -39 53l-151 -575h14q57 0 104 27t71 71h52q-29 -67 -88 -104.5t-139 -37.5q-13 0 -26 1
l-26 -100h-44l28 107q-54 13 -98 45l-40 -152h-43zM196 92q42 -37 96 -50l157 594q-45 25 -103 25zM101 347q0 -70 16.5 -124.5t44.5 -93.5l139 528q-55 -12 -100.5 -51t-72.5 -104t-27 -155z"/>
            <glyph glyph-name="florin" unicode="&#x192;" horiz-adv-x="336"
                   d="M17 -205v42h21q51 0 76.5 30t25.5 84v512h-100v42h100v64q0 76 37 116t109 40h22v-42h-21q-51 0 -76.5 -30t-25.5 -84v-64h123v-42h-123v-512q0 -76 -37 -116t-109 -40h-22z"/>
            <glyph glyph-name="uni20A6" unicode="&#x20a6;"
                   d="M92 0v259h-72v42h72v94h-72v42h72v259h48l142 -259h190v259h47v-259h72v-42h-72v-94h72v-42h-72v-259h-48l-142 259h-190v-259h-47zM139 437h93l-93 169v-169zM139 301h167l-51 94h-116v-94zM356 301h116v94h-167zM379 259l93 -170v170h-93z"/>
            <glyph glyph-name="uni20B1" unicode="&#x20b1;"
                   d="M103 0v379h-85v42h85v95h-85v42h85v138h175q95 0 153.5 -37.5t80.5 -100.5h81v-42h-70q3 -22 3 -46q0 -26 -4 -49h71v-42h-83q-23 -60 -81 -96.5t-151 -36.5h-128v-246h-47zM150 653v-95h311q-22 43 -68 69t-116 26h-127zM480 470q0 24 -5 46h-325v-95h325q5 23 5 49z
M150 289h127q69 0 114.5 24.5t67.5 65.5h-309v-90z"/>
            <glyph glyph-name="uni20A8" unicode="&#x20a8;" horiz-adv-x="1120"
                   d="M102 0v696h239q137 0 203 -52.5t66 -150.5q0 -76 -43.5 -128.5t-131.5 -70.5l202 -294h-61l-195 286q-19 -1 -40 -1h-192v-285h-47zM149 329h192q112 0 166.5 44t54.5 120q0 77 -54 118t-167 41h-192v-323zM888 -14q-82 0 -137 39.5t-69 97.5h50q9 -37 51 -65.5
t105 -28.5q62 0 101.5 28t39.5 77q0 38 -26 63.5t-86 32.5l-81 10q-69 8 -106 39t-37 90q0 42 23.5 75.5t65 53.5t95.5 20q69 0 118.5 -33t69.5 -92h-50q-13 38 -48.5 60t-88.5 22q-63 0 -101 -29.5t-38 -76.5q0 -37 26 -57t84 -28l81 -10q71 -9 108 -45t37 -95
q0 -44 -24.5 -77.5t-66.5 -52t-96 -18.5z"/>
            <glyph glyph-name="uni20A9" unicode="&#x20a9;" horiz-adv-x="711"
                   d="M161 0l-54 269h-97v42h88l-19 95h-69v42h61l-50 248h45l50 -248h157l59 246h46l61 -246h158l48 248h45l-50 -248h61v-42h-70l-19 -95h89v-42h-98l-54 -269h-42l-68 269h-168l-66 -269h-44zM315 448h79l-40 157zM143 311h97l23 95h-139zM282 311h146l-24 95h-99zM473 311
h97l18 95h-139zM151 269l36 -178l43 178h-79zM483 269l44 -178l35 178h-79z"/>
            <glyph glyph-name="uni20AA" unicode="&#x20aa;" horiz-adv-x="696"
                   d="M50 0v696h191q108 0 164 -55.5t56 -156.5v-290h-44v282q0 88 -44 131.5t-139 43.5h-140v-651h-44zM235 502h44v-457h139q95 0 139.5 43.5t44.5 131.5v476h44v-484q0 -101 -56 -156.5t-165 -55.5h-190v502z"/>
            <glyph glyph-name="currency" unicode="&#xa4;"
                   d="M76 88l-31 31l99 99q-23 27 -35.5 60.5t-12.5 70.5t12.5 70.5t35.5 60.5l-99 99l31 31l99 -99q27 22 60.5 34.5t70.5 12.5t70.5 -12.5t60.5 -34.5l99 99l31 -31l-99 -99q23 -27 35.5 -60.5t12.5 -70.5t-12.5 -70.5t-35.5 -60.5l99 -99l-31 -31l-99 99
q-27 -22 -60.5 -34.5t-70.5 -12.5t-70.5 12.5t-60.5 34.5zM306 184q46 0 83.5 22t59.5 59.5t22 83.5t-22 83.5t-59.5 59.5t-83.5 22t-83.5 -22t-59.5 -59.5t-22 -83.5t22 -83.5t59.5 -59.5t83.5 -22z"/>
            <glyph glyph-name="asciicircum" unicode="^"
                   d="M92 404l191 342h47l191 -342h-51l-163 299l-164 -299h-51z"/>
            <glyph glyph-name="plus" unicode="+"
                   d="M283 104v210h-198v43h198v210h46v-210h198v-43h-198v-210h-46z"/>
            <glyph glyph-name="minus" unicode="&#x2212;"
                   d="M85 314v43h442v-43h-442z"/>
            <glyph glyph-name="plusminus" unicode="&#xb1;"
                   d="M85 0v43h442v-43h-442zM283 144v210h-198v43h198v210h46v-210h198v-43h-198v-210h-46z"/>
            <glyph glyph-name="equal" unicode="="
                   d="M85 424v43h442v-43h-442zM85 204v43h442v-43h-442z"/>
            <glyph glyph-name="divide" unicode="&#xf7;"
                   d="M306 473q-16 0 -27 11.5t-11 27.5t11 27.5t27 11.5q17 0 28 -11.5t11 -27.5t-11 -27.5t-28 -11.5zM85 314v43h442v-43h-442zM306 120q-16 0 -27 11.5t-11 27.5t11 27.5t27 11.5q17 0 28 -11.5t11 -27.5t-11 -27.5t-28 -11.5z"/>
            <glyph glyph-name="less" unicode="&#x3c;"
                   d="M526 96l-452 218v43l452 218v-50l-403 -189l403 -190v-50z"/>
            <glyph glyph-name="greater" unicode="&#x3e;"
                   d="M86 96v50l403 190l-403 189v50l452 -218v-43z"/>
            <glyph glyph-name="asciitilde" unicode="~"
                   d="M442 259q-34 0 -66 15.5t-78 52.5q-43 35 -72.5 51t-55.5 16q-37 0 -54 -22.5t-17 -61.5v-39h-45v43q0 56 31 90t85 34q34 0 66 -15t78 -52q44 -35 73.5 -51.5t54.5 -16.5q38 0 54.5 22.5t16.5 61.5v39h45v-43q0 -55 -31 -89.5t-85 -34.5z"/>
            <glyph glyph-name="logicalnot" unicode="&#xac;"
                   d="M478 205v193h-396v43h442v-236h-46z"/>
            <glyph glyph-name="multiply" unicode="&#xd7;"
                   d="M136 132l-31 31l170 171l-170 170l31 31l170 -170l170 170l31 -31l-170 -170l170 -171l-31 -31l-170 170z"/>
            <glyph glyph-name="underscore" unicode="_" horiz-adv-x="500"
                   d="M0 -182v43h500v-43h-500z"/>
            <glyph glyph-name="section" unicode="&#xa7;" horiz-adv-x="542"
                   d="M275 -73q-79 0 -127.5 39.5t-62.5 97.5h50q9 -37 45 -65.5t95 -28.5t92.5 28t33.5 73t-27.5 69.5t-80.5 32.5l-74 12q-67 11 -108 44.5t-41 102.5q0 44 29 79.5t74 55.5q-36 20 -53.5 52t-17.5 70q0 41 23 74t63 52.5t89 19.5q74 0 120 -39t60 -98h-50q-9 38 -42.5 66
t-87.5 28q-55 0 -92 -28t-37 -73t28 -69.5t73 -32.5l74 -12q68 -11 108.5 -48t40.5 -99q0 -49 -28.5 -82t-73.5 -51q41 -20 59 -52.5t18 -71.5q0 -40 -21 -73t-59.5 -53t-91.5 -20zM308 217q46 8 82 34.5t36 75.5t-31 74t-80 32l-86 13q-28 -6 -54 -22t-42.5 -40t-16.5 -57
q0 -43 26.5 -66t84.5 -32z"/>
            <glyph glyph-name="paragraph" unicode="&#xb6;" horiz-adv-x="652"
                   d="M343 -140v417h-25q-137 0 -204.5 57.5t-67.5 152.5q0 98 67.5 153.5t204.5 55.5h222v-836h-47v792h-103v-792h-47z"/>
            <glyph glyph-name="numbersign" unicode="#"
                   d="M101 0l35 196h-90v41h97l39 219h-127v41h134l35 196h43l-35 -196h201l35 196h43l-35 -196h90v-41h-97l-39 -219h127v-41h-134l-35 -196h-43l35 196h-201l-35 -196h-43zM186 237h201l39 219h-201z"/>
            <glyph glyph-name="bar" unicode="|" horiz-adv-x="305"
                   d="M130 -119v850h45v-850h-45z"/>
            <glyph glyph-name="dagger" unicode="&#x2020;" horiz-adv-x="409"
                   d="M184 -62l-2 556h-152v42h152v170h45v-170h152v-42h-152l-2 -556h-41z"/>
            <glyph glyph-name="daggerdbl" unicode="&#x2021;" horiz-adv-x="409"
                   d="M30 108v42h152v344h-152v42h152v170h45v-170h152v-42h-152v-344h152v-42h-152v-170h-45v170h-152z"/>
            <glyph glyph-name="ampersand" unicode="&#x26;" horiz-adv-x="723"
                   d="M293 -14q-69 0 -118.5 26.5t-76 71t-26.5 97.5q0 72 43 123.5t114 84.5q-48 48 -70 84.5t-22 82.5q0 44 23 79.5t62.5 57t88.5 21.5q50 0 88.5 -20.5t61 -56t22.5 -79.5q0 -64 -48.5 -108.5t-128.5 -74.5l208 -206l111 154h54l-134 -185l140 -138h-62l-104 103
q-45 -52 -101 -84.5t-125 -32.5zM185 556q0 -25 8 -46.5t27.5 -45.5t53.5 -58q83 32 122.5 67t39.5 85q0 47 -35.5 79.5t-89.5 32.5t-90 -33.5t-36 -80.5zM120 181q0 -40 20 -74t58.5 -55t94.5 -21q55 0 103.5 26.5t90.5 76.5l-226 224q-141 -61 -141 -177z"/>
            <glyph glyph-name="asterisk" unicode="*" horiz-adv-x="452"
                   d="M105 453l93 118l-144 41l14 44l140 -51l-5 148h46l-5 -148l140 51l14 -44l-144 -41l93 -118l-37 -26l-84 124l-84 -124z"/>
            <glyph glyph-name="degree" unicode="&#xb0;" horiz-adv-x="400"
                   d="M200 447q-39 0 -70 18.5t-49 50.5t-18 71t18 70.5t49 49.5t70 18t70 -18t49 -49.5t18 -70.5t-18 -71t-49 -50.5t-70 -18.5zM200 490q39 0 65.5 28t26.5 69t-26.5 68t-65.5 27t-65.5 -27t-26.5 -68t26.5 -69t65.5 -28z"/>
            <glyph glyph-name="hyphen" unicode="-" horiz-adv-x="484"
                   d="M88 267v43h308v-43h-308z"/>
            <glyph glyph-name="endash" unicode="&#x2013;" horiz-adv-x="500"
                   d="M0 267v43h500v-43h-500z"/>
            <glyph glyph-name="emdash" unicode="&#x2014;" horiz-adv-x="1000"
                   d="M0 267v43h1000v-43h-1000z"/>
            <glyph glyph-name="parenleft" unicode="(" horiz-adv-x="279"
                   d="M196 -160q-67 106 -96 221t-29 227t29 226.5t96 220.5h47q-67 -112 -95.5 -223.5t-28.5 -223.5t28.5 -224t95.5 -224h-47z"/>
            <glyph glyph-name="parenright" unicode=")" horiz-adv-x="279"
                   d="M83 -160h-47q68 112 96 224t28 224t-28 223.5t-96 223.5h47q68 -106 96.5 -220.5t28.5 -226.5t-28.5 -227t-96.5 -221z"/>
            <glyph glyph-name="slash" unicode="/" horiz-adv-x="366"
                   d="M15 -160l288 895h48l-288 -895h-48z"/>
            <glyph glyph-name="backslash" unicode="\" horiz-adv-x="366"
                   d="M351 -160h-48l-288 895h48z"/>
            <glyph glyph-name="bracketleft" unicode="[" horiz-adv-x="327"
                   d="M105 -160v895h185v-43h-140v-809h140v-43h-185z"/>
            <glyph glyph-name="bracketright" unicode="]" horiz-adv-x="327"
                   d="M222 -160h-185v43h140v809h-140v43h185v-895z"/>
            <glyph glyph-name="braceleft" unicode="{" horiz-adv-x="365"
                   d="M276 -160q-55 0 -94 30t-39 103v179q0 60 -20.5 87t-65.5 27h-22v44h22q45 0 65.5 26.5t20.5 86.5v179q0 73 39 103t94 30h52v-43h-46q-41 0 -67.5 -19.5t-26.5 -80.5v-173q0 -59 -18.5 -89t-51.5 -42q33 -12 51.5 -42.5t18.5 -89.5v-173q0 -61 26.5 -80.5t67.5 -19.5h46
v-43h-52z"/>
            <glyph glyph-name="braceright" unicode="}" horiz-adv-x="365"
                   d="M89 -160h-52v43h46q41 0 67.5 19.5t26.5 80.5v173q0 59 18.5 89.5t51.5 42.5q-33 12 -51.5 42t-18.5 89v173q0 61 -26.5 80.5t-67.5 19.5h-46v43h52q56 0 94.5 -30t38.5 -103v-179q0 -60 20.5 -86.5t65.5 -26.5h22v-44h-22q-45 0 -65.5 -27t-20.5 -87v-179
q0 -73 -38.5 -103t-94.5 -30z"/>
            <glyph glyph-name="bullet" unicode="&#x2022;" horiz-adv-x="328"
                   d="M164 274q-47 0 -80 33t-33 79q0 47 33 80t80 33t80 -33t33 -80q0 -46 -33 -79t-80 -33z"/>
            <glyph glyph-name="guilsinglleft" unicode="&#x2039;" horiz-adv-x="312"
                   d="M198 46l-139 207l139 207h50l-137 -207l137 -207h-50z"/>
            <glyph glyph-name="guilsinglright" unicode="&#x203a;" horiz-adv-x="312"
                   d="M64 46l137 207l-137 207h50l139 -207l-139 -207h-50z"/>
            <glyph glyph-name="guillemotleft" unicode="&#xab;" horiz-adv-x="472"
                   d="M198 46l-139 207l139 207h50l-137 -207l137 -207h-50zM358 46l-139 207l139 207h50l-137 -207l137 -207h-50z"/>
            <glyph glyph-name="guillemotright" unicode="&#xbb;" horiz-adv-x="472"
                   d="M64 46l137 207l-137 207h50l139 -207l-139 -207h-50zM224 46l137 207l-137 207h50l139 -207l-139 -207h-50z"/>
            <glyph glyph-name="at" unicode="@" horiz-adv-x="1028"
                   d="M483 -203q-75 0 -146 25.5t-128.5 74.5t-91 121.5t-33.5 166.5q0 95 31.5 181t93 153t150.5 105.5t203 38.5q78 0 147.5 -23.5t123 -70t84 -115.5t30.5 -161q0 -101 -32.5 -169t-82.5 -101.5t-101 -33.5q-37 0 -65 23.5t-30 61.5v10q-29 -45 -72 -71.5t-96 -26.5
q-50 0 -91 24t-65 68t-24 105q0 56 18 106t49.5 88.5t74 60.5t92.5 22q56 0 95.5 -27t56.5 -72l12 85h40l-47 -336q-1 -7 -1 -14.5v-15.5q0 -23 16.5 -38t41.5 -15t53.5 16.5t53.5 49t41 83t16 117.5q0 106 -46 178.5t-124 110t-175 37.5q-98 0 -176.5 -32.5t-134 -91
t-84.5 -138t-29 -172.5q0 -83 29 -147t79 -108t115 -66.5t137 -22.5q49 0 85 7t79 21v-44q-40 -14 -81 -21t-91 -7zM472 30q45 0 79.5 21.5t58 56t35 76t11.5 81.5q0 71 -32.5 111.5t-95.5 40.5q-46 0 -82 -20t-61 -53.5t-38 -74.5t-13 -82q0 -73 38 -115t100 -42z"/>
            <glyph glyph-name="periodcentered" unicode="&#xb7;" horiz-adv-x="258"
                   d="M129 320q-19 0 -32 13t-13 32t13 32t32 13t32 -13t13 -32t-13 -32t-32 -13z"/>
            <glyph glyph-name="A" unicode="A" horiz-adv-x="668"
                   d="M594 0l-91 221h-340l-91 -221h-49l288 696h46l288 -696h-51zM181 265h304l-152 370z"/>
            <glyph glyph-name="B" unicode="B" horiz-adv-x="692"
                   d="M102 0v696h262q122 0 180 -48t58 -131q0 -56 -33.5 -95.5t-90.5 -59.5q76 -18 112.5 -62.5t36.5 -108.5q0 -88 -62 -139.5t-186 -51.5h-277zM364 652h-215v-272h215q90 0 140 37.5t50 99.5t-46 98.5t-144 36.5zM379 336h-230v-292h230q100 0 150 38.5t50 108.5
q0 65 -51 105t-149 40z"/>
            <glyph glyph-name="C" unicode="C" horiz-adv-x="708"
                   d="M59 348q0 107 41 188.5t112.5 127.5t162.5 46q113 0 184 -53.5t99 -156.5h-52q-21 77 -80.5 121t-150.5 44q-77 0 -138 -39t-95.5 -110t-34.5 -168t34.5 -168t95.5 -110t138 -39q92 0 152 44t79 116h52q-28 -97 -99.5 -151t-183.5 -54q-91 0 -162.5 46t-112.5 127.5
t-41 188.5z"/>
            <glyph glyph-name="D" unicode="D" horiz-adv-x="732"
                   d="M102 0v696h238q67 0 127 -24t106.5 -69.5t73 -110t26.5 -144.5t-26.5 -144.5t-73 -110t-106.5 -69.5t-127 -24h-238zM149 44h187q76 0 142 36t106.5 104t40.5 164t-40.5 164t-106.5 104t-142 36h-187v-608z"/>
            <glyph glyph-name="E" unicode="E" horiz-adv-x="641"
                   d="M102 0v696h461v-44h-414v-269h404v-44h-404v-295h419v-44h-466z"/>
            <glyph glyph-name="F" unicode="F" horiz-adv-x="609"
                   d="M102 0v696h447v-44h-400v-287h388v-44h-388v-321h-47z"/>
            <glyph glyph-name="G" unicode="G" horiz-adv-x="749"
                   d="M387 -14q-96 0 -170 46.5t-116 128.5t-42 187q0 80 24.5 146t69 114.5t104 75t129.5 26.5q101 0 176 -46t111 -129h-54q-25 59 -89 94.5t-144 35.5q-79 0 -142.5 -39.5t-100 -110.5t-36.5 -167q0 -95 36 -166.5t99 -111t145 -39.5q74 0 131.5 33.5t90.5 92t33 133.5v28
h-256v44h303v-72q0 -89 -38.5 -157.5t-106.5 -107.5t-157 -39z"/>
            <glyph glyph-name="H" unicode="H" horiz-adv-x="766"
                   d="M102 0v696h47v-308h468v308h47v-696h-47v344h-468v-344h-47z"/>
            <glyph glyph-name="I" unicode="I" horiz-adv-x="251"
                   d="M149 0h-47v696h47v-696z"/>
            <glyph glyph-name="J" unicode="J" horiz-adv-x="595"
                   d="M457 208v488h47v-488q0 -63 -27.5 -113t-78 -79.5t-119.5 -29.5q-100 0 -165.5 56t-80.5 150h51q11 -73 63.5 -117t131.5 -44q53 0 93 23t62.5 63.5t22.5 90.5z"/>
            <glyph glyph-name="K" unicode="K" horiz-adv-x="633"
                   d="M102 0v696h47v-316l381 316h71l-413 -338l430 -358h-73l-396 332v-332h-47z"/>
            <glyph glyph-name="L" unicode="L" horiz-adv-x="596"
                   d="M553 44v-44h-451v696h47v-652h404z"/>
            <glyph glyph-name="M" unicode="M" horiz-adv-x="880"
                   d="M149 0h-47v696h47l292 -464l290 464h47v-696h-47v613l-291 -465l-291 462v-610z"/>
            <glyph glyph-name="N" unicode="N" horiz-adv-x="762"
                   d="M102 0v696h47l464 -618v618h47v-696h-46l-465 619v-619h-47z"/>
            <glyph glyph-name="O" unicode="O" horiz-adv-x="784"
                   d="M392 -14q-97 0 -172 46.5t-118 128.5t-43 187q0 106 43 187.5t118 128t172 46.5t172 -46.5t118 -128t43 -187.5q0 -105 -43 -187t-118 -128.5t-172 -46.5zM392 31q83 0 147 41t101 112.5t37 163.5t-37 163.5t-101 112.5t-147 41q-82 0 -146.5 -41t-101.5 -112.5
t-37 -163.5t37 -163.5t101.5 -112.5t146.5 -41z"/>
            <glyph glyph-name="P" unicode="P" horiz-adv-x="653"
                   d="M102 0v696h233q137 0 204.5 -56.5t67.5 -153.5t-67.5 -153.5t-204.5 -56.5h-186v-276h-47zM149 320h186q113 0 168.5 44t55.5 122q0 77 -55.5 121.5t-168.5 44.5h-186v-332z"/>
            <glyph glyph-name="Q" unicode="Q" horiz-adv-x="784"
                   d="M392 -14q-97 0 -172 46.5t-118 128.5t-43 187q0 106 43 187.5t118 128t172 46.5t172 -46.5t118 -128.5t43 -187q0 -92 -33.5 -167t-91.5 -123l110 -136h-60l-88 109q-37 -21 -79.5 -33t-90.5 -12zM392 31q77 0 140 37l-115 143h60l93 -116q50 42 78.5 107.5t28.5 145.5
q0 92 -37 163.5t-101 112.5t-147 41q-82 0 -146.5 -41t-101.5 -112.5t-37 -163.5t37 -163.5t101 -112.5t147 -41z"/>
            <glyph glyph-name="R" unicode="R" horiz-adv-x="676"
                   d="M102 0v696h239q137 0 203 -52.5t66 -150.5q0 -76 -43.5 -128.5t-131.5 -70.5l202 -294h-61l-195 286q-19 -1 -40 -1h-192v-285h-47zM149 329h192q112 0 166.5 44t54.5 120q0 77 -54 118t-167 41h-192v-323z"/>
            <glyph glyph-name="S" unicode="S" horiz-adv-x="631"
                   d="M324 -14q-101 0 -176 47t-99 135h52q20 -62 79 -99.5t144 -37.5q55 0 101.5 18t74.5 51.5t28 81.5q0 59 -37 95t-137 52l-90 14q-102 16 -150 56.5t-48 120.5q0 58 33 100.5t89 66t125 23.5q60 0 112.5 -18t89.5 -56.5t50 -100.5h-52q-16 68 -70 99t-130 31
q-58 0 -103 -18t-70.5 -50.5t-25.5 -76.5q0 -38 15.5 -63.5t53.5 -41.5t103 -27l82 -13q109 -17 158.5 -63.5t49.5 -129.5q0 -61 -33 -105t-90 -67.5t-129 -23.5z"/>
            <glyph glyph-name="T" unicode="T" horiz-adv-x="663"
                   d="M355 0h-47v652h-265v44h577v-44h-265v-652z"/>
            <glyph glyph-name="U" unicode="U" horiz-adv-x="740"
                   d="M370 -14q-91 0 -153 38t-94 107t-32 162v403h47v-403q0 -121 58.5 -191.5t173.5 -70.5q116 0 174 70.5t58 191.5v403h47v-403q0 -93 -32 -162t-94 -107t-153 -38z"/>
            <glyph glyph-name="V" unicode="V" horiz-adv-x="668"
                   d="M645 696l-288 -696h-46l-288 696h51l261 -634l260 634h50z"/>
            <glyph glyph-name="W" unicode="W" horiz-adv-x="966"
                   d="M252 0l-217 696h50l195 -633l180 631h45l186 -632l191 634h49l-217 -696h-49l-183 605l-179 -605h-51z"/>
            <glyph glyph-name="X" unicode="X" horiz-adv-x="661"
                   d="M24 0l276 362l-250 334h61l220 -297l222 297h58l-251 -331l277 -365h-61l-247 328l-247 -328h-58z"/>
            <glyph glyph-name="Y" unicode="Y" horiz-adv-x="614"
                   d="M285 0v279l-266 417h57l233 -370l231 370h55l-263 -415v-281h-47z"/>
            <glyph glyph-name="Z" unicode="Z" horiz-adv-x="610"
                   d="M46 696h512v-44l-454 -608h462v-44h-520v44l454 608h-454v44z"/>
            <glyph glyph-name="a" unicode="a" horiz-adv-x="526"
                   d="M217 -14q-76 0 -123.5 40t-47.5 111q0 74 54.5 115t157.5 41h142v31q0 80 -39.5 115.5t-106.5 35.5q-57 0 -95 -23.5t-46 -58.5h-48q13 59 65 92t122 33q89 0 141 -47t52 -147v-324h-45v87q-29 -50 -79 -75.5t-104 -25.5zM219 28q40 0 81.5 19t70.5 57t29 96v51h-142
q-80 0 -123.5 -29t-43.5 -85q0 -51 35.5 -80t92.5 -29z"/>
            <glyph glyph-name="b" unicode="b" horiz-adv-x="595"
                   d="M86 0v725h45v-323q28 53 76 84.5t109 31.5q68 0 119 -34t80 -94t29 -138q0 -77 -29 -137.5t-80 -94.5t-119 -34q-61 0 -109 31.5t-76 84.5v-102h-45zM315 29q54 0 95.5 28.5t64.5 79t23 115.5t-23 115.5t-64.5 79t-95.5 28.5t-96 -29t-66 -79.5t-24 -114.5t24 -114.5
t66 -79.5t96 -29z"/>
            <glyph glyph-name="c" unicode="c" horiz-adv-x="521"
                   d="M282 -14q-68 0 -120 33.5t-81.5 93.5t-29.5 139q0 78 29.5 138t81.5 94t120 34q80 0 131 -41.5t64 -108.5h-50q-8 45 -45.5 76t-99.5 31q-54 0 -96 -28.5t-65.5 -78.5t-23.5 -116t23.5 -116.5t65.5 -78.5t96 -28q63 0 100.5 30t45.5 77h49q-12 -66 -63.5 -108t-131.5 -42
z"/>
            <glyph glyph-name="d" unicode="d" horiz-adv-x="595"
                   d="M279 -14q-67 0 -118.5 34t-80.5 94.5t-29 137.5q0 78 29 138t80.5 94t118.5 34q61 0 109 -31.5t76 -84.5v323h45v-725h-45v102q-28 -53 -76 -84.5t-109 -31.5zM280 29q55 0 96.5 29t65.5 79.5t24 114.5t-24 114.5t-65.5 79.5t-96.5 29q-54 0 -95.5 -28.5t-64.5 -79
t-23 -115.5t23 -115.5t64.5 -79t95.5 -28.5z"/>
            <glyph glyph-name="e" unicode="e" horiz-adv-x="547"
                   d="M286 -14q-72 0 -125 32.5t-81.5 92.5t-28.5 141q0 78 28 138t79.5 94t123.5 34q69 0 116.5 -31.5t72 -86t24.5 -124.5v-34h-398q3 -98 53 -155.5t136 -57.5q56 0 95 22.5t50 57.5h51q-17 -57 -71 -90t-125 -33zM282 475q-80 0 -128 -53t-56 -138h351q-2 84 -44 137.5
t-123 53.5z"/>
            <glyph glyph-name="f" unicode="f" horiz-adv-x="313"
                   d="M17 505h100v64q0 76 37 116t109 40h22v-42h-21q-51 0 -76.5 -30t-25.5 -84v-64h123v-42h-123v-463h-45v463h-100v42z"/>
            <glyph glyph-name="g" unicode="g" horiz-adv-x="593"
                   d="M278 -10q-67 0 -118.5 34t-80 94t-28.5 136q0 77 28.5 136.5t80 93.5t118.5 34q61 0 108.5 -31t75.5 -84v102h45v-496q0 -106 -55 -166.5t-159 -60.5q-83 0 -140 38t-77 93h52q16 -37 57 -62.5t108 -25.5q84 0 126.5 48t42.5 136v96q-28 -53 -75.5 -84t-108.5 -31z
M279 33q55 0 96.5 29t65 79t23.5 113t-23.5 113t-65 79t-96.5 29q-54 0 -95 -28.5t-64 -78.5t-23 -114t23 -114t64 -78.5t95 -28.5z"/>
            <glyph glyph-name="h" unicode="h" horiz-adv-x="561"
                   d="M86 0v725h45v-301q26 44 70 69t95 25q59 0 100 -27t62.5 -74t21.5 -106v-311h-45v298q0 83 -36 130t-106 47q-42 0 -79 -19.5t-60 -58t-23 -95.5v-302h-45z"/>
            <glyph glyph-name="i" unicode="i" horiz-adv-x="217"
                   d="M109 595q-18 0 -30.5 12.5t-12.5 30.5t12.5 30.5t30.5 12.5t30.5 -12.5t12.5 -30.5t-12.5 -30.5t-30.5 -12.5zM86 0v505h45v-505h-45z"/>
            <glyph glyph-name="j" unicode="j" horiz-adv-x="217"
                   d="M109 595q-18 0 -30.5 12.5t-12.5 30.5t12.5 30.5t30.5 12.5t30.5 -12.5t12.5 -30.5t-12.5 -30.5t-30.5 -12.5zM-30 -205v42h24q47 0 69.5 29.5t22.5 81.5v557h45v-557q0 -73 -34 -113t-102 -40h-25z"/>
            <glyph glyph-name="k" unicode="k" horiz-adv-x="498"
                   d="M86 0v725h45v-439l263 219h65l-286 -238l315 -267h-67l-290 248v-248h-45z"/>
            <glyph glyph-name="l" unicode="l" horiz-adv-x="217"
                   d="M86 0v725h45v-725h-45z"/>
            <glyph glyph-name="m" unicode="m" horiz-adv-x="860"
                   d="M86 0v505h45v-77q24 42 64.5 66t87.5 24q55 0 95.5 -28t60.5 -79q23 50 68.5 78.5t99.5 28.5q78 0 125 -54.5t47 -147.5v-316h-45v311q0 77 -35.5 120.5t-93.5 43.5q-39 0 -73.5 -20t-55.5 -56.5t-21 -87.5v-311h-45v311q0 77 -35.5 120.5t-93.5 43.5q-39 0 -73.5 -20.5
t-55.5 -58t-21 -88.5v-308h-45z"/>
            <glyph glyph-name="n" unicode="n" horiz-adv-x="561"
                   d="M131 302v-302h-45v505h45v-81q26 44 70 69t95 25q59 0 100 -27t62.5 -74t21.5 -106v-311h-45v298q0 83 -36 130t-106 47q-42 0 -79 -19.5t-60 -58t-23 -95.5z"/>
            <glyph glyph-name="o" unicode="o" horiz-adv-x="564"
                   d="M282 -14q-68 0 -120 34t-81.5 94t-29.5 138t29.5 138t81.5 94t120 34t120 -34t81.5 -94t29.5 -138t-29.5 -138t-81.5 -94t-120 -34zM282 29q55 0 96.5 28.5t65 79t23.5 115.5q0 66 -23.5 116t-65 78.5t-96.5 28.5q-54 0 -96 -28.5t-65.5 -78.5t-23.5 -116
q0 -65 23.5 -115.5t65.5 -79t96 -28.5z"/>
            <glyph glyph-name="p" unicode="p" horiz-adv-x="595"
                   d="M86 -205v710h45v-103q28 53 76 84.5t109 31.5q68 0 119 -34t80 -94t29 -138q0 -77 -29 -137.5t-80 -94.5t-119 -34q-61 0 -109 31.5t-76 84.5v-307h-45zM315 29q54 0 95.5 28.5t64.5 79t23 115.5t-23 115.5t-64.5 79t-95.5 28.5t-96 -29t-66 -79.5t-24 -114.5t24 -114.5
t66 -79.5t96 -29z"/>
            <glyph glyph-name="q" unicode="q" horiz-adv-x="595"
                   d="M279 -14q-67 0 -118.5 34t-80.5 94.5t-29 137.5q0 78 29 138t80.5 94t118.5 34q61 0 109 -31.5t76 -84.5v103h45v-710h-45v307q-28 -53 -76 -84.5t-109 -31.5zM280 29q55 0 96.5 29t65.5 79.5t24 114.5t-24 114.5t-65.5 79.5t-96.5 29q-54 0 -95.5 -28.5t-64.5 -79
t-23 -115.5t23 -115.5t64.5 -79t95.5 -28.5z"/>
            <glyph glyph-name="r" unicode="r" horiz-adv-x="324"
                   d="M131 263v-263h-45v505h45v-96q25 48 66 73t88 25h11v-44h-11q-39 0 -74 -22t-57.5 -66t-22.5 -112z"/>
            <glyph glyph-name="s" unicode="s" horiz-adv-x="482"
                   d="M250 -14q-82 0 -137 39.5t-69 97.5h50q9 -37 51 -65.5t105 -28.5q62 0 101.5 28t39.5 77q0 38 -26 63.5t-86 32.5l-81 10q-69 8 -106 39t-37 90q0 42 23.5 75.5t65 53.5t95.5 20q69 0 118.5 -33t69.5 -92h-50q-13 38 -48.5 60t-88.5 22q-63 0 -101 -29.5t-38 -76.5
q0 -37 26 -57t84 -28l81 -10q71 -9 108 -45t37 -95q0 -44 -24.5 -77.5t-66.5 -52t-96 -18.5z"/>
            <glyph glyph-name="t" unicode="t" horiz-adv-x="317"
                   d="M253 -3q-137 0 -137 147v319h-100v42h100v172q21 1 45 11v-183h123v-42h-123v-319q0 -105 93 -105h30v-42h-31z"/>
            <glyph glyph-name="u" unicode="u" horiz-adv-x="557"
                   d="M426 201v304h45v-505h-45v80q-25 -43 -66 -68t-91 -25q-56 0 -98.5 26t-66 73t-23.5 110v309h45v-304q0 -77 40 -124t105 -47q43 0 78 20.5t56 59t21 91.5z"/>
            <glyph glyph-name="v" unicode="v" horiz-adv-x="483"
                   d="M264 0h-45l-202 505h50l176 -451l175 451h48z"/>
            <glyph glyph-name="w" unicode="w" horiz-adv-x="732"
                   d="M188 0l-166 505h50l140 -442l133 440h42l136 -440l139 442h48l-166 -505h-46l-132 426l-132 -426h-46z"/>
            <glyph glyph-name="x" unicode="x" horiz-adv-x="488"
                   d="M14 0l200 263l-180 242h59l152 -209l154 209h55l-179 -241l199 -264h-59l-172 231l-174 -231h-55z"/>
            <glyph glyph-name="y" unicode="y" horiz-adv-x="483"
                   d="M136 -205l83 205l-202 505h50l176 -451l175 451h48l-284 -710h-46z"/>
            <glyph glyph-name="z" unicode="z" horiz-adv-x="485"
                   d="M43 0v43l341 419h-341v43h394v-43l-339 -419h347v-43h-402z"/>
            <glyph glyph-name="trademark" unicode="&#x2122;" horiz-adv-x="908"
                   d="M225 306h-46v347h-142v43h329v-43h-141v-347zM489 306h-46v390h52l146 -236l144 236h52v-390h-46v318l-151 -242l-151 241v-317z"/>
            <glyph glyph-name="ordfeminine" unicode="&#xaa;" horiz-adv-x="442"
                   d="M183 308q-61 0 -99.5 32t-38.5 90q0 60 44 93t127 33h109v24q0 60 -30 87t-81 27q-42 0 -71 -17.5t-37 -44.5h-46q11 47 53 75t100 28q73 0 115 -38t42 -119v-259h-44v66q-23 -38 -62 -57.5t-81 -19.5zM187 349q31 0 62.5 14t53.5 42.5t22 72.5v39h-109q-61 0 -93.5 -22
t-32.5 -64q0 -39 27 -60.5t70 -21.5z"/>
            <glyph glyph-name="ordmasculine" unicode="&#xba;" horiz-adv-x="474"
                   d="M237 308q-55 0 -97.5 27t-66.5 75.5t-24 110.5q0 63 24 111t66.5 75.5t97.5 27.5t97.5 -27.5t66.5 -75.5t24 -111q0 -62 -24 -110.5t-66.5 -75.5t-97.5 -27zM237 350q62 0 102 47.5t40 123.5t-40 124t-102 48q-63 0 -102.5 -48t-39.5 -124t39.5 -123.5t102.5 -47.5z"/>
            <glyph glyph-name="copyright" unicode="&#xa9;" horiz-adv-x="813"
                   d="M406 -14q-73 0 -136.5 26.5t-111 75t-74 115t-26.5 145.5t26.5 145.5t74 115t111 75t136.5 26.5q74 0 137 -26.5t110.5 -75t74 -115t26.5 -145.5t-26.5 -145.5t-74 -115t-110.5 -75t-137 -26.5zM406 29q63 0 117.5 23.5t96 67t65 101.5t23.5 127t-23.5 127t-65 101.5
t-96 67t-117.5 23.5t-117.5 -23.5t-96 -67t-65 -101.5t-23.5 -127t23.5 -127t65 -101.5t96 -67t117.5 -23.5zM410 133q-56 0 -98.5 27t-66.5 75.5t-24 111.5t24 111t66.5 75.5t98.5 27.5q65 0 108 -35.5t52 -90.5h-51q-7 35 -35 58.5t-75 23.5q-40 0 -72 -22t-50.5 -60
t-18.5 -88t18.5 -89t50.5 -60.5t72 -21.5q47 0 76 23.5t35 58.5h50q-9 -55 -51 -90t-109 -35z"/>
            <glyph glyph-name="registered" unicode="&#xae;" horiz-adv-x="514"
                   d="M257 278q-60 0 -107.5 28t-75.5 77t-28 111t28 111t75.5 77t107.5 28t107.5 -28t75.5 -77t28 -111t-28 -111t-75.5 -77t-107.5 -28zM257 319q48 0 86 22.5t60 62t22 90.5t-22 90.5t-60 62t-86 22.5q-47 0 -85.5 -22.5t-60.5 -62t-22 -90.5t22 -90.5t60.5 -62t85.5 -22.5z
M179 394v210h85q38 0 59.5 -18.5t21.5 -49.5q0 -46 -43 -62l55 -80h-45l-50 74h-43v-74h-40zM219 501h39q47 0 47 35q0 34 -47 34h-39v-69z"/>
            <glyph glyph-name="uni2117" unicode="&#x2117;" horiz-adv-x="812"
                   d="M406 -14q-73 0 -136.5 26.5t-111 75t-74 115t-26.5 145.5t26.5 145.5t74 115t111 75t136.5 26.5q74 0 137 -26.5t110.5 -75t74 -115t26.5 -145.5t-26.5 -145.5t-74 -115t-110.5 -75t-137 -26.5zM406 29q63 0 117.5 23.5t96 67t65 101.5t23.5 127t-23.5 127t-65 101.5
t-96 67t-117.5 23.5t-117.5 -23.5t-96 -67t-65 -101.5t-23.5 -127t23.5 -127t65 -101.5t96 -67t117.5 -23.5zM279 137v418h149q81 0 122.5 -35t41.5 -96q0 -59 -41.5 -95t-122.5 -36h-103v-156h-46zM325 335h101q61 0 90 24t29 65t-29 65t-90 24h-101v-178z"/>
            <glyph glyph-name="uni2120" unicode="&#x2120;" horiz-adv-x="903"
                   d="M204 298q-62 0 -104.5 28.5t-55.5 80.5h47q9 -30 39.5 -48.5t72.5 -18.5q41 0 70.5 18.5t29.5 51.5q0 28 -18 45t-71 25l-50 8q-55 9 -82.5 33t-27.5 70q0 52 41.5 82.5t102.5 30.5q55 0 95.5 -25.5t50.5 -78.5h-47q-7 32 -34 47t-65 15q-42 0 -69.5 -18.5t-27.5 -49.5
q0 -26 18.5 -40.5t68.5 -22.5l46 -7q60 -9 88 -36.5t28 -74.5q0 -55 -41.5 -85t-104.5 -30zM438 306v390h52l146 -236l144 236h52v-390h-46v318l-151 -242l-151 241v-317h-46z"/>
            <glyph glyph-name="quoteleft" unicode="&#x2018;" horiz-adv-x="256"
                   d="M133 501q-23 0 -36 15.5t-13 38.5q0 35 16.5 75.5t54.5 94.5h46q-25 -36 -39 -60t-21.5 -42.5t-12.5 -39.5q24 0 36 -12t12 -29q0 -16 -11.5 -28.5t-31.5 -12.5z"/>
            <glyph glyph-name="quoteright" unicode="&#x2019;" horiz-adv-x="256"
                   d="M55 500q25 36 39 60t21.5 42.5t12.5 39.5q-24 0 -36 12t-12 29t12 29t31 12q23 0 36 -15.5t13 -38.5q0 -34 -16.5 -75t-54.5 -95h-46z"/>
            <glyph glyph-name="quotesinglbase" unicode="&#x201a;" horiz-adv-x="256"
                   d="M55 -148q25 36 39 60t21.5 42.5t12.5 39.5q-24 0 -36 12t-12 29t12 29t31 12q23 0 36 -15.5t13 -38.5q0 -34 -16.5 -75t-54.5 -95h-46z"/>
            <glyph glyph-name="quotedblleft" unicode="&#x201c;" horiz-adv-x="416"
                   d="M133 500q-23 0 -36 15.5t-13 38.5q0 35 16.5 75.5t54.5 94.5h46q-25 -36 -39 -60t-21.5 -42.5t-12.5 -39.5q24 0 36 -12t12 -29q0 -16 -11.5 -28.5t-31.5 -12.5zM293 500q-23 0 -36 15.5t-13 38.5q0 35 16.5 75.5t54.5 94.5h46q-25 -36 -39 -60t-21.5 -42.5t-12.5 -39.5
q24 0 36 -12t12 -29q0 -16 -11.5 -28.5t-31.5 -12.5z"/>
            <glyph glyph-name="quotedblright" unicode="&#x201d;" horiz-adv-x="416"
                   d="M55 500q25 36 39 60t21.5 42.5t12.5 39.5q-24 0 -36 12t-12 29t12 29t31 12q23 0 36 -15.5t13 -38.5q0 -34 -16.5 -75t-54.5 -95h-46zM215 500q25 36 39 60t21.5 42.5t12.5 39.5q-24 0 -36 12t-12 29t12 29t31 12q23 0 36 -15.5t13 -38.5q0 -34 -16.5 -75t-54.5 -95h-46z
"/>
            <glyph glyph-name="quotedblbase" unicode="&#x201e;" horiz-adv-x="416"
                   d="M55 -148q25 36 39 60t21.5 42.5t12.5 39.5q-24 0 -36 12t-12 29t12 29t31 12q23 0 36 -15.5t13 -38.5q0 -34 -16.5 -75t-54.5 -95h-46zM215 -148q25 36 39 60t21.5 42.5t12.5 39.5q-24 0 -36 12t-12 29t12 29t31 12q23 0 36 -15.5t13 -38.5q0 -34 -16.5 -75t-54.5 -95
h-46z"/>
            <glyph glyph-name="glyph226" horiz-adv-x="117"
                   d="M58 320q-19 0 -32 13t-13 32t13 32t32 13t32 -13t13 -32t-13 -32t-32 -13z"/>
            <glyph glyph-name="glyph227" horiz-adv-x="0"
                   d="M-185 320q-19 0 -32 13t-13 32t13 32t32 13t32 -13t13 -32t-13 -32t-32 -13z"/>
            <glyph glyph-name="dotlessi" unicode="&#x131;" horiz-adv-x="217"
                   d="M86 0v505h45v-505h-45z"/>
            <glyph glyph-name="uni0237" unicode="&#x237;" horiz-adv-x="217"
                   d="M-30 -205v42h24q47 0 69.5 29.5t22.5 81.5v557h45v-557q0 -73 -34 -113t-102 -40h-25z"/>
            <glyph glyph-name="IJ" unicode="&#x132;" horiz-adv-x="706"
                   d="M354 -14q-69 0 -125.5 25.5t-92.5 72t-45 109.5h51q11 -71 66.5 -116.5t145.5 -45.5q60 0 108.5 22.5t77 69t28.5 119.5v454h47v-453q0 -88 -36.5 -145t-95.5 -84.5t-129 -27.5zM92 321v375h47v-375h-47z"/>
            <glyph glyph-name="glyph231" horiz-adv-x="584"
                   d="M117 0v463h-100v42h100v64q0 76 37 116t109 40h22v-42h-21q-51 0 -76.5 -30t-25.5 -84v-64h226v64q0 76 37 116t109 40h22v-42h-21q-51 0 -76.5 -30t-25.5 -84v-64h123v-42h-123v-463h-45v463h-226v-463h-45z"/>
            <glyph glyph-name="glyph232" horiz-adv-x="519"
                   d="M117 0v463h-100v42h100v64q0 76 37 116t109 40h22v-42h-21q-51 0 -76.5 -30t-25.5 -84v-64h271v-505h-45v463h-226v-463h-45zM411 595q-18 0 -30.5 12.5t-12.5 30.5t12.5 30.5t30.5 12.5t30.5 -12.5t12.5 -30.5t-12.5 -30.5t-30.5 -12.5z"/>
            <glyph glyph-name="glyph233" horiz-adv-x="519"
                   d="M117 0v463h-100v42h100v64q0 76 37 116t109 40h22v-42h-21q-51 0 -76.5 -30t-25.5 -84v-64h226v220h45v-725h-45v463h-226v-463h-45z"/>
            <glyph glyph-name="glyph234" horiz-adv-x="790"
                   d="M117 0v463h-100v42h100v64q0 76 37 116t109 40h22v-42h-21q-51 0 -76.5 -30t-25.5 -84v-64h226v64q0 76 37 116t109 40h22v-42h-21q-51 0 -76.5 -30t-25.5 -84v-64h271v-505h-45v463h-226v-463h-45v463h-226v-463h-45zM682 595q-18 0 -30.5 12.5t-12.5 30.5t12.5 30.5
t30.5 12.5t30.5 -12.5t12.5 -30.5t-12.5 -30.5t-30.5 -12.5z"/>
            <glyph glyph-name="glyph235" horiz-adv-x="790"
                   d="M117 0v463h-100v42h100v64q0 76 37 116t109 40h22v-42h-21q-51 0 -76.5 -30t-25.5 -84v-64h226v64q0 76 37 116t109 40h22v-42h-21q-51 0 -76.5 -30t-25.5 -84v-64h226v220h45v-725h-45v463h-226v-463h-45v463h-226v-463h-45z"/>
            <glyph glyph-name="ij" unicode="&#x133;" horiz-adv-x="434"
                   d="M109 595q-18 0 -30.5 12.5t-12.5 30.5t12.5 30.5t30.5 12.5t30.5 -12.5t12.5 -30.5t-12.5 -30.5t-30.5 -12.5zM86 0v505h45v-505h-45zM326 595q-18 0 -30.5 12.5t-12.5 30.5t12.5 30.5t30.5 12.5t30.5 -12.5t12.5 -30.5t-12.5 -30.5t-30.5 -12.5zM187 -205v42h24
q47 0 69.5 29.5t22.5 81.5v557h45v-557q0 -73 -34 -113t-102 -40h-25z"/>
            <glyph glyph-name="Thorn" unicode="&#xde;" horiz-adv-x="653"
                   d="M102 0v696h47v-134h186q137 0 204.5 -56.5t67.5 -153.5t-67.5 -153.5t-204.5 -56.5h-186v-142h-47zM335 518h-186v-332h186q113 0 168.5 44.5t55.5 121.5t-55.5 121.5t-168.5 44.5z"/>
            <glyph glyph-name="AE" unicode="&#xc6;" horiz-adv-x="1044"
                   d="M65 0h-55l471 696h485v-44h-414v-269h404v-44h-404v-295h419v-44h-466v221h-291zM243 265h262v389z"/>
            <glyph glyph-name="OE" unicode="&#x152;" horiz-adv-x="1215"
                   d="M392 -14q-97 0 -172 46.5t-118 128.5t-43 187q0 106 43 187.5t118 128t172 46.5q99 0 170.5 -47t113.5 -129v162h461v-44h-414v-269h404v-44h-404v-295h419v-44h-466v162q-42 -82 -113.5 -129t-170.5 -47zM392 31q83 0 147 41t101 112.5t37 163.5t-37 163.5t-101 112.5
t-147 41q-82 0 -146.5 -41t-101.5 -112.5t-37 -163.5t37 -163.5t101.5 -112.5t146.5 -41z"/>
            <glyph glyph-name="uni1E9E" unicode="&#x1e9e;" horiz-adv-x="705"
                   d="M91 0v458q0 118 60.5 178t169.5 60h291v-44l-218 -249h10q115 0 179 -55.5t64 -145.5t-64 -146t-179 -56h-103v44h103q91 0 143.5 41.5t52.5 116.5t-52.5 116t-143.5 41h-66v44l219 249h-236q-90 0 -137.5 -46.5t-47.5 -147.5v-458h-45z"/>
            <glyph glyph-name="thorn" unicode="&#xfe;" horiz-adv-x="595"
                   d="M86 -205v930h45v-323q28 53 76 84.5t109 31.5q68 0 119 -34t80 -94t29 -138q0 -77 -29 -137.5t-80 -94.5t-119 -34q-61 0 -109 31.5t-76 84.5v-307h-45zM315 29q54 0 95.5 28.5t64.5 79t23 115.5t-23 115.5t-64.5 79t-95.5 28.5t-96 -29t-66 -79.5t-24 -114.5t24 -114.5
t66 -79.5t96 -29z"/>
            <glyph glyph-name="ae" unicode="&#xe6;" horiz-adv-x="896"
                   d="M217 -14q-76 0 -123.5 40t-47.5 111q0 74 53.5 113.5t155.5 39.5h145v34q0 80 -39.5 115.5t-106.5 35.5q-57 0 -95 -23.5t-46 -58.5h-48q13 59 65 92t122 33q66 0 113 -27t69 -90q33 63 85 90t112 27q69 0 116.5 -31.5t72 -86t24.5 -124.5v-28h-398q1 -101 51.5 -160
t137.5 -59q56 0 95 22.5t50 57.5h51q-17 -57 -71 -90t-125 -33q-76 0 -130 35.5t-81 101.5q-25 -66 -83.5 -101.5t-123.5 -35.5zM631 475q-79 0 -126.5 -51t-56.5 -134h350q-4 82 -46 133.5t-121 51.5zM219 28q45 0 86.5 20.5t68 61t26.5 99.5v39h-145q-80 0 -122 -27.5
t-42 -83.5q0 -51 35.5 -80t92.5 -29z"/>
            <glyph glyph-name="oe" unicode="&#x153;" horiz-adv-x="963"
                   d="M282 -14q-68 0 -120 34t-81.5 94t-29.5 137q0 79 29.5 139t81.5 94t120 34q72 0 126 -39t81 -103q26 65 79.5 103.5t129.5 38.5q69 0 116.5 -31.5t72 -86t24.5 -124.5v-34h-398q3 -98 53 -155.5t136 -57.5q56 0 95 22.5t50 57.5h51q-17 -57 -71 -90t-125 -33
q-78 0 -133 38t-81 105q-27 -64 -80.5 -103.5t-125.5 -39.5zM698 475q-80 0 -128 -53t-56 -138h351q-3 85 -45 138t-122 53zM282 29q55 0 96.5 28.5t65 78.5t23.5 115q0 66 -23.5 116.5t-65 79t-96.5 28.5q-54 0 -96 -28.5t-65.5 -79t-23.5 -116.5q0 -65 23.5 -115
t65.5 -78.5t96 -28.5z"/>
            <glyph glyph-name="germandbls" unicode="&#xdf;" horiz-adv-x="605"
                   d="M86 0v482q0 119 60.5 181t157.5 62q89 0 143 -49.5t54 -131.5q0 -58 -29.5 -98t-80.5 -59q73 -17 113.5 -64.5t40.5 -119.5q0 -65 -29 -110.5t-79.5 -69t-114.5 -23.5h-99v44h97q79 0 128.5 40t49.5 119q0 77 -51.5 117t-136.5 40h-68v43h49q45 0 82 15.5t59 46.5t22 79
q0 66 -41.5 101.5t-108.5 35.5q-76 0 -124.5 -49t-48.5 -153v-479h-45z"/>
            <glyph glyph-name="kgreenlandic" unicode="&#x138;" horiz-adv-x="498"
                   d="M86 0v505h45v-228l263 228h65l-286 -246l315 -259h-67l-290 239v-239h-45z"/>
            <glyph glyph-name="Eng" unicode="&#x14a;" horiz-adv-x="751"
                   d="M102 0v696h47v-133q35 68 100 107.5t145 39.5q89 0 148 -40t88.5 -107.5t29.5 -150.5v-262q0 -73 -34 -113t-102 -40h-35v43h34q47 0 68.5 29.5t21.5 81.5v250q0 121 -56 192.5t-165 71.5q-65 0 -120.5 -30.5t-89 -88.5t-33.5 -141v-405h-47z"/>
            <glyph glyph-name="uni018F" unicode="&#x18f;" horiz-adv-x="723"
                   d="M664 348q0 -114 -39 -195t-109.5 -124t-165.5 -43q-88 0 -153 44.5t-101 121.5t-36 176v33h556q-3 97 -37 165t-92.5 103.5t-132.5 35.5q-57 0 -101.5 -18.5t-74.5 -48t-45 -63.5h-54q30 77 102 126t173 49q91 0 161 -43t109.5 -124t39.5 -195zM350 31q75 0 133 34.5
t92.5 98.5t39.5 153h-507q1 -81 31 -145.5t84 -102.5t127 -38z"/>
            <glyph glyph-name="eng" unicode="&#x14b;" horiz-adv-x="561"
                   d="M319 -205v42h24q47 0 69.5 29.5t22.5 81.5v350q0 83 -36 130t-106 47q-42 0 -79 -19.5t-60 -58t-23 -95.5v-302h-45v505h45v-81q26 44 70 69t95 25q59 0 100 -27t62.5 -74t21.5 -106v-363q0 -73 -34 -113t-102 -40h-25z"/>
            <glyph glyph-name="uni0259" unicode="&#x259;" horiz-adv-x="547"
                   d="M261 519q73 0 125.5 -32.5t81 -92.5t28.5 -141q0 -77 -28 -137.5t-79.5 -94.5t-123.5 -34q-69 0 -116.5 31.5t-72 86t-24.5 124.5v34h398q-3 98 -53 155.5t-136 57.5q-55 0 -94.5 -22.5t-50.5 -57.5h-51q17 57 71.5 90t124.5 33zM265 30q80 0 128 53t56 138h-351
q2 -84 44 -137.5t123 -53.5z"/>
            <glyph glyph-name="Eth" unicode="&#xd0;" horiz-adv-x="756"
                   d="M126 0v346h-106v43h106v307h238q67 0 127 -24t106.5 -69.5t73 -110t26.5 -144.5t-26.5 -144.5t-73 -110t-106.5 -69.5t-127 -24h-238zM173 44h187q76 0 142 36t106.5 104t40.5 164t-40.5 164t-106.5 104t-142 36h-187v-263h182v-43h-182v-302z"/>
            <glyph glyph-name="Dcroat" unicode="&#x110;" horiz-adv-x="756"
                   d="M126 0v346h-106v43h106v307h238q67 0 127 -24t106.5 -69.5t73 -110t26.5 -144.5t-26.5 -144.5t-73 -110t-106.5 -69.5t-127 -24h-238zM173 44h187q76 0 142 36t106.5 104t40.5 164t-40.5 164t-106.5 104t-142 36h-187v-263h182v-43h-182v-302z"/>
            <glyph glyph-name="Hbar" unicode="&#x126;" horiz-adv-x="782"
                   d="M110 0v521h-80v43h80v132h47v-132h468v132h47v-132h80v-43h-80v-521h-47v344h-468v-344h-47zM157 388h468v133h-468v-133z"/>
            <glyph glyph-name="Tbar" unicode="&#x166;" horiz-adv-x="663"
                   d="M308 0v319h-182v43h182v290h-265v44h577v-44h-265v-290h182v-43h-182v-319h-47z"/>
            <glyph glyph-name="Lslash" unicode="&#x141;" horiz-adv-x="616"
                   d="M122 0v321l-102 -57v49l102 57v326h47v-300l197 109v-49l-197 -109v-303h404v-44h-451z"/>
            <glyph glyph-name="Oslash" unicode="&#xd8;" horiz-adv-x="784"
                   d="M96 -47l78 114q-54 49 -84.5 121t-30.5 160q0 106 43 187.5t118 128t172 46.5q52 0 98 -14t84 -39l59 86h55l-78 -114q54 -49 84.5 -121t30.5 -160q0 -105 -43 -187t-118 -128.5t-172 -46.5q-52 0 -98 14t-84 39l-59 -86h-55zM107 348q0 -75 25 -137t69 -104l347 511
q-33 23 -72.5 35t-83.5 12q-82 0 -146.5 -41t-101.5 -112.5t-37 -163.5zM392 31q83 0 147 41t101 112.5t37 163.5q0 75 -25 137t-69 104l-347 -511q33 -23 72.5 -35t83.5 -12z"/>
            <glyph glyph-name="eth" unicode="&#xf0;" horiz-adv-x="569"
                   d="M282 -14q-68 0 -120 32.5t-81.5 90t-29.5 132.5q0 76 29.5 133.5t81.5 90.5t120 33q52 0 97.5 -24.5t74.5 -68.5q-13 57 -36 104.5t-67 94.5l-144 -49v44l110 37q-49 43 -122 89h70q57 -35 99 -73l139 47v-44l-107 -36q64 -72 90.5 -163.5t26.5 -210.5q0 -79 -29.5 -137
t-81.5 -90t-120 -32zM282 29q55 0 96.5 27t65 75t23.5 110q0 63 -25.5 111.5t-67.5 75.5t-92 27q-54 0 -96 -27t-65.5 -75.5t-23.5 -111.5q0 -62 23.5 -110t65.5 -75t96 -27z"/>
            <glyph glyph-name="dcroat" unicode="&#x111;" horiz-adv-x="601"
                   d="M279 -14q-65 0 -117 33t-81.5 91t-29.5 132q0 75 29.5 133t81.5 91t117 33q60 0 108.5 -31t76.5 -83v199h-168v42h168v99h45v-99h86v-42h-86v-584h-45v100q-28 -52 -76.5 -83t-108.5 -31zM280 29q52 0 94 28t67 76t25 109q0 62 -25 110t-67 76t-94 28q-51 0 -92.5 -27.5
t-66 -75.5t-24.5 -111q0 -62 24.5 -110t66 -75.5t92.5 -27.5z"/>
            <glyph glyph-name="hbar" unicode="&#x127;" horiz-adv-x="567"
                   d="M92 0v584h-86v42h86v99h45v-99h168v-42h-168v-179q26 44 70 69t95 25q59 0 100 -27t62.5 -74t21.5 -106v-292h-45v279q0 83 -36 130t-106 47q-41 0 -78.5 -19.5t-60.5 -58t-23 -95.5v-283h-45z"/>
            <glyph glyph-name="tbar" unicode="&#x167;" horiz-adv-x="317"
                   d="M253 -3q-137 0 -137 147v120h-100v42h100v157h-100v42h100v172q21 1 45 11v-183h123v-42h-123v-157h123v-42h-123v-120q0 -105 93 -105h30v-42h-31z"/>
            <glyph glyph-name="lslash" unicode="&#x142;" horiz-adv-x="245"
                   d="M100 0v347l-94 -61v50l94 61v328h45v-300l94 61v-50l-94 -61v-375h-45z"/>
            <glyph glyph-name="oslash" unicode="&#xf8;" horiz-adv-x="564"
                   d="M66 -46l61 94q-36 36 -56 88t-20 116q0 78 29.5 138t81.5 94t120 34q69 0 123 -36l44 68h49l-61 -94q36 -36 56 -88t20 -116q0 -78 -29.5 -138t-81.5 -94t-120 -34q-69 0 -123 36l-44 -68h-49zM97 252q0 -51 14.5 -93t40.5 -71l229 356q-43 31 -99 31q-54 0 -96 -28.5
t-65.5 -78.5t-23.5 -116zM282 29q55 0 96.5 28.5t65 78.5t23.5 116q0 51 -14.5 93t-40.5 71l-229 -356q43 -31 99 -31z"/>
            <glyph glyph-name="uni0327" unicode="&#x327;" horiz-adv-x="0"
                   d="M-71 -229v40h44q32 0 53 11.5t21 36.5q0 46 -65 46h-39l42 112l36 -13l-23 -60q41 -1 67 -22.5t26 -62.5t-31 -64.5t-85 -23.5h-46z"/>
            <glyph glyph-name="glyph263" horiz-adv-x="0"
                   d="M-71 -229v40h44q32 0 53 11.5t21 36.5q0 46 -65 46h-39l39 102h41l-25 -63q41 -1 67 -22.5t26 -62.5t-31 -64.5t-85 -23.5h-46z"/>
            <glyph glyph-name="cedilla" unicode="&#xb8;" horiz-adv-x="561"
                   d="M200 -229v40h44q32 0 53 11.5t21 36.5q0 46 -65 46h-39l42 112l36 -13l-23 -60q41 -1 67 -22.5t26 -62.5t-31 -64.5t-85 -23.5h-46z"/>
            <glyph glyph-name="uni0326" unicode="&#x326;" horiz-adv-x="0"
                   d="M-48 -243q16 25 25 41.5t14.5 31.5t10.5 34q-23 0 -35.5 12t-12.5 29t12 29t31 12q23 0 36 -15.5t13 -38.5q0 -28 -10.5 -58t-39.5 -77h-44z"/>
            <glyph glyph-name="glyph266" horiz-adv-x="0"
                   d="M-48 -243q16 25 25 41.5t14.5 31.5t10.5 34q-23 0 -35.5 12t-12.5 29t12 29t31 12q23 0 36 -15.5t13 -38.5q0 -28 -10.5 -58t-39.5 -77h-44z"/>
            <glyph glyph-name="uni0312" unicode="&#x312;" horiz-adv-x="0"
                   d="M3 564q-23 0 -36 15.5t-13 38.5q0 28 12.5 63t43.5 82h44q-25 -38 -36.5 -62.5t-19.5 -54.5q23 0 35.5 -12t12.5 -29q0 -16 -11.5 -28.5t-31.5 -12.5z"/>
            <glyph glyph-name="uni0328" unicode="&#x328;" horiz-adv-x="0"
                   d="M-2 -229q-53 0 -84.5 29.5t-31.5 74.5q0 84 116 144l27 -19q-55 -32 -77 -61.5t-22 -61.5q0 -30 21 -48t55 -18h33v-40h-37z"/>
            <glyph glyph-name="glyph269" horiz-adv-x="0"
                   d="M-2 -229q-53 0 -84.5 29.5t-31.5 74.5q0 84 116 144l27 -19q-55 -32 -77 -61.5t-22 -61.5q0 -30 21 -48t55 -18h33v-40h-37z"/>
            <glyph glyph-name="glyph270" horiz-adv-x="0"
                   d="M18 -229q-53 0 -84.5 28t-31.5 76q0 28 13.5 54t46.5 54.5t91 63.5l27 -19q-56 -36 -85 -62t-39 -47t-10 -42q0 -33 21 -49.5t55 -16.5h33v-40h-37z"/>
            <glyph glyph-name="glyph271" horiz-adv-x="0"
                   d="M18 -229q-53 0 -84.5 28t-31.5 76q0 28 13.5 54t46.5 54.5t91 63.5l27 -19q-56 -36 -85 -62t-39 -47t-10 -42q0 -33 21 -49.5t55 -16.5h33v-40h-37z"/>
            <glyph glyph-name="ogonek" unicode="&#x2db;" horiz-adv-x="561"
                   d="M306 -229q-53 0 -84.5 29.5t-31.5 74.5q0 84 116 144l27 -19q-55 -32 -77 -61.5t-22 -61.5q0 -30 21 -48t55 -18h33v-40h-37z"/>
            <glyph glyph-name="Ccedilla" unicode="&#xc7;" horiz-adv-x="708"
                   d="M59 348q0 107 41 188.5t112.5 127.5t162.5 46q113 0 184 -53.5t99 -156.5h-52q-21 77 -80.5 121t-150.5 44q-77 0 -138 -39t-95.5 -110t-34.5 -168t34.5 -168t95.5 -110t138 -39q92 0 152 44t79 116h52q-28 -97 -99.5 -151t-183.5 -54q-91 0 -162.5 46t-112.5 127.5
t-41 188.5zM304 -229v40h44q32 0 53 11.5t21 36.5q0 46 -65 46h-39l39 102h41l-25 -63q41 -1 67 -22.5t26 -62.5t-31 -64.5t-85 -23.5h-46z"/>
            <glyph glyph-name="Scedilla" unicode="&#x15e;" horiz-adv-x="631"
                   d="M324 -14q-101 0 -176 47t-99 135h52q20 -62 79 -99.5t144 -37.5q55 0 101.5 18t74.5 51.5t28 81.5q0 59 -37 95t-137 52l-90 14q-102 16 -150 56.5t-48 120.5q0 58 33 100.5t89 66t125 23.5q60 0 112.5 -18t89.5 -56.5t50 -100.5h-52q-16 68 -70 99t-130 31
q-58 0 -103 -18t-70.5 -50.5t-25.5 -76.5q0 -38 15.5 -63.5t53.5 -41.5t103 -27l82 -13q109 -17 158.5 -63.5t49.5 -129.5q0 -61 -33 -105t-90 -67.5t-129 -23.5zM253 -229v40h44q32 0 53 11.5t21 36.5q0 46 -65 46h-39l39 102h41l-25 -63q41 -1 67 -22.5t26 -62.5
t-31 -64.5t-85 -23.5h-46z"/>
            <glyph glyph-name="uni0162" unicode="&#x162;" horiz-adv-x="663"
                   d="M355 0h-47v652h-265v44h577v-44h-265v-652zM260 -229v40h44q32 0 53 11.5t21 36.5q0 46 -65 46h-39l39 102h41l-25 -63q41 -1 67 -22.5t26 -62.5t-31 -64.5t-85 -23.5h-46z"/>
            <glyph glyph-name="uni0122" unicode="&#x122;" horiz-adv-x="749"
                   d="M387 -14q-96 0 -170 46.5t-116 128.5t-42 187q0 80 24.5 146t69 114.5t104 75t129.5 26.5q101 0 176 -46t111 -129h-54q-25 59 -89 94.5t-144 35.5q-79 0 -142.5 -39.5t-100 -110.5t-36.5 -167q0 -95 36 -166.5t99 -111t145 -39.5q74 0 131.5 33.5t90.5 92t33 133.5v28
h-256v44h303v-72q0 -89 -38.5 -157.5t-106.5 -107.5t-157 -39zM339 -243q16 25 25 41.5t14.5 31.5t10.5 34q-23 0 -35.5 12t-12.5 29t12 29t31 12q23 0 36 -15.5t13 -38.5q0 -28 -10.5 -58t-39.5 -77h-44z"/>
            <glyph glyph-name="uni0136" unicode="&#x136;" horiz-adv-x="633"
                   d="M102 0v696h47v-316l381 316h71l-413 -338l430 -358h-73l-396 332v-332h-47zM294 -243q16 25 25 41.5t14.5 31.5t10.5 34q-23 0 -35.5 12t-12.5 29t12 29t31 12q23 0 36 -15.5t13 -38.5q0 -28 -10.5 -58t-39.5 -77h-44z"/>
            <glyph glyph-name="uni013B" unicode="&#x13b;" horiz-adv-x="596"
                   d="M553 44v-44h-451v696h47v-652h404zM282 -243q16 25 25 41.5t14.5 31.5t10.5 34q-23 0 -35.5 12t-12.5 29t12 29t31 12q23 0 36 -15.5t13 -38.5q0 -28 -10.5 -58t-39.5 -77h-44z"/>
            <glyph glyph-name="uni0145" unicode="&#x145;" horiz-adv-x="762"
                   d="M102 0v696h47l464 -618v618h47v-696h-46l-465 619v-619h-47zM333 -243q16 25 25 41.5t14.5 31.5t10.5 34q-23 0 -35.5 12t-12.5 29t12 29t31 12q23 0 36 -15.5t13 -38.5q0 -28 -10.5 -58t-39.5 -77h-44z"/>
            <glyph glyph-name="uni0156" unicode="&#x156;" horiz-adv-x="676"
                   d="M102 0v696h239q137 0 203 -52.5t66 -150.5q0 -76 -43.5 -128.5t-131.5 -70.5l202 -294h-61l-195 286q-19 -1 -40 -1h-192v-285h-47zM149 329h192q112 0 166.5 44t54.5 120q0 77 -54 118t-167 41h-192v-323zM308 -243q16 25 25 41.5t14.5 31.5t10.5 34q-23 0 -35.5 12
t-12.5 29t12 29t31 12q23 0 36 -15.5t13 -38.5q0 -28 -10.5 -58t-39.5 -77h-44z"/>
            <glyph glyph-name="uni0218" unicode="&#x218;" horiz-adv-x="631"
                   d="M324 -14q-101 0 -176 47t-99 135h52q20 -62 79 -99.5t144 -37.5q55 0 101.5 18t74.5 51.5t28 81.5q0 59 -37 95t-137 52l-90 14q-102 16 -150 56.5t-48 120.5q0 58 33 100.5t89 66t125 23.5q60 0 112.5 -18t89.5 -56.5t50 -100.5h-52q-16 68 -70 99t-130 31
q-58 0 -103 -18t-70.5 -50.5t-25.5 -76.5q0 -38 15.5 -63.5t53.5 -41.5t103 -27l82 -13q109 -17 158.5 -63.5t49.5 -129.5q0 -61 -33 -105t-90 -67.5t-129 -23.5zM276 -243q16 25 25 41.5t14.5 31.5t10.5 34q-23 0 -35.5 12t-12.5 29t12 29t31 12q23 0 36 -15.5t13 -38.5
q0 -28 -10.5 -58t-39.5 -77h-44z"/>
            <glyph glyph-name="uni021A" unicode="&#x21a;" horiz-adv-x="663"
                   d="M355 0h-47v652h-265v44h577v-44h-265v-652zM283 -243q16 25 25 41.5t14.5 31.5t10.5 34q-23 0 -35.5 12t-12.5 29t12 29t31 12q23 0 36 -15.5t13 -38.5q0 -28 -10.5 -58t-39.5 -77h-44z"/>
            <glyph glyph-name="Aogonek" unicode="&#x104;" horiz-adv-x="668"
                   d="M594 0l-91 221h-340l-91 -221h-49l288 696h46l288 -696h-51zM181 265h304l-152 370zM618 -229q-53 0 -84.5 29.5t-31.5 74.5q0 84 116 144l27 -19q-55 -32 -77 -61.5t-22 -61.5q0 -30 21 -48t55 -18h33v-40h-37z"/>
            <glyph glyph-name="Eogonek" unicode="&#x118;" horiz-adv-x="641"
                   d="M102 0v696h461v-44h-414v-269h404v-44h-404v-295h419v-44h-466zM531 -229q-53 0 -84.5 29.5t-31.5 74.5q0 84 116 144l27 -19q-55 -32 -77 -61.5t-22 -61.5q0 -30 21 -48t55 -18h33v-40h-37z"/>
            <glyph glyph-name="Iogonek" unicode="&#x12e;" horiz-adv-x="251"
                   d="M149 0h-47v696h47v-696zM122 -229q-53 0 -84.5 29.5t-31.5 74.5q0 84 116 144l27 -19q-55 -32 -77 -61.5t-22 -61.5q0 -30 21 -48t55 -18h33v-40h-37z"/>
            <glyph glyph-name="Uogonek" unicode="&#x172;" horiz-adv-x="740"
                   d="M370 -14q-91 0 -153 38t-94 107t-32 162v403h47v-403q0 -121 58.5 -191.5t173.5 -70.5q116 0 174 70.5t58 191.5v403h47v-403q0 -93 -32 -162t-94 -107t-153 -38zM466 -229q-53 0 -84.5 28t-31.5 76q0 28 13.5 54t46.5 54.5t91 63.5l27 -19q-56 -36 -85 -62t-39 -47
t-10 -42q0 -33 21 -49.5t55 -16.5h33v-40h-37z"/>
            <glyph glyph-name="ccedilla" unicode="&#xe7;" horiz-adv-x="521"
                   d="M282 -14q-68 0 -120 33.5t-81.5 93.5t-29.5 139q0 78 29.5 138t81.5 94t120 34q80 0 131 -41.5t64 -108.5h-50q-8 45 -45.5 76t-99.5 31q-54 0 -96 -28.5t-65.5 -78.5t-23.5 -116t23.5 -116.5t65.5 -78.5t96 -28q63 0 100.5 30t45.5 77h49q-12 -66 -63.5 -108t-131.5 -42
zM211 -229v40h44q32 0 53 11.5t21 36.5q0 46 -65 46h-39l42 112l36 -13l-23 -60q41 -1 67 -22.5t26 -62.5t-31 -64.5t-85 -23.5h-46z"/>
            <glyph glyph-name="scedilla" unicode="&#x15f;" horiz-adv-x="482"
                   d="M250 -14q-82 0 -137 39.5t-69 97.5h50q9 -37 51 -65.5t105 -28.5q62 0 101.5 28t39.5 77q0 38 -26 63.5t-86 32.5l-81 10q-69 8 -106 39t-37 90q0 42 23.5 75.5t65 53.5t95.5 20q69 0 118.5 -33t69.5 -92h-50q-13 38 -48.5 60t-88.5 22q-63 0 -101 -29.5t-38 -76.5
q0 -37 26 -57t84 -28l81 -10q71 -9 108 -45t37 -95q0 -44 -24.5 -77.5t-66.5 -52t-96 -18.5zM179 -229v40h44q32 0 53 11.5t21 36.5q0 46 -65 46h-39l42 112l36 -13l-23 -60q41 -1 67 -22.5t26 -62.5t-31 -64.5t-85 -23.5h-46z"/>
            <glyph glyph-name="uni0163" unicode="&#x163;" horiz-adv-x="317"
                   d="M253 -3q-137 0 -137 147v319h-100v42h100v172q21 1 45 11v-183h123v-42h-123v-319q0 -105 93 -105h30v-42h-31zM126 -229v40h44q32 0 53 11.5t21 36.5q0 46 -65 46h-39l42 112l36 -13l-23 -60q41 -1 67 -22.5t26 -62.5t-31 -64.5t-85 -23.5h-46z"/>
            <glyph glyph-name="uni0123" unicode="&#x123;" horiz-adv-x="593"
                   d="M278 -10q-67 0 -118.5 34t-80 94t-28.5 136q0 77 28.5 136.5t80 93.5t118.5 34q61 0 108.5 -31t75.5 -84v102h45v-496q0 -106 -55 -166.5t-159 -60.5q-83 0 -140 38t-77 93h52q16 -37 57 -62.5t108 -25.5q84 0 126.5 48t42.5 136v96q-28 -53 -75.5 -84t-108.5 -31z
M279 33q55 0 96.5 29t65 79t23.5 113t-23.5 113t-65 79t-96.5 29q-54 0 -95 -28.5t-64 -78.5t-23 -114t23 -114t64 -78.5t95 -28.5zM286 564q-23 0 -36 15.5t-13 38.5q0 28 12.5 63t43.5 82h44q-25 -38 -36.5 -62.5t-19.5 -54.5q23 0 35.5 -12t12.5 -29q0 -16 -11.5 -28.5
t-31.5 -12.5z"/>
            <glyph glyph-name="uni0137" unicode="&#x137;" horiz-adv-x="498"
                   d="M86 0v725h45v-439l263 219h65l-286 -238l315 -267h-67l-290 248v-248h-45zM222 -243q16 25 25 41.5t14.5 31.5t10.5 34q-23 0 -35.5 12t-12.5 29t12 29t31 12q23 0 36 -15.5t13 -38.5q0 -28 -10.5 -58t-39.5 -77h-44z"/>
            <glyph glyph-name="uni013C" unicode="&#x13c;" horiz-adv-x="217"
                   d="M86 0v725h45v-725h-45zM61 -243q16 25 25 41.5t14.5 31.5t10.5 34q-23 0 -35.5 12t-12.5 29t12 29t31 12q23 0 36 -15.5t13 -38.5q0 -28 -10.5 -58t-39.5 -77h-44z"/>
            <glyph glyph-name="uni0146" unicode="&#x146;" horiz-adv-x="561"
                   d="M131 302v-302h-45v505h45v-81q26 44 70 69t95 25q59 0 100 -27t62.5 -74t21.5 -106v-311h-45v298q0 83 -36 130t-106 47q-42 0 -79 -19.5t-60 -58t-23 -95.5zM235 -243q16 25 25 41.5t14.5 31.5t10.5 34q-23 0 -35.5 12t-12.5 29t12 29t31 12q23 0 36 -15.5t13 -38.5
q0 -28 -10.5 -58t-39.5 -77h-44z"/>
            <glyph glyph-name="uni0157" unicode="&#x157;" horiz-adv-x="324"
                   d="M131 263v-263h-45v505h45v-96q25 48 66 73t88 25h11v-44h-11q-39 0 -74 -22t-57.5 -66t-22.5 -112zM61 -243q16 25 25 41.5t14.5 31.5t10.5 34q-23 0 -35.5 12t-12.5 29t12 29t31 12q23 0 36 -15.5t13 -38.5q0 -28 -10.5 -58t-39.5 -77h-44z"/>
            <glyph glyph-name="uni0219" unicode="&#x219;" horiz-adv-x="482"
                   d="M250 -14q-82 0 -137 39.5t-69 97.5h50q9 -37 51 -65.5t105 -28.5q62 0 101.5 28t39.5 77q0 38 -26 63.5t-86 32.5l-81 10q-69 8 -106 39t-37 90q0 42 23.5 75.5t65 53.5t95.5 20q69 0 118.5 -33t69.5 -92h-50q-13 38 -48.5 60t-88.5 22q-63 0 -101 -29.5t-38 -76.5
q0 -37 26 -57t84 -28l81 -10q71 -9 108 -45t37 -95q0 -44 -24.5 -77.5t-66.5 -52t-96 -18.5zM202 -243q16 25 25 41.5t14.5 31.5t10.5 34q-23 0 -35.5 12t-12.5 29t12 29t31 12q23 0 36 -15.5t13 -38.5q0 -28 -10.5 -58t-39.5 -77h-44z"/>
            <glyph glyph-name="uni021B" unicode="&#x21b;" horiz-adv-x="317"
                   d="M253 -3q-137 0 -137 147v319h-100v42h100v172q21 1 45 11v-183h123v-42h-123v-319q0 -105 93 -105h30v-42h-31zM149 -243q16 25 25 41.5t14.5 31.5t10.5 34q-23 0 -35.5 12t-12.5 29t12 29t31 12q23 0 36 -15.5t13 -38.5q0 -28 -10.5 -58t-39.5 -77h-44z"/>
            <glyph glyph-name="aogonek" unicode="&#x105;" horiz-adv-x="526"
                   d="M217 -14q-76 0 -123.5 40t-47.5 111q0 74 54.5 115t157.5 41h142v31q0 80 -39.5 115.5t-106.5 35.5q-57 0 -95 -23.5t-46 -58.5h-48q13 59 65 92t122 33q89 0 141 -47t52 -147v-324h-45v87q-29 -50 -79 -75.5t-104 -25.5zM219 28q40 0 81.5 19t70.5 57t29 96v51h-142
q-80 0 -123.5 -29t-43.5 -85q0 -51 35.5 -80t92.5 -29zM418 -229q-53 0 -84.5 29.5t-31.5 74.5q0 84 116 144l27 -19q-55 -32 -77 -61.5t-22 -61.5q0 -30 21 -48t55 -18h33v-40h-37z"/>
            <glyph glyph-name="eogonek" unicode="&#x119;" horiz-adv-x="547"
                   d="M286 -14q-72 0 -125 32.5t-81.5 92.5t-28.5 141q0 78 28 138t79.5 94t123.5 34q69 0 116.5 -31.5t72 -86t24.5 -124.5v-34h-398q3 -98 53 -155.5t136 -57.5q56 0 95 22.5t50 57.5h51q-17 -57 -71 -90t-125 -33zM282 475q-80 0 -128 -53t-56 -138h351q-2 84 -44 137.5
t-123 53.5zM361 -229q-53 0 -84.5 28t-31.5 76q0 28 13.5 54t46.5 54.5t91 63.5l27 -19q-56 -36 -85 -62t-39 -47t-10 -42q0 -33 21 -49.5t55 -16.5h33v-40h-37z"/>
            <glyph glyph-name="iogonek" unicode="&#x12f;" horiz-adv-x="217"
                   d="M109 595q-18 0 -30.5 12.5t-12.5 30.5t12.5 30.5t30.5 12.5t30.5 -12.5t12.5 -30.5t-12.5 -30.5t-30.5 -12.5zM86 0v505h45v-505h-45zM104 -229q-53 0 -84.5 29.5t-31.5 74.5q0 84 116 144l27 -19q-55 -32 -77 -61.5t-22 -61.5q0 -30 21 -48t55 -18h33v-40h-37z"/>
            <glyph glyph-name="glyph300" horiz-adv-x="217"
                   d="M104 -229q-53 0 -84.5 29.5t-31.5 74.5q0 77 98 134v496h45v-505q-55 -32 -77 -61.5t-22 -61.5q0 -30 21 -48t55 -18h33v-40h-37z"/>
            <glyph glyph-name="uogonek" unicode="&#x173;" horiz-adv-x="557"
                   d="M426 201v304h45v-505h-45v80q-25 -43 -66 -68t-91 -25q-56 0 -98.5 26t-66 73t-23.5 110v309h45v-304q0 -77 40 -124t105 -47q43 0 78 20.5t56 59t21 91.5zM444 -229q-53 0 -84.5 29.5t-31.5 74.5q0 84 116 144l27 -19q-55 -32 -77 -61.5t-22 -61.5q0 -30 21 -48t55 -18
h33v-40h-37z"/>
            <glyph glyph-name="acutecomb" unicode="&#x301;" horiz-adv-x="0"
                   d="M18 582h-47l75 151h52z"/>
            <glyph glyph-name="glyph303" horiz-adv-x="0"
                   d="M19 773h-48l88 144h54z"/>
            <glyph glyph-name="acute" unicode="&#xb4;" horiz-adv-x="561"
                   d="M264 582h-47l75 151h52z"/>
            <glyph glyph-name="uni030B" unicode="&#x30b;" horiz-adv-x="0"
                   d="M43 582l85 151h52l-90 -151h-47zM-89 582l75 151h52l-80 -151h-47z"/>
            <glyph glyph-name="glyph306" horiz-adv-x="0"
                   d="M-42 773h-47l77 144h52zM90 773h-47l87 144h52z"/>
            <glyph glyph-name="hungarumlaut" unicode="&#x2dd;" horiz-adv-x="561"
                   d="M283 582l85 151h52l-90 -151h-47zM151 582l75 151h52l-80 -151h-47z"/>
            <glyph glyph-name="Aacute" unicode="&#xc1;" horiz-adv-x="668"
                   d="M594 0l-91 221h-340l-91 -221h-49l288 696h46l288 -696h-51zM181 265h304l-152 370zM352 773h-48l88 144h54z"/>
            <glyph glyph-name="Cacute" unicode="&#x106;" horiz-adv-x="708"
                   d="M59 348q0 107 41 188.5t112.5 127.5t162.5 46q113 0 184 -53.5t99 -156.5h-52q-21 77 -80.5 121t-150.5 44q-77 0 -138 -39t-95.5 -110t-34.5 -168t34.5 -168t95.5 -110t138 -39q92 0 152 44t79 116h52q-28 -97 -99.5 -151t-183.5 -54q-91 0 -162.5 46t-112.5 127.5
t-41 188.5zM394 773h-48l88 144h54z"/>
            <glyph glyph-name="Eacute" unicode="&#xc9;" horiz-adv-x="641"
                   d="M102 0v696h461v-44h-414v-269h404v-44h-404v-295h419v-44h-466zM352 773h-48l88 144h54z"/>
            <glyph glyph-name="Iacute" unicode="&#xcd;" horiz-adv-x="251"
                   d="M149 0h-47v696h47v-696zM145 773h-48l88 144h54z"/>
            <glyph glyph-name="Iacute_J_acutecomb.locl" horiz-adv-x="663"
                   d="M354 -14q-69 0 -125.5 25.5t-92.5 72t-45 109.5h51q11 -71 66.5 -116.5t145.5 -45.5q60 0 108.5 22.5t77 69t28.5 119.5v454h47v-453q0 -88 -36.5 -145t-95.5 -84.5t-129 -27.5zM92 321v375h47v-375h-47zM135 773h-48l88 144h54zM611 773h-48l88 144h54z"/>
            <glyph glyph-name="Lacute" unicode="&#x139;" horiz-adv-x="596"
                   d="M553 44v-44h-451v696h47v-652h404zM144 773h-48l88 144h54z"/>
            <glyph glyph-name="Nacute" unicode="&#x143;" horiz-adv-x="762"
                   d="M102 0v696h47l464 -618v618h47v-696h-46l-465 619v-619h-47zM400 773h-48l88 144h54z"/>
            <glyph glyph-name="Oacute" unicode="&#xd3;" horiz-adv-x="784"
                   d="M392 -14q-97 0 -172 46.5t-118 128.5t-43 187q0 106 43 187.5t118 128t172 46.5t172 -46.5t118 -128t43 -187.5q0 -105 -43 -187t-118 -128.5t-172 -46.5zM392 31q83 0 147 41t101 112.5t37 163.5t-37 163.5t-101 112.5t-147 41q-82 0 -146.5 -41t-101.5 -112.5
t-37 -163.5t37 -163.5t101.5 -112.5t146.5 -41zM411 773h-48l88 144h54z"/>
            <glyph glyph-name="Racute" unicode="&#x154;" horiz-adv-x="676"
                   d="M102 0v696h239q137 0 203 -52.5t66 -150.5q0 -76 -43.5 -128.5t-131.5 -70.5l202 -294h-61l-195 286q-19 -1 -40 -1h-192v-285h-47zM149 329h192q112 0 166.5 44t54.5 120q0 77 -54 118t-167 41h-192v-323zM355 773h-48l88 144h54z"/>
            <glyph glyph-name="Sacute" unicode="&#x15a;" horiz-adv-x="631"
                   d="M324 -14q-101 0 -176 47t-99 135h52q20 -62 79 -99.5t144 -37.5q55 0 101.5 18t74.5 51.5t28 81.5q0 59 -37 95t-137 52l-90 14q-102 16 -150 56.5t-48 120.5q0 58 33 100.5t89 66t125 23.5q60 0 112.5 -18t89.5 -56.5t50 -100.5h-52q-16 68 -70 99t-130 31
q-58 0 -103 -18t-70.5 -50.5t-25.5 -76.5q0 -38 15.5 -63.5t53.5 -41.5t103 -27l82 -13q109 -17 158.5 -63.5t49.5 -129.5q0 -61 -33 -105t-90 -67.5t-129 -23.5zM332 773h-48l88 144h54z"/>
            <glyph glyph-name="Uacute" unicode="&#xda;" horiz-adv-x="740"
                   d="M370 -14q-91 0 -153 38t-94 107t-32 162v403h47v-403q0 -121 58.5 -191.5t173.5 -70.5q116 0 174 70.5t58 191.5v403h47v-403q0 -93 -32 -162t-94 -107t-153 -38zM389 773h-48l88 144h54z"/>
            <glyph glyph-name="Wacute" unicode="&#x1e82;" horiz-adv-x="966"
                   d="M252 0l-217 696h50l195 -633l180 631h45l186 -632l191 634h49l-217 -696h-49l-183 605l-179 -605h-51zM502 773h-48l88 144h54z"/>
            <glyph glyph-name="Yacute" unicode="&#xdd;" horiz-adv-x="614"
                   d="M285 0v279l-266 417h57l233 -370l231 370h55l-263 -415v-281h-47zM326 773h-48l88 144h54z"/>
            <glyph glyph-name="Zacute" unicode="&#x179;" horiz-adv-x="610"
                   d="M46 696h512v-44l-454 -608h462v-44h-520v44l454 608h-454v44zM321 773h-48l88 144h54z"/>
            <glyph glyph-name="AEacute" unicode="&#x1fc;" horiz-adv-x="1044"
                   d="M65 0h-55l471 696h485v-44h-414v-269h404v-44h-404v-295h419v-44h-466v221h-291zM243 265h262v389zM733 773h-48l88 144h54z"/>
            <glyph glyph-name="Oslashacute" unicode="&#x1fe;" horiz-adv-x="784"
                   d="M96 -47l78 114q-54 49 -84.5 121t-30.5 160q0 106 43 187.5t118 128t172 46.5q52 0 98 -14t84 -39l59 86h55l-78 -114q54 -49 84.5 -121t30.5 -160q0 -105 -43 -187t-118 -128.5t-172 -46.5q-52 0 -98 14t-84 39l-59 -86h-55zM107 348q0 -75 25 -137t69 -104l347 511
q-33 23 -72.5 35t-83.5 12q-82 0 -146.5 -41t-101.5 -112.5t-37 -163.5zM392 31q83 0 147 41t101 112.5t37 163.5q0 75 -25 137t-69 104l-347 -511q33 -23 72.5 -35t83.5 -12zM411 773h-48l88 144h54z"/>
            <glyph glyph-name="Ohungarumlaut" unicode="&#x150;" horiz-adv-x="784"
                   d="M392 -14q-97 0 -172 46.5t-118 128.5t-43 187q0 106 43 187.5t118 128t172 46.5t172 -46.5t118 -128t43 -187.5q0 -105 -43 -187t-118 -128.5t-172 -46.5zM392 31q83 0 147 41t101 112.5t37 163.5t-37 163.5t-101 112.5t-147 41q-82 0 -146.5 -41t-101.5 -112.5
t-37 -163.5t37 -163.5t101.5 -112.5t146.5 -41zM350 773h-47l77 144h52zM482 773h-47l87 144h52z"/>
            <glyph glyph-name="Uhungarumlaut" unicode="&#x170;" horiz-adv-x="740"
                   d="M370 -14q-91 0 -153 38t-94 107t-32 162v403h47v-403q0 -121 58.5 -191.5t173.5 -70.5q116 0 174 70.5t58 191.5v403h47v-403q0 -93 -32 -162t-94 -107t-153 -38zM328 773h-47l77 144h52zM460 773h-47l87 144h52z"/>
            <glyph glyph-name="aacute" unicode="&#xe1;" horiz-adv-x="526"
                   d="M217 -14q-76 0 -123.5 40t-47.5 111q0 74 54.5 115t157.5 41h142v31q0 80 -39.5 115.5t-106.5 35.5q-57 0 -95 -23.5t-46 -58.5h-48q13 59 65 92t122 33q89 0 141 -47t52 -147v-324h-45v87q-29 -50 -79 -75.5t-104 -25.5zM219 28q40 0 81.5 19t70.5 57t29 96v51h-142
q-80 0 -123.5 -29t-43.5 -85q0 -51 35.5 -80t92.5 -29zM281 582h-47l75 151h52z"/>
            <glyph glyph-name="cacute" unicode="&#x107;" horiz-adv-x="521"
                   d="M282 -14q-68 0 -120 33.5t-81.5 93.5t-29.5 139q0 78 29.5 138t81.5 94t120 34q80 0 131 -41.5t64 -108.5h-50q-8 45 -45.5 76t-99.5 31q-54 0 -96 -28.5t-65.5 -78.5t-23.5 -116t23.5 -116.5t65.5 -78.5t96 -28q63 0 100.5 30t45.5 77h49q-12 -66 -63.5 -108t-131.5 -42
zM300 582h-47l75 151h52z"/>
            <glyph glyph-name="eacute" unicode="&#xe9;" horiz-adv-x="547"
                   d="M286 -14q-72 0 -125 32.5t-81.5 92.5t-28.5 141q0 78 28 138t79.5 94t123.5 34q69 0 116.5 -31.5t72 -86t24.5 -124.5v-34h-398q3 -98 53 -155.5t136 -57.5q56 0 95 22.5t50 57.5h51q-17 -57 -71 -90t-125 -33zM282 475q-80 0 -128 -53t-56 -138h351q-2 84 -44 137.5
t-123 53.5zM291 582h-47l75 151h52z"/>
            <glyph glyph-name="iacute" unicode="&#xed;" horiz-adv-x="217"
                   d="M86 0v505h45v-505h-45zM127 582h-47l75 151h52z"/>
            <glyph glyph-name="iacute_j_acutecomb.locl" horiz-adv-x="434"
                   d="M86 0v505h45v-505h-45zM187 -205v42h24q47 0 69.5 29.5t22.5 81.5v557h45v-557q0 -73 -34 -113t-102 -40h-25zM127 582h-47l75 151h52zM344 582h-47l75 151h52z"/>
            <glyph glyph-name="lacute" unicode="&#x13a;" horiz-adv-x="217"
                   d="M86 0v725h45v-725h-45zM128 802h-48l88 144h54z"/>
            <glyph glyph-name="nacute" unicode="&#x144;" horiz-adv-x="561"
                   d="M131 302v-302h-45v505h45v-81q26 44 70 69t95 25q59 0 100 -27t62.5 -74t21.5 -106v-311h-45v298q0 83 -36 130t-106 47q-42 0 -79 -19.5t-60 -58t-23 -95.5zM301 582h-47l75 151h52z"/>
            <glyph glyph-name="oacute" unicode="&#xf3;" horiz-adv-x="564"
                   d="M282 -14q-68 0 -120 34t-81.5 94t-29.5 138t29.5 138t81.5 94t120 34t120 -34t81.5 -94t29.5 -138t-29.5 -138t-81.5 -94t-120 -34zM282 29q55 0 96.5 28.5t65 79t23.5 115.5q0 66 -23.5 116t-65 78.5t-96.5 28.5q-54 0 -96 -28.5t-65.5 -78.5t-23.5 -116
q0 -65 23.5 -115.5t65.5 -79t96 -28.5zM300 582h-47l75 151h52z"/>
            <glyph glyph-name="racute" unicode="&#x155;" horiz-adv-x="324"
                   d="M131 263v-263h-45v505h45v-96q25 48 66 73t88 25h11v-44h-11q-39 0 -74 -22t-57.5 -66t-22.5 -112zM209 582h-47l75 151h52z"/>
            <glyph glyph-name="sacute" unicode="&#x15b;" horiz-adv-x="482"
                   d="M250 -14q-82 0 -137 39.5t-69 97.5h50q9 -37 51 -65.5t105 -28.5q62 0 101.5 28t39.5 77q0 38 -26 63.5t-86 32.5l-81 10q-69 8 -106 39t-37 90q0 42 23.5 75.5t65 53.5t95.5 20q69 0 118.5 -33t69.5 -92h-50q-13 38 -48.5 60t-88.5 22q-63 0 -101 -29.5t-38 -76.5
q0 -37 26 -57t84 -28l81 -10q71 -9 108 -45t37 -95q0 -44 -24.5 -77.5t-66.5 -52t-96 -18.5zM257 582h-47l75 151h52z"/>
            <glyph glyph-name="uacute" unicode="&#xfa;" horiz-adv-x="557"
                   d="M426 201v304h45v-505h-45v80q-25 -43 -66 -68t-91 -25q-56 0 -98.5 26t-66 73t-23.5 110v309h45v-304q0 -77 40 -124t105 -47q43 0 78 20.5t56 59t21 91.5zM294 582h-47l75 151h52z"/>
            <glyph glyph-name="wacute" unicode="&#x1e83;" horiz-adv-x="732"
                   d="M188 0l-166 505h50l140 -442l133 440h42l136 -440l139 442h48l-166 -505h-46l-132 426l-132 -426h-46zM384 582h-47l75 151h52z"/>
            <glyph glyph-name="yacute" unicode="&#xfd;" horiz-adv-x="483"
                   d="M136 -205l83 205l-202 505h50l176 -451l175 451h48l-284 -710h-46zM260 582h-47l75 151h52z"/>
            <glyph glyph-name="zacute" unicode="&#x17a;" horiz-adv-x="485"
                   d="M43 0v43l341 419h-341v43h394v-43l-339 -419h347v-43h-402zM259 582h-47l75 151h52z"/>
            <glyph glyph-name="aeacute" unicode="&#x1fd;" horiz-adv-x="896"
                   d="M217 -14q-76 0 -123.5 40t-47.5 111q0 74 53.5 113.5t155.5 39.5h145v34q0 80 -39.5 115.5t-106.5 35.5q-57 0 -95 -23.5t-46 -58.5h-48q13 59 65 92t122 33q66 0 113 -27t69 -90q33 63 85 90t112 27q69 0 116.5 -31.5t72 -86t24.5 -124.5v-28h-398q1 -101 51.5 -160
t137.5 -59q56 0 95 22.5t50 57.5h51q-17 -57 -71 -90t-125 -33q-76 0 -130 35.5t-81 101.5q-25 -66 -83.5 -101.5t-123.5 -35.5zM631 475q-79 0 -126.5 -51t-56.5 -134h350q-4 82 -46 133.5t-121 51.5zM219 28q45 0 86.5 20.5t68 61t26.5 99.5v39h-145q-80 0 -122 -27.5
t-42 -83.5q0 -51 35.5 -80t92.5 -29zM452 582h-47l75 151h52z"/>
            <glyph glyph-name="oslashacute" unicode="&#x1ff;" horiz-adv-x="564"
                   d="M66 -46l61 94q-36 36 -56 88t-20 116q0 78 29.5 138t81.5 94t120 34q69 0 123 -36l44 68h49l-61 -94q36 -36 56 -88t20 -116q0 -78 -29.5 -138t-81.5 -94t-120 -34q-69 0 -123 36l-44 -68h-49zM97 252q0 -51 14.5 -93t40.5 -71l229 356q-43 31 -99 31q-54 0 -96 -28.5
t-65.5 -78.5t-23.5 -116zM282 29q55 0 96.5 28.5t65 78.5t23.5 116q0 51 -14.5 93t-40.5 71l-229 -356q43 -31 99 -31zM300 582h-47l75 151h52z"/>
            <glyph glyph-name="ohungarumlaut" unicode="&#x151;" horiz-adv-x="564"
                   d="M282 -14q-68 0 -120 34t-81.5 94t-29.5 138t29.5 138t81.5 94t120 34t120 -34t81.5 -94t29.5 -138t-29.5 -138t-81.5 -94t-120 -34zM282 29q55 0 96.5 28.5t65 79t23.5 115.5q0 66 -23.5 116t-65 78.5t-96.5 28.5q-54 0 -96 -28.5t-65.5 -78.5t-23.5 -116
q0 -65 23.5 -115.5t65.5 -79t96 -28.5zM325 582l85 151h52l-90 -151h-47zM193 582l75 151h52l-80 -151h-47z"/>
            <glyph glyph-name="uhungarumlaut" unicode="&#x171;" horiz-adv-x="557"
                   d="M426 201v304h45v-505h-45v80q-25 -43 -66 -68t-91 -25q-56 0 -98.5 26t-66 73t-23.5 110v309h45v-304q0 -77 40 -124t105 -47q43 0 78 20.5t56 59t21 91.5zM319 582l85 151h52l-90 -151h-47zM187 582l75 151h52l-80 -151h-47z"/>
            <glyph glyph-name="gravecomb" unicode="&#x300;" horiz-adv-x="0"
                   d="M-18 582l-80 151h52l75 -151h-47z"/>
            <glyph glyph-name="glyph345" horiz-adv-x="0"
                   d="M-19 773l-94 144h54l88 -144h-48z"/>
            <glyph glyph-name="grave" unicode="`" horiz-adv-x="561"
                   d="M297 582l-80 151h52l75 -151h-47z"/>
            <glyph glyph-name="uni02CB" unicode="&#x2cb;" horiz-adv-x="561"
                   d="M297 582l-80 151h52l75 -151h-47z"/>
            <glyph glyph-name="Agrave" unicode="&#xc0;" horiz-adv-x="668"
                   d="M594 0l-91 221h-340l-91 -221h-49l288 696h46l288 -696h-51zM181 265h304l-152 370zM314 773l-94 144h54l88 -144h-48z"/>
            <glyph glyph-name="Egrave" unicode="&#xc8;" horiz-adv-x="641"
                   d="M102 0v696h461v-44h-414v-269h404v-44h-404v-295h419v-44h-466zM314 773l-94 144h54l88 -144h-48z"/>
            <glyph glyph-name="Igrave" unicode="&#xcc;" horiz-adv-x="251"
                   d="M149 0h-47v696h47v-696zM107 773l-94 144h54l88 -144h-48z"/>
            <glyph glyph-name="Ograve" unicode="&#xd2;" horiz-adv-x="784"
                   d="M392 -14q-97 0 -172 46.5t-118 128.5t-43 187q0 106 43 187.5t118 128t172 46.5t172 -46.5t118 -128t43 -187.5q0 -105 -43 -187t-118 -128.5t-172 -46.5zM392 31q83 0 147 41t101 112.5t37 163.5t-37 163.5t-101 112.5t-147 41q-82 0 -146.5 -41t-101.5 -112.5
t-37 -163.5t37 -163.5t101.5 -112.5t146.5 -41zM373 773l-94 144h54l88 -144h-48z"/>
            <glyph glyph-name="Ugrave" unicode="&#xd9;" horiz-adv-x="740"
                   d="M370 -14q-91 0 -153 38t-94 107t-32 162v403h47v-403q0 -121 58.5 -191.5t173.5 -70.5q116 0 174 70.5t58 191.5v403h47v-403q0 -93 -32 -162t-94 -107t-153 -38zM351 773l-94 144h54l88 -144h-48z"/>
            <glyph glyph-name="Wgrave" unicode="&#x1e80;" horiz-adv-x="966"
                   d="M252 0l-217 696h50l195 -633l180 631h45l186 -632l191 634h49l-217 -696h-49l-183 605l-179 -605h-51zM464 773l-94 144h54l88 -144h-48z"/>
            <glyph glyph-name="Ygrave" unicode="&#x1ef2;" horiz-adv-x="614"
                   d="M285 0v279l-266 417h57l233 -370l231 370h55l-263 -415v-281h-47zM288 773l-94 144h54l88 -144h-48z"/>
            <glyph glyph-name="agrave" unicode="&#xe0;" horiz-adv-x="526"
                   d="M217 -14q-76 0 -123.5 40t-47.5 111q0 74 54.5 115t157.5 41h142v31q0 80 -39.5 115.5t-106.5 35.5q-57 0 -95 -23.5t-46 -58.5h-48q13 59 65 92t122 33q89 0 141 -47t52 -147v-324h-45v87q-29 -50 -79 -75.5t-104 -25.5zM219 28q40 0 81.5 19t70.5 57t29 96v51h-142
q-80 0 -123.5 -29t-43.5 -85q0 -51 35.5 -80t92.5 -29zM245 582l-80 151h52l75 -151h-47z"/>
            <glyph glyph-name="egrave" unicode="&#xe8;" horiz-adv-x="547"
                   d="M286 -14q-72 0 -125 32.5t-81.5 92.5t-28.5 141q0 78 28 138t79.5 94t123.5 34q69 0 116.5 -31.5t72 -86t24.5 -124.5v-34h-398q3 -98 53 -155.5t136 -57.5q56 0 95 22.5t50 57.5h51q-17 -57 -71 -90t-125 -33zM282 475q-80 0 -128 -53t-56 -138h351q-2 84 -44 137.5
t-123 53.5zM255 582l-80 151h52l75 -151h-47z"/>
            <glyph glyph-name="igrave" unicode="&#xec;" horiz-adv-x="217"
                   d="M86 0v505h45v-505h-45zM91 582l-80 151h52l75 -151h-47z"/>
            <glyph glyph-name="ograve" unicode="&#xf2;" horiz-adv-x="564"
                   d="M282 -14q-68 0 -120 34t-81.5 94t-29.5 138t29.5 138t81.5 94t120 34t120 -34t81.5 -94t29.5 -138t-29.5 -138t-81.5 -94t-120 -34zM282 29q55 0 96.5 28.5t65 79t23.5 115.5q0 66 -23.5 116t-65 78.5t-96.5 28.5q-54 0 -96 -28.5t-65.5 -78.5t-23.5 -116
q0 -65 23.5 -115.5t65.5 -79t96 -28.5zM264 582l-80 151h52l75 -151h-47z"/>
            <glyph glyph-name="ugrave" unicode="&#xf9;" horiz-adv-x="557"
                   d="M426 201v304h45v-505h-45v80q-25 -43 -66 -68t-91 -25q-56 0 -98.5 26t-66 73t-23.5 110v309h45v-304q0 -77 40 -124t105 -47q43 0 78 20.5t56 59t21 91.5zM258 582l-80 151h52l75 -151h-47z"/>
            <glyph glyph-name="wgrave" unicode="&#x1e81;" horiz-adv-x="732"
                   d="M188 0l-166 505h50l140 -442l133 440h42l136 -440l139 442h48l-166 -505h-46l-132 426l-132 -426h-46zM348 582l-80 151h52l75 -151h-47z"/>
            <glyph glyph-name="ygrave" unicode="&#x1ef3;" horiz-adv-x="483"
                   d="M136 -205l83 205l-202 505h50l176 -451l175 451h48l-284 -710h-46zM224 582l-80 151h52l75 -151h-47z"/>
            <glyph glyph-name="uni0302" unicode="&#x302;" horiz-adv-x="0"
                   d="M-144 582l117 151h54l117 -151h-49l-95 118l-95 -118h-49z"/>
            <glyph glyph-name="glyph363" horiz-adv-x="0"
                   d="M-152 773l125 144h54l125 -144h-51l-101 112l-101 -112h-51z"/>
            <glyph glyph-name="circumflex" unicode="&#x2c6;" horiz-adv-x="561"
                   d="M137 582l117 151h54l117 -151h-49l-95 118l-95 -118h-49z"/>
            <glyph glyph-name="tildecomb" unicode="&#x303;" horiz-adv-x="0"
                   d="M73 588q-19 0 -39.5 9t-45.5 30q-22 19 -35.5 25t-23.5 6q-42 0 -42 -43v-25h-41v26q0 38 23 60.5t58 22.5q20 0 40 -9t45 -30q22 -19 35.5 -25t23.5 -6q42 0 42 43v25h41v-26q0 -37 -23 -60t-58 -23z"/>
            <glyph glyph-name="glyph366" horiz-adv-x="0"
                   d="M75 779q-21 0 -40.5 8.5t-46.5 30.5q-22 18 -35 24.5t-25 6.5q-46 0 -46 -43v-25h-41v26q0 38 23.5 60.5t60.5 22.5q21 0 40.5 -8.5t46.5 -30.5q23 -18 35.5 -24.5t24.5 -6.5q46 0 46 43v25h41v-26q0 -37 -23.5 -60t-60.5 -23z"/>
            <glyph glyph-name="tilde" unicode="&#x2dc;" horiz-adv-x="561"
                   d="M354 588q-19 0 -39.5 9t-45.5 30q-22 19 -35.5 25t-23.5 6q-42 0 -42 -43v-25h-41v26q0 38 23 60.5t58 22.5q20 0 40 -9t45 -30q22 -19 35.5 -25t23.5 -6q42 0 42 43v25h41v-26q0 -37 -23 -60t-58 -23z"/>
            <glyph glyph-name="Acircumflex" unicode="&#xc2;" horiz-adv-x="668"
                   d="M594 0l-91 221h-340l-91 -221h-49l288 696h46l288 -696h-51zM181 265h304l-152 370zM181 773l125 144h54l125 -144h-51l-101 112l-101 -112h-51z"/>
            <glyph glyph-name="Ecircumflex" unicode="&#xca;" horiz-adv-x="641"
                   d="M102 0v696h461v-44h-414v-269h404v-44h-404v-295h419v-44h-466zM181 773l125 144h54l125 -144h-51l-101 112l-101 -112h-51z"/>
            <glyph glyph-name="Icircumflex" unicode="&#xce;" horiz-adv-x="251"
                   d="M149 0h-47v696h47v-696zM-26 773l125 144h54l125 -144h-51l-101 112l-101 -112h-51z"/>
            <glyph glyph-name="Ocircumflex" unicode="&#xd4;" horiz-adv-x="784"
                   d="M392 -14q-97 0 -172 46.5t-118 128.5t-43 187q0 106 43 187.5t118 128t172 46.5t172 -46.5t118 -128t43 -187.5q0 -105 -43 -187t-118 -128.5t-172 -46.5zM392 31q83 0 147 41t101 112.5t37 163.5t-37 163.5t-101 112.5t-147 41q-82 0 -146.5 -41t-101.5 -112.5
t-37 -163.5t37 -163.5t101.5 -112.5t146.5 -41zM240 773l125 144h54l125 -144h-51l-101 112l-101 -112h-51z"/>
            <glyph glyph-name="Ucircumflex" unicode="&#xdb;" horiz-adv-x="740"
                   d="M370 -14q-91 0 -153 38t-94 107t-32 162v403h47v-403q0 -121 58.5 -191.5t173.5 -70.5q116 0 174 70.5t58 191.5v403h47v-403q0 -93 -32 -162t-94 -107t-153 -38zM218 773l125 144h54l125 -144h-51l-101 112l-101 -112h-51z"/>
            <glyph glyph-name="Wcircumflex" unicode="&#x174;" horiz-adv-x="966"
                   d="M252 0l-217 696h50l195 -633l180 631h45l186 -632l191 634h49l-217 -696h-49l-183 605l-179 -605h-51zM331 773l125 144h54l125 -144h-51l-101 112l-101 -112h-51z"/>
            <glyph glyph-name="Ycircumflex" unicode="&#x176;" horiz-adv-x="614"
                   d="M285 0v279l-266 417h57l233 -370l231 370h55l-263 -415v-281h-47zM155 773l125 144h54l125 -144h-51l-101 112l-101 -112h-51z"/>
            <glyph glyph-name="Atilde" unicode="&#xc3;" horiz-adv-x="668"
                   d="M594 0l-91 221h-340l-91 -221h-49l288 696h46l288 -696h-51zM181 265h304l-152 370zM408 779q-21 0 -40.5 8.5t-46.5 30.5q-22 18 -35 24.5t-25 6.5q-46 0 -46 -43v-25h-41v26q0 38 23.5 60.5t60.5 22.5q21 0 40.5 -8.5t46.5 -30.5q23 -18 35.5 -24.5t24.5 -6.5
q46 0 46 43v25h41v-26q0 -37 -23.5 -60t-60.5 -23z"/>
            <glyph glyph-name="Itilde" unicode="&#x128;" horiz-adv-x="251"
                   d="M149 0h-47v696h47v-696zM201 779q-21 0 -40.5 8.5t-46.5 30.5q-22 18 -35 24.5t-25 6.5q-46 0 -46 -43v-25h-41v26q0 38 23.5 60.5t60.5 22.5q21 0 40.5 -8.5t46.5 -30.5q23 -18 35.5 -24.5t24.5 -6.5q46 0 46 43v25h41v-26q0 -37 -23.5 -60t-60.5 -23z"/>
            <glyph glyph-name="Ntilde" unicode="&#xd1;" horiz-adv-x="762"
                   d="M102 0v696h47l464 -618v618h47v-696h-46l-465 619v-619h-47zM456 779q-21 0 -40.5 8.5t-46.5 30.5q-22 18 -35 24.5t-25 6.5q-46 0 -46 -43v-25h-41v26q0 38 23.5 60.5t60.5 22.5q21 0 40.5 -8.5t46.5 -30.5q23 -18 35.5 -24.5t24.5 -6.5q46 0 46 43v25h41v-26
q0 -37 -23.5 -60t-60.5 -23z"/>
            <glyph glyph-name="Otilde" unicode="&#xd5;" horiz-adv-x="784"
                   d="M392 -14q-97 0 -172 46.5t-118 128.5t-43 187q0 106 43 187.5t118 128t172 46.5t172 -46.5t118 -128t43 -187.5q0 -105 -43 -187t-118 -128.5t-172 -46.5zM392 31q83 0 147 41t101 112.5t37 163.5t-37 163.5t-101 112.5t-147 41q-82 0 -146.5 -41t-101.5 -112.5
t-37 -163.5t37 -163.5t101.5 -112.5t146.5 -41zM467 779q-21 0 -40.5 8.5t-46.5 30.5q-22 18 -35 24.5t-25 6.5q-46 0 -46 -43v-25h-41v26q0 38 23.5 60.5t60.5 22.5q21 0 40.5 -8.5t46.5 -30.5q23 -18 35.5 -24.5t24.5 -6.5q46 0 46 43v25h41v-26q0 -37 -23.5 -60
t-60.5 -23z"/>
            <glyph glyph-name="Utilde" unicode="&#x168;" horiz-adv-x="740"
                   d="M370 -14q-91 0 -153 38t-94 107t-32 162v403h47v-403q0 -121 58.5 -191.5t173.5 -70.5q116 0 174 70.5t58 191.5v403h47v-403q0 -93 -32 -162t-94 -107t-153 -38zM445 779q-21 0 -40.5 8.5t-46.5 30.5q-22 18 -35 24.5t-25 6.5q-46 0 -46 -43v-25h-41v26q0 38 23.5 60.5
t60.5 22.5q21 0 40.5 -8.5t46.5 -30.5q23 -18 35.5 -24.5t24.5 -6.5q46 0 46 43v25h41v-26q0 -37 -23.5 -60t-60.5 -23z"/>
            <glyph glyph-name="acircumflex" unicode="&#xe2;" horiz-adv-x="526"
                   d="M217 -14q-76 0 -123.5 40t-47.5 111q0 74 54.5 115t157.5 41h142v31q0 80 -39.5 115.5t-106.5 35.5q-57 0 -95 -23.5t-46 -58.5h-48q13 59 65 92t122 33q89 0 141 -47t52 -147v-324h-45v87q-29 -50 -79 -75.5t-104 -25.5zM219 28q40 0 81.5 19t70.5 57t29 96v51h-142
q-80 0 -123.5 -29t-43.5 -85q0 -51 35.5 -80t92.5 -29zM119 582l117 151h54l117 -151h-49l-95 118l-95 -118h-49z"/>
            <glyph glyph-name="ecircumflex" unicode="&#xea;" horiz-adv-x="547"
                   d="M286 -14q-72 0 -125 32.5t-81.5 92.5t-28.5 141q0 78 28 138t79.5 94t123.5 34q69 0 116.5 -31.5t72 -86t24.5 -124.5v-34h-398q3 -98 53 -155.5t136 -57.5q56 0 95 22.5t50 57.5h51q-17 -57 -71 -90t-125 -33zM282 475q-80 0 -128 -53t-56 -138h351q-2 84 -44 137.5
t-123 53.5zM129 582l117 151h54l117 -151h-49l-95 118l-95 -118h-49z"/>
            <glyph glyph-name="icircumflex" unicode="&#xee;" horiz-adv-x="217"
                   d="M86 0v505h45v-505h-45zM-24 582l106 151h54l106 -151h-48l-85 116l-85 -116h-48z"/>
            <glyph glyph-name="ocircumflex" unicode="&#xf4;" horiz-adv-x="564"
                   d="M282 -14q-68 0 -120 34t-81.5 94t-29.5 138t29.5 138t81.5 94t120 34t120 -34t81.5 -94t29.5 -138t-29.5 -138t-81.5 -94t-120 -34zM282 29q55 0 96.5 28.5t65 79t23.5 115.5q0 66 -23.5 116t-65 78.5t-96.5 28.5q-54 0 -96 -28.5t-65.5 -78.5t-23.5 -116
q0 -65 23.5 -115.5t65.5 -79t96 -28.5zM138 582l117 151h54l117 -151h-49l-95 118l-95 -118h-49z"/>
            <glyph glyph-name="ucircumflex" unicode="&#xfb;" horiz-adv-x="557"
                   d="M426 201v304h45v-505h-45v80q-25 -43 -66 -68t-91 -25q-56 0 -98.5 26t-66 73t-23.5 110v309h45v-304q0 -77 40 -124t105 -47q43 0 78 20.5t56 59t21 91.5zM132 582l117 151h54l117 -151h-49l-95 118l-95 -118h-49z"/>
            <glyph glyph-name="wcircumflex" unicode="&#x175;" horiz-adv-x="732"
                   d="M188 0l-166 505h50l140 -442l133 440h42l136 -440l139 442h48l-166 -505h-46l-132 426l-132 -426h-46zM222 582l117 151h54l117 -151h-49l-95 118l-95 -118h-49z"/>
            <glyph glyph-name="ycircumflex" unicode="&#x177;" horiz-adv-x="483"
                   d="M136 -205l83 205l-202 505h50l176 -451l175 451h48l-284 -710h-46zM98 582l117 151h54l117 -151h-49l-95 118l-95 -118h-49z"/>
            <glyph glyph-name="atilde" unicode="&#xe3;" horiz-adv-x="526"
                   d="M217 -14q-76 0 -123.5 40t-47.5 111q0 74 54.5 115t157.5 41h142v31q0 80 -39.5 115.5t-106.5 35.5q-57 0 -95 -23.5t-46 -58.5h-48q13 59 65 92t122 33q89 0 141 -47t52 -147v-324h-45v87q-29 -50 -79 -75.5t-104 -25.5zM219 28q40 0 81.5 19t70.5 57t29 96v51h-142
q-80 0 -123.5 -29t-43.5 -85q0 -51 35.5 -80t92.5 -29zM336 588q-19 0 -39.5 9t-45.5 30q-22 19 -35.5 25t-23.5 6q-42 0 -42 -43v-25h-41v26q0 38 23 60.5t58 22.5q20 0 40 -9t45 -30q22 -19 35.5 -25t23.5 -6q42 0 42 43v25h41v-26q0 -37 -23 -60t-58 -23z"/>
            <glyph glyph-name="itilde" unicode="&#x129;" horiz-adv-x="217"
                   d="M86 0v505h45v-505h-45zM177 588q-19 0 -37 9t-43 30q-22 19 -33.5 25t-22.5 6q-17 0 -23.5 -11.5t-6.5 -31.5v-25h-41v26q0 38 19 60.5t52 22.5q20 0 37.5 -9t42.5 -30q22 -19 34 -25t22 -6q17 0 23.5 11.5t6.5 31.5v25h41v-26q0 -37 -19 -60t-52 -23z"/>
            <glyph glyph-name="ntilde" unicode="&#xf1;" horiz-adv-x="561"
                   d="M131 302v-302h-45v505h45v-81q26 44 70 69t95 25q59 0 100 -27t62.5 -74t21.5 -106v-311h-45v298q0 83 -36 130t-106 47q-42 0 -79 -19.5t-60 -58t-23 -95.5zM356 588q-19 0 -39.5 9t-45.5 30q-22 19 -35.5 25t-23.5 6q-42 0 -42 -43v-25h-41v26q0 38 23 60.5t58 22.5
q20 0 40 -9t45 -30q22 -19 35.5 -25t23.5 -6q42 0 42 43v25h41v-26q0 -37 -23 -60t-58 -23z"/>
            <glyph glyph-name="otilde" unicode="&#xf5;" horiz-adv-x="564"
                   d="M282 -14q-68 0 -120 34t-81.5 94t-29.5 138t29.5 138t81.5 94t120 34t120 -34t81.5 -94t29.5 -138t-29.5 -138t-81.5 -94t-120 -34zM282 29q55 0 96.5 28.5t65 79t23.5 115.5q0 66 -23.5 116t-65 78.5t-96.5 28.5q-54 0 -96 -28.5t-65.5 -78.5t-23.5 -116
q0 -65 23.5 -115.5t65.5 -79t96 -28.5zM355 588q-19 0 -39.5 9t-45.5 30q-22 19 -35.5 25t-23.5 6q-42 0 -42 -43v-25h-41v26q0 38 23 60.5t58 22.5q20 0 40 -9t45 -30q22 -19 35.5 -25t23.5 -6q42 0 42 43v25h41v-26q0 -37 -23 -60t-58 -23z"/>
            <glyph glyph-name="utilde" unicode="&#x169;" horiz-adv-x="557"
                   d="M426 201v304h45v-505h-45v80q-25 -43 -66 -68t-91 -25q-56 0 -98.5 26t-66 73t-23.5 110v309h45v-304q0 -77 40 -124t105 -47q43 0 78 20.5t56 59t21 91.5zM349 588q-19 0 -39.5 9t-45.5 30q-22 19 -35.5 25t-23.5 6q-42 0 -42 -43v-25h-41v26q0 38 23 60.5t58 22.5
q20 0 40 -9t45 -30q22 -19 35.5 -25t23.5 -6q42 0 42 43v25h41v-26q0 -37 -23 -60t-58 -23z"/>
            <glyph glyph-name="uni030C" unicode="&#x30c;" horiz-adv-x="0"
                   d="M-27 582l-117 151h49l95 -118l95 118h49l-117 -151h-54z"/>
            <glyph glyph-name="glyph393" horiz-adv-x="0"
                   d="M-27 773l-125 144h51l101 -112l101 112h51l-125 -144h-54z"/>
            <glyph glyph-name="caron" unicode="&#x2c7;" horiz-adv-x="561"
                   d="M254 582l-117 151h49l95 -118l95 118h49l-117 -151h-54z"/>
            <glyph glyph-name="uni0315" unicode="&#x315;" horiz-adv-x="0"
                   d="M-9 510l10 215h49l-21 -215h-38z"/>
            <glyph glyph-name="glyph396" horiz-adv-x="0"
                   d="M-81 574l10 151h49l-21 -151h-38z"/>
            <glyph glyph-name="uni0304" unicode="&#x304;" horiz-adv-x="0"
                   d="M-140 680h280v-42h-280v42z"/>
            <glyph glyph-name="glyph398" horiz-adv-x="0"
                   d="M-145 871h290v-42h-290v42z"/>
            <glyph glyph-name="uni02C9" unicode="&#x2c9;" horiz-adv-x="561"
                   d="M141 680h280v-42h-280v42z"/>
            <glyph glyph-name="macron" unicode="&#xaf;" horiz-adv-x="561"
                   d="M141 680h280v-42h-280v42z"/>
            <glyph glyph-name="Ccaron" unicode="&#x10c;" horiz-adv-x="708"
                   d="M59 348q0 107 41 188.5t112.5 127.5t162.5 46q113 0 184 -53.5t99 -156.5h-52q-21 77 -80.5 121t-150.5 44q-77 0 -138 -39t-95.5 -110t-34.5 -168t34.5 -168t95.5 -110t138 -39q92 0 152 44t79 116h52q-28 -97 -99.5 -151t-183.5 -54q-91 0 -162.5 46t-112.5 127.5
t-41 188.5zM348 773l-125 144h51l101 -112l101 112h51l-125 -144h-54z"/>
            <glyph glyph-name="Dcaron" unicode="&#x10e;" horiz-adv-x="732"
                   d="M102 0v696h238q67 0 127 -24t106.5 -69.5t73 -110t26.5 -144.5t-26.5 -144.5t-73 -110t-106.5 -69.5t-127 -24h-238zM149 44h187q76 0 142 36t106.5 104t40.5 164t-40.5 164t-106.5 104t-142 36h-187v-608zM333 773l-125 144h51l101 -112l101 112h51l-125 -144h-54z"/>
            <glyph glyph-name="Ecaron" unicode="&#x11a;" horiz-adv-x="641"
                   d="M102 0v696h461v-44h-414v-269h404v-44h-404v-295h419v-44h-466zM306 773l-125 144h51l101 -112l101 112h51l-125 -144h-54z"/>
            <glyph glyph-name="Lcaron" unicode="&#x13d;" horiz-adv-x="596"
                   d="M553 44v-44h-451v696h47v-652h404zM264 481l10 215h49l-21 -215h-38z"/>
            <glyph glyph-name="Ncaron" unicode="&#x147;" horiz-adv-x="762"
                   d="M102 0v696h47l464 -618v618h47v-696h-46l-465 619v-619h-47zM354 773l-125 144h51l101 -112l101 112h51l-125 -144h-54z"/>
            <glyph glyph-name="Rcaron" unicode="&#x158;" horiz-adv-x="676"
                   d="M102 0v696h239q137 0 203 -52.5t66 -150.5q0 -76 -43.5 -128.5t-131.5 -70.5l202 -294h-61l-195 286q-19 -1 -40 -1h-192v-285h-47zM149 329h192q112 0 166.5 44t54.5 120q0 77 -54 118t-167 41h-192v-323zM309 773l-125 144h51l101 -112l101 112h51l-125 -144h-54z"/>
            <glyph glyph-name="Scaron" unicode="&#x160;" horiz-adv-x="631"
                   d="M324 -14q-101 0 -176 47t-99 135h52q20 -62 79 -99.5t144 -37.5q55 0 101.5 18t74.5 51.5t28 81.5q0 59 -37 95t-137 52l-90 14q-102 16 -150 56.5t-48 120.5q0 58 33 100.5t89 66t125 23.5q60 0 112.5 -18t89.5 -56.5t50 -100.5h-52q-16 68 -70 99t-130 31
q-58 0 -103 -18t-70.5 -50.5t-25.5 -76.5q0 -38 15.5 -63.5t53.5 -41.5t103 -27l82 -13q109 -17 158.5 -63.5t49.5 -129.5q0 -61 -33 -105t-90 -67.5t-129 -23.5zM286 773l-125 144h51l101 -112l101 112h51l-125 -144h-54z"/>
            <glyph glyph-name="Tcaron" unicode="&#x164;" horiz-adv-x="663"
                   d="M355 0h-47v652h-265v44h577v-44h-265v-652zM304 773l-125 144h51l101 -112l101 112h51l-125 -144h-54z"/>
            <glyph glyph-name="Zcaron" unicode="&#x17d;" horiz-adv-x="610"
                   d="M46 696h512v-44l-454 -608h462v-44h-520v44l454 608h-454v44zM275 773l-125 144h51l101 -112l101 112h51l-125 -144h-54z"/>
            <glyph glyph-name="Amacron" unicode="&#x100;" horiz-adv-x="668"
                   d="M594 0l-91 221h-340l-91 -221h-49l288 696h46l288 -696h-51zM181 265h304l-152 370zM188 871h290v-42h-290v42z"/>
            <glyph glyph-name="Emacron" unicode="&#x112;" horiz-adv-x="641"
                   d="M102 0v696h461v-44h-414v-269h404v-44h-404v-295h419v-44h-466zM188 871h290v-42h-290v42z"/>
            <glyph glyph-name="Imacron" unicode="&#x12a;" horiz-adv-x="251"
                   d="M149 0h-47v696h47v-696zM-19 871h290v-42h-290v42z"/>
            <glyph glyph-name="Omacron" unicode="&#x14c;" horiz-adv-x="784"
                   d="M392 -14q-97 0 -172 46.5t-118 128.5t-43 187q0 106 43 187.5t118 128t172 46.5t172 -46.5t118 -128t43 -187.5q0 -105 -43 -187t-118 -128.5t-172 -46.5zM392 31q83 0 147 41t101 112.5t37 163.5t-37 163.5t-101 112.5t-147 41q-82 0 -146.5 -41t-101.5 -112.5
t-37 -163.5t37 -163.5t101.5 -112.5t146.5 -41zM247 871h290v-42h-290v42z"/>
            <glyph glyph-name="Umacron" unicode="&#x16a;" horiz-adv-x="740"
                   d="M370 -14q-91 0 -153 38t-94 107t-32 162v403h47v-403q0 -121 58.5 -191.5t173.5 -70.5q116 0 174 70.5t58 191.5v403h47v-403q0 -93 -32 -162t-94 -107t-153 -38zM225 871h290v-42h-290v42z"/>
            <glyph glyph-name="ccaron" unicode="&#x10d;" horiz-adv-x="521"
                   d="M282 -14q-68 0 -120 33.5t-81.5 93.5t-29.5 139q0 78 29.5 138t81.5 94t120 34q80 0 131 -41.5t64 -108.5h-50q-8 45 -45.5 76t-99.5 31q-54 0 -96 -28.5t-65.5 -78.5t-23.5 -116t23.5 -116.5t65.5 -78.5t96 -28q63 0 100.5 30t45.5 77h49q-12 -66 -63.5 -108t-131.5 -42
zM255 582l-117 151h49l95 -118l95 118h49l-117 -151h-54z"/>
            <glyph glyph-name="dcaron" unicode="&#x10f;" horiz-adv-x="635"
                   d="M279 -14q-67 0 -118.5 34t-80.5 94.5t-29 137.5q0 78 29 138t80.5 94t118.5 34q61 0 109 -31.5t76 -84.5v323h45v-725h-45v102q-28 -53 -76 -84.5t-109 -31.5zM280 29q55 0 96.5 29t65.5 79.5t24 114.5t-24 114.5t-65.5 79.5t-96.5 29q-54 0 -95.5 -28.5t-64.5 -79
t-23 -115.5t23 -115.5t64.5 -79t95.5 -28.5zM586 510l10 215h49l-21 -215h-38z"/>
            <glyph glyph-name="ecaron" unicode="&#x11b;" horiz-adv-x="547"
                   d="M286 -14q-72 0 -125 32.5t-81.5 92.5t-28.5 141q0 78 28 138t79.5 94t123.5 34q69 0 116.5 -31.5t72 -86t24.5 -124.5v-34h-398q3 -98 53 -155.5t136 -57.5q56 0 95 22.5t50 57.5h51q-17 -57 -71 -90t-125 -33zM282 475q-80 0 -128 -53t-56 -138h351q-2 84 -44 137.5
t-123 53.5zM246 582l-117 151h49l95 -118l95 118h49l-117 -151h-54z"/>
            <glyph glyph-name="lcaron" unicode="&#x13e;" horiz-adv-x="257"
                   d="M86 0v725h45v-725h-45zM208 510l10 215h49l-21 -215h-38z"/>
            <glyph glyph-name="ncaron" unicode="&#x148;" horiz-adv-x="561"
                   d="M131 302v-302h-45v505h45v-81q26 44 70 69t95 25q59 0 100 -27t62.5 -74t21.5 -106v-311h-45v298q0 83 -36 130t-106 47q-42 0 -79 -19.5t-60 -58t-23 -95.5zM256 582l-117 151h49l95 -118l95 118h49l-117 -151h-54z"/>
            <glyph glyph-name="rcaron" unicode="&#x159;" horiz-adv-x="324"
                   d="M131 263v-263h-45v505h45v-96q25 48 66 73t88 25h11v-44h-11q-39 0 -74 -22t-57.5 -66t-22.5 -112zM164 582l-117 151h49l95 -118l95 118h49l-117 -151h-54z"/>
            <glyph glyph-name="scaron" unicode="&#x161;" horiz-adv-x="482"
                   d="M250 -14q-82 0 -137 39.5t-69 97.5h50q9 -37 51 -65.5t105 -28.5q62 0 101.5 28t39.5 77q0 38 -26 63.5t-86 32.5l-81 10q-69 8 -106 39t-37 90q0 42 23.5 75.5t65 53.5t95.5 20q69 0 118.5 -33t69.5 -92h-50q-13 38 -48.5 60t-88.5 22q-63 0 -101 -29.5t-38 -76.5
q0 -37 26 -57t84 -28l81 -10q71 -9 108 -45t37 -95q0 -44 -24.5 -77.5t-66.5 -52t-96 -18.5zM212 582l-117 151h49l95 -118l95 118h49l-117 -151h-54z"/>
            <glyph glyph-name="tcaron" unicode="&#x165;" horiz-adv-x="318"
                   d="M253 -3q-137 0 -137 147v319h-100v42h100v172q21 1 45 11v-183h123v-42h-123v-319q0 -105 93 -105h30v-42h-31zM236 574l10 151h49l-21 -151h-38z"/>
            <glyph glyph-name="zcaron" unicode="&#x17e;" horiz-adv-x="485"
                   d="M43 0v43l341 419h-341v43h394v-43l-339 -419h347v-43h-402zM214 582l-117 151h49l95 -118l95 118h49l-117 -151h-54z"/>
            <glyph glyph-name="amacron" unicode="&#x101;" horiz-adv-x="526"
                   d="M217 -14q-76 0 -123.5 40t-47.5 111q0 74 54.5 115t157.5 41h142v31q0 80 -39.5 115.5t-106.5 35.5q-57 0 -95 -23.5t-46 -58.5h-48q13 59 65 92t122 33q89 0 141 -47t52 -147v-324h-45v87q-29 -50 -79 -75.5t-104 -25.5zM219 28q40 0 81.5 19t70.5 57t29 96v51h-142
q-80 0 -123.5 -29t-43.5 -85q0 -51 35.5 -80t92.5 -29zM123 680h280v-42h-280v42z"/>
            <glyph glyph-name="emacron" unicode="&#x113;" horiz-adv-x="547"
                   d="M286 -14q-72 0 -125 32.5t-81.5 92.5t-28.5 141q0 78 28 138t79.5 94t123.5 34q69 0 116.5 -31.5t72 -86t24.5 -124.5v-34h-398q3 -98 53 -155.5t136 -57.5q56 0 95 22.5t50 57.5h51q-17 -57 -71 -90t-125 -33zM282 475q-80 0 -128 -53t-56 -138h351q-2 84 -44 137.5
t-123 53.5zM133 680h280v-42h-280v42z"/>
            <glyph glyph-name="imacron" unicode="&#x12b;" horiz-adv-x="217"
                   d="M86 0v505h45v-505h-45zM-26 680h270v-42h-270v42z"/>
            <glyph glyph-name="omacron" unicode="&#x14d;" horiz-adv-x="564"
                   d="M282 -14q-68 0 -120 34t-81.5 94t-29.5 138t29.5 138t81.5 94t120 34t120 -34t81.5 -94t29.5 -138t-29.5 -138t-81.5 -94t-120 -34zM282 29q55 0 96.5 28.5t65 79t23.5 115.5q0 66 -23.5 116t-65 78.5t-96.5 28.5q-54 0 -96 -28.5t-65.5 -78.5t-23.5 -116
q0 -65 23.5 -115.5t65.5 -79t96 -28.5zM142 680h280v-42h-280v42z"/>
            <glyph glyph-name="umacron" unicode="&#x16b;" horiz-adv-x="557"
                   d="M426 201v304h45v-505h-45v80q-25 -43 -66 -68t-91 -25q-56 0 -98.5 26t-66 73t-23.5 110v309h45v-304q0 -77 40 -124t105 -47q43 0 78 20.5t56 59t21 91.5zM136 680h280v-42h-280v42z"/>
            <glyph glyph-name="uni0308" unicode="&#x308;" horiz-adv-x="0"
                   d="M88 616q-18 0 -30 12.5t-12 29.5t12 29.5t30 12.5t30 -12.5t12 -29.5t-12 -29.5t-30 -12.5zM-88 616q-18 0 -30 12.5t-12 29.5t12 29.5t30 12.5t30 -12.5t12 -29.5t-12 -29.5t-30 -12.5z"/>
            <glyph glyph-name="glyph430" horiz-adv-x="0"
                   d="M93 806q-18 0 -30 12.5t-12 29.5t12 29.5t30 12.5t30 -12.5t12 -29.5t-12 -29.5t-30 -12.5zM-93 806q-18 0 -30 12.5t-12 29.5t12 29.5t30 12.5t30 -12.5t12 -29.5t-12 -29.5t-30 -12.5z"/>
            <glyph glyph-name="dieresis" unicode="&#xa8;" horiz-adv-x="561"
                   d="M368 616q-18 0 -30 12.5t-12 29.5t12 29.5t30 12.5t30 -12.5t12 -29.5t-12 -29.5t-30 -12.5zM192 616q-18 0 -30 12.5t-12 29.5t12 29.5t30 12.5t30 -12.5t12 -29.5t-12 -29.5t-30 -12.5z"/>
            <glyph glyph-name="uni0306" unicode="&#x306;" horiz-adv-x="0"
                   d="M0 582q-60 0 -101.5 39t-46.5 109h46q4 -52 32.5 -80t69.5 -28t69.5 28t32.5 80h46q-4 -70 -46 -109t-102 -39z"/>
            <glyph glyph-name="glyph433" horiz-adv-x="0"
                   d="M0 773q-61 0 -104.5 38t-48.5 103h46q4 -46 34 -73.5t73 -27.5t73 27.5t34 73.5h46q-4 -65 -48.5 -103t-104.5 -38z"/>
            <glyph glyph-name="breve" unicode="&#x2d8;" horiz-adv-x="561"
                   d="M281 582q-60 0 -101.5 39t-46.5 109h46q4 -52 32.5 -80t69.5 -28t69.5 28t32.5 80h46q-4 -70 -46 -109t-102 -39z"/>
            <glyph glyph-name="Adieresis" unicode="&#xc4;" horiz-adv-x="668"
                   d="M594 0l-91 221h-340l-91 -221h-49l288 696h46l288 -696h-51zM181 265h304l-152 370zM426 806q-18 0 -30 12.5t-12 29.5t12 29.5t30 12.5t30 -12.5t12 -29.5t-12 -29.5t-30 -12.5zM240 806q-18 0 -30 12.5t-12 29.5t12 29.5t30 12.5t30 -12.5t12 -29.5t-12 -29.5
t-30 -12.5z"/>
            <glyph glyph-name="Edieresis" unicode="&#xcb;" horiz-adv-x="641"
                   d="M102 0v696h461v-44h-414v-269h404v-44h-404v-295h419v-44h-466zM426 806q-18 0 -30 12.5t-12 29.5t12 29.5t30 12.5t30 -12.5t12 -29.5t-12 -29.5t-30 -12.5zM240 806q-18 0 -30 12.5t-12 29.5t12 29.5t30 12.5t30 -12.5t12 -29.5t-12 -29.5t-30 -12.5z"/>
            <glyph glyph-name="Idieresis" unicode="&#xcf;" horiz-adv-x="251"
                   d="M149 0h-47v696h47v-696zM219 806q-18 0 -30 12.5t-12 29.5t12 29.5t30 12.5t30 -12.5t12 -29.5t-12 -29.5t-30 -12.5zM33 806q-18 0 -30 12.5t-12 29.5t12 29.5t30 12.5t30 -12.5t12 -29.5t-12 -29.5t-30 -12.5z"/>
            <glyph glyph-name="Odieresis" unicode="&#xd6;" horiz-adv-x="784"
                   d="M392 -14q-97 0 -172 46.5t-118 128.5t-43 187q0 106 43 187.5t118 128t172 46.5t172 -46.5t118 -128t43 -187.5q0 -105 -43 -187t-118 -128.5t-172 -46.5zM392 31q83 0 147 41t101 112.5t37 163.5t-37 163.5t-101 112.5t-147 41q-82 0 -146.5 -41t-101.5 -112.5
t-37 -163.5t37 -163.5t101.5 -112.5t146.5 -41zM485 806q-18 0 -30 12.5t-12 29.5t12 29.5t30 12.5t30 -12.5t12 -29.5t-12 -29.5t-30 -12.5zM299 806q-18 0 -30 12.5t-12 29.5t12 29.5t30 12.5t30 -12.5t12 -29.5t-12 -29.5t-30 -12.5z"/>
            <glyph glyph-name="Udieresis" unicode="&#xdc;" horiz-adv-x="740"
                   d="M370 -14q-91 0 -153 38t-94 107t-32 162v403h47v-403q0 -121 58.5 -191.5t173.5 -70.5q116 0 174 70.5t58 191.5v403h47v-403q0 -93 -32 -162t-94 -107t-153 -38zM463 806q-18 0 -30 12.5t-12 29.5t12 29.5t30 12.5t30 -12.5t12 -29.5t-12 -29.5t-30 -12.5zM277 806
q-18 0 -30 12.5t-12 29.5t12 29.5t30 12.5t30 -12.5t12 -29.5t-12 -29.5t-30 -12.5z"/>
            <glyph glyph-name="Wdieresis" unicode="&#x1e84;" horiz-adv-x="966"
                   d="M252 0l-217 696h50l195 -633l180 631h45l186 -632l191 634h49l-217 -696h-49l-183 605l-179 -605h-51zM576 806q-18 0 -30 12.5t-12 29.5t12 29.5t30 12.5t30 -12.5t12 -29.5t-12 -29.5t-30 -12.5zM390 806q-18 0 -30 12.5t-12 29.5t12 29.5t30 12.5t30 -12.5t12 -29.5
t-12 -29.5t-30 -12.5z"/>
            <glyph glyph-name="Ydieresis" unicode="&#x178;" horiz-adv-x="614"
                   d="M285 0v279l-266 417h57l233 -370l231 370h55l-263 -415v-281h-47zM400 806q-18 0 -30 12.5t-12 29.5t12 29.5t30 12.5t30 -12.5t12 -29.5t-12 -29.5t-30 -12.5zM214 806q-18 0 -30 12.5t-12 29.5t12 29.5t30 12.5t30 -12.5t12 -29.5t-12 -29.5t-30 -12.5z"/>
            <glyph glyph-name="Abreve" unicode="&#x102;" horiz-adv-x="668"
                   d="M594 0l-91 221h-340l-91 -221h-49l288 696h46l288 -696h-51zM181 265h304l-152 370zM333 773q-61 0 -104.5 38t-48.5 103h46q4 -46 34 -73.5t73 -27.5t73 27.5t34 73.5h46q-4 -65 -48.5 -103t-104.5 -38z"/>
            <glyph glyph-name="Ebreve" unicode="&#x114;" horiz-adv-x="641"
                   d="M102 0v696h461v-44h-414v-269h404v-44h-404v-295h419v-44h-466zM333 773q-61 0 -104.5 38t-48.5 103h46q4 -46 34 -73.5t73 -27.5t73 27.5t34 73.5h46q-4 -65 -48.5 -103t-104.5 -38z"/>
            <glyph glyph-name="Gbreve" unicode="&#x11e;" horiz-adv-x="749"
                   d="M387 -14q-96 0 -170 46.5t-116 128.5t-42 187q0 80 24.5 146t69 114.5t104 75t129.5 26.5q101 0 176 -46t111 -129h-54q-25 59 -89 94.5t-144 35.5q-79 0 -142.5 -39.5t-100 -110.5t-36.5 -167q0 -95 36 -166.5t99 -111t145 -39.5q74 0 131.5 33.5t90.5 92t33 133.5v28
h-256v44h303v-72q0 -89 -38.5 -157.5t-106.5 -107.5t-157 -39zM383 773q-61 0 -104.5 38t-48.5 103h46q4 -46 34 -73.5t73 -27.5t73 27.5t34 73.5h46q-4 -65 -48.5 -103t-104.5 -38z"/>
            <glyph glyph-name="Ibreve" unicode="&#x12c;" horiz-adv-x="251"
                   d="M149 0h-47v696h47v-696zM126 773q-61 0 -104.5 38t-48.5 103h46q4 -46 34 -73.5t73 -27.5t73 27.5t34 73.5h46q-4 -65 -48.5 -103t-104.5 -38z"/>
            <glyph glyph-name="Obreve" unicode="&#x14e;" horiz-adv-x="784"
                   d="M392 -14q-97 0 -172 46.5t-118 128.5t-43 187q0 106 43 187.5t118 128t172 46.5t172 -46.5t118 -128t43 -187.5q0 -105 -43 -187t-118 -128.5t-172 -46.5zM392 31q83 0 147 41t101 112.5t37 163.5t-37 163.5t-101 112.5t-147 41q-82 0 -146.5 -41t-101.5 -112.5
t-37 -163.5t37 -163.5t101.5 -112.5t146.5 -41zM392 773q-61 0 -104.5 38t-48.5 103h46q4 -46 34 -73.5t73 -27.5t73 27.5t34 73.5h46q-4 -65 -48.5 -103t-104.5 -38z"/>
            <glyph glyph-name="Ubreve" unicode="&#x16c;" horiz-adv-x="740"
                   d="M370 -14q-91 0 -153 38t-94 107t-32 162v403h47v-403q0 -121 58.5 -191.5t173.5 -70.5q116 0 174 70.5t58 191.5v403h47v-403q0 -93 -32 -162t-94 -107t-153 -38zM370 773q-61 0 -104.5 38t-48.5 103h46q4 -46 34 -73.5t73 -27.5t73 27.5t34 73.5h46q-4 -65 -48.5 -103
t-104.5 -38z"/>
            <glyph glyph-name="adieresis" unicode="&#xe4;" horiz-adv-x="526"
                   d="M217 -14q-76 0 -123.5 40t-47.5 111q0 74 54.5 115t157.5 41h142v31q0 80 -39.5 115.5t-106.5 35.5q-57 0 -95 -23.5t-46 -58.5h-48q13 59 65 92t122 33q89 0 141 -47t52 -147v-324h-45v87q-29 -50 -79 -75.5t-104 -25.5zM219 28q40 0 81.5 19t70.5 57t29 96v51h-142
q-80 0 -123.5 -29t-43.5 -85q0 -51 35.5 -80t92.5 -29zM351 616q-18 0 -30 12.5t-12 29.5t12 29.5t30 12.5t30 -12.5t12 -29.5t-12 -29.5t-30 -12.5zM175 616q-18 0 -30 12.5t-12 29.5t12 29.5t30 12.5t30 -12.5t12 -29.5t-12 -29.5t-30 -12.5z"/>
            <glyph glyph-name="edieresis" unicode="&#xeb;" horiz-adv-x="547"
                   d="M286 -14q-72 0 -125 32.5t-81.5 92.5t-28.5 141q0 78 28 138t79.5 94t123.5 34q69 0 116.5 -31.5t72 -86t24.5 -124.5v-34h-398q3 -98 53 -155.5t136 -57.5q56 0 95 22.5t50 57.5h51q-17 -57 -71 -90t-125 -33zM282 475q-80 0 -128 -53t-56 -138h351q-2 84 -44 137.5
t-123 53.5zM361 616q-18 0 -30 12.5t-12 29.5t12 29.5t30 12.5t30 -12.5t12 -29.5t-12 -29.5t-30 -12.5zM185 616q-18 0 -30 12.5t-12 29.5t12 29.5t30 12.5t30 -12.5t12 -29.5t-12 -29.5t-30 -12.5z"/>
            <glyph glyph-name="idieresis" unicode="&#xef;" horiz-adv-x="217"
                   d="M86 0v505h45v-505h-45zM187 616q-18 0 -30 12.5t-12 29.5t12 29.5t30 12.5t30 -12.5t12 -29.5t-12 -29.5t-30 -12.5zM31 616q-18 0 -30 12.5t-12 29.5t12 29.5t30 12.5t30 -12.5t12 -29.5t-12 -29.5t-30 -12.5z"/>
            <glyph glyph-name="odieresis" unicode="&#xf6;" horiz-adv-x="564"
                   d="M282 -14q-68 0 -120 34t-81.5 94t-29.5 138t29.5 138t81.5 94t120 34t120 -34t81.5 -94t29.5 -138t-29.5 -138t-81.5 -94t-120 -34zM282 29q55 0 96.5 28.5t65 79t23.5 115.5q0 66 -23.5 116t-65 78.5t-96.5 28.5q-54 0 -96 -28.5t-65.5 -78.5t-23.5 -116
q0 -65 23.5 -115.5t65.5 -79t96 -28.5zM370 616q-18 0 -30 12.5t-12 29.5t12 29.5t30 12.5t30 -12.5t12 -29.5t-12 -29.5t-30 -12.5zM194 616q-18 0 -30 12.5t-12 29.5t12 29.5t30 12.5t30 -12.5t12 -29.5t-12 -29.5t-30 -12.5z"/>
            <glyph glyph-name="udieresis" unicode="&#xfc;" horiz-adv-x="557"
                   d="M426 201v304h45v-505h-45v80q-25 -43 -66 -68t-91 -25q-56 0 -98.5 26t-66 73t-23.5 110v309h45v-304q0 -77 40 -124t105 -47q43 0 78 20.5t56 59t21 91.5zM364 616q-18 0 -30 12.5t-12 29.5t12 29.5t30 12.5t30 -12.5t12 -29.5t-12 -29.5t-30 -12.5zM188 616
q-18 0 -30 12.5t-12 29.5t12 29.5t30 12.5t30 -12.5t12 -29.5t-12 -29.5t-30 -12.5z"/>
            <glyph glyph-name="wdieresis" unicode="&#x1e85;" horiz-adv-x="732"
                   d="M188 0l-166 505h50l140 -442l133 440h42l136 -440l139 442h48l-166 -505h-46l-132 426l-132 -426h-46zM454 616q-18 0 -30 12.5t-12 29.5t12 29.5t30 12.5t30 -12.5t12 -29.5t-12 -29.5t-30 -12.5zM278 616q-18 0 -30 12.5t-12 29.5t12 29.5t30 12.5t30 -12.5t12 -29.5
t-12 -29.5t-30 -12.5z"/>
            <glyph glyph-name="ydieresis" unicode="&#xff;" horiz-adv-x="483"
                   d="M136 -205l83 205l-202 505h50l176 -451l175 451h48l-284 -710h-46zM330 616q-18 0 -30 12.5t-12 29.5t12 29.5t30 12.5t30 -12.5t12 -29.5t-12 -29.5t-30 -12.5zM154 616q-18 0 -30 12.5t-12 29.5t12 29.5t30 12.5t30 -12.5t12 -29.5t-12 -29.5t-30 -12.5z"/>
            <glyph glyph-name="abreve" unicode="&#x103;" horiz-adv-x="526"
                   d="M217 -14q-76 0 -123.5 40t-47.5 111q0 74 54.5 115t157.5 41h142v31q0 80 -39.5 115.5t-106.5 35.5q-57 0 -95 -23.5t-46 -58.5h-48q13 59 65 92t122 33q89 0 141 -47t52 -147v-324h-45v87q-29 -50 -79 -75.5t-104 -25.5zM219 28q40 0 81.5 19t70.5 57t29 96v51h-142
q-80 0 -123.5 -29t-43.5 -85q0 -51 35.5 -80t92.5 -29zM263 582q-60 0 -101.5 39t-46.5 109h46q4 -52 32.5 -80t69.5 -28t69.5 28t32.5 80h46q-4 -70 -46 -109t-102 -39z"/>
            <glyph glyph-name="ebreve" unicode="&#x115;" horiz-adv-x="547"
                   d="M286 -14q-72 0 -125 32.5t-81.5 92.5t-28.5 141q0 78 28 138t79.5 94t123.5 34q69 0 116.5 -31.5t72 -86t24.5 -124.5v-34h-398q3 -98 53 -155.5t136 -57.5q56 0 95 22.5t50 57.5h51q-17 -57 -71 -90t-125 -33zM282 475q-80 0 -128 -53t-56 -138h351q-2 84 -44 137.5
t-123 53.5zM273 582q-60 0 -101.5 39t-46.5 109h46q4 -52 32.5 -80t69.5 -28t69.5 28t32.5 80h46q-4 -70 -46 -109t-102 -39z"/>
            <glyph glyph-name="gbreve" unicode="&#x11f;" horiz-adv-x="593"
                   d="M278 -10q-67 0 -118.5 34t-80 94t-28.5 136q0 77 28.5 136.5t80 93.5t118.5 34q61 0 108.5 -31t75.5 -84v102h45v-496q0 -106 -55 -166.5t-159 -60.5q-83 0 -140 38t-77 93h52q16 -37 57 -62.5t108 -25.5q84 0 126.5 48t42.5 136v96q-28 -53 -75.5 -84t-108.5 -31z
M279 33q55 0 96.5 29t65 79t23.5 113t-23.5 113t-65 79t-96.5 29q-54 0 -95 -28.5t-64 -78.5t-23 -114t23 -114t64 -78.5t95 -28.5zM283 582q-60 0 -101.5 39t-46.5 109h46q4 -52 32.5 -80t69.5 -28t69.5 28t32.5 80h46q-4 -70 -46 -109t-102 -39z"/>
            <glyph glyph-name="ibreve" unicode="&#x12d;" horiz-adv-x="217"
                   d="M86 0v505h45v-505h-45zM109 582q-60 0 -96.5 39t-41.5 109h46q4 -52 27.5 -80t64.5 -28t64.5 28t27.5 80h46q-4 -70 -41 -109t-97 -39z"/>
            <glyph glyph-name="obreve" unicode="&#x14f;" horiz-adv-x="564"
                   d="M282 -14q-68 0 -120 34t-81.5 94t-29.5 138t29.5 138t81.5 94t120 34t120 -34t81.5 -94t29.5 -138t-29.5 -138t-81.5 -94t-120 -34zM282 29q55 0 96.5 28.5t65 79t23.5 115.5q0 66 -23.5 116t-65 78.5t-96.5 28.5q-54 0 -96 -28.5t-65.5 -78.5t-23.5 -116
q0 -65 23.5 -115.5t65.5 -79t96 -28.5zM282 582q-60 0 -101.5 39t-46.5 109h46q4 -52 32.5 -80t69.5 -28t69.5 28t32.5 80h46q-4 -70 -46 -109t-102 -39z"/>
            <glyph glyph-name="ubreve" unicode="&#x16d;" horiz-adv-x="557"
                   d="M426 201v304h45v-505h-45v80q-25 -43 -66 -68t-91 -25q-56 0 -98.5 26t-66 73t-23.5 110v309h45v-304q0 -77 40 -124t105 -47q43 0 78 20.5t56 59t21 91.5zM276 582q-60 0 -101.5 39t-46.5 109h46q4 -52 32.5 -80t69.5 -28t69.5 28t32.5 80h46q-4 -70 -46 -109t-102 -39z
"/>
            <glyph glyph-name="uni0307" unicode="&#x307;" horiz-adv-x="0"
                   d="M0 614q-18 0 -30.5 12.5t-12.5 30.5t12.5 30.5t30.5 12.5t30.5 -12.5t12.5 -30.5t-12.5 -30.5t-30.5 -12.5z"/>
            <glyph glyph-name="glyph462" horiz-adv-x="0"
                   d="M0 801q-18 0 -30.5 12.5t-12.5 30.5t12.5 30.5t30.5 12.5t30.5 -12.5t12.5 -30.5t-12.5 -30.5t-30.5 -12.5z"/>
            <glyph glyph-name="dotaccent" unicode="&#x2d9;" horiz-adv-x="561"
                   d="M281 614q-18 0 -30.5 12.5t-12.5 30.5t12.5 30.5t30.5 12.5t30.5 -12.5t12.5 -30.5t-12.5 -30.5t-30.5 -12.5z"/>
            <glyph glyph-name="dotbelowcomb" unicode="&#x323;" horiz-adv-x="0"
                   d="M0 -161q-18 0 -30.5 12.5t-12.5 30.5t12.5 30.5t30.5 12.5t30.5 -12.5t12.5 -30.5t-12.5 -30.5t-30.5 -12.5z"/>
            <glyph glyph-name="glyph465" horiz-adv-x="0"
                   d="M0 -161q-19 0 -31.5 12.5t-12.5 30.5t12.5 30.5t31.5 12.5t31.5 -12.5t12.5 -30.5t-12.5 -30.5t-31.5 -12.5z"/>
            <glyph glyph-name="Edotaccent" unicode="&#x116;" horiz-adv-x="641"
                   d="M102 0v696h461v-44h-414v-269h404v-44h-404v-295h419v-44h-466zM333 801q-18 0 -30.5 12.5t-12.5 30.5t12.5 30.5t30.5 12.5t30.5 -12.5t12.5 -30.5t-12.5 -30.5t-30.5 -12.5z"/>
            <glyph glyph-name="Idotaccent" unicode="&#x130;" horiz-adv-x="251"
                   d="M149 0h-47v696h47v-696zM126 801q-18 0 -30.5 12.5t-12.5 30.5t12.5 30.5t30.5 12.5t30.5 -12.5t12.5 -30.5t-12.5 -30.5t-30.5 -12.5z"/>
            <glyph glyph-name="Cdotaccent" unicode="&#x10a;" horiz-adv-x="708"
                   d="M59 348q0 107 41 188.5t112.5 127.5t162.5 46q113 0 184 -53.5t99 -156.5h-52q-21 77 -80.5 121t-150.5 44q-77 0 -138 -39t-95.5 -110t-34.5 -168t34.5 -168t95.5 -110t138 -39q92 0 152 44t79 116h52q-28 -97 -99.5 -151t-183.5 -54q-91 0 -162.5 46t-112.5 127.5
t-41 188.5zM375 801q-18 0 -30.5 12.5t-12.5 30.5t12.5 30.5t30.5 12.5t30.5 -12.5t12.5 -30.5t-12.5 -30.5t-30.5 -12.5z"/>
            <glyph glyph-name="Gdotaccent" unicode="&#x120;" horiz-adv-x="749"
                   d="M387 -14q-96 0 -170 46.5t-116 128.5t-42 187q0 80 24.5 146t69 114.5t104 75t129.5 26.5q101 0 176 -46t111 -129h-54q-25 59 -89 94.5t-144 35.5q-79 0 -142.5 -39.5t-100 -110.5t-36.5 -167q0 -95 36 -166.5t99 -111t145 -39.5q74 0 131.5 33.5t90.5 92t33 133.5v28
h-256v44h303v-72q0 -89 -38.5 -157.5t-106.5 -107.5t-157 -39zM383 801q-18 0 -30.5 12.5t-12.5 30.5t12.5 30.5t30.5 12.5t30.5 -12.5t12.5 -30.5t-12.5 -30.5t-30.5 -12.5z"/>
            <glyph glyph-name="Zdotaccent" unicode="&#x17b;" horiz-adv-x="610"
                   d="M46 696h512v-44l-454 -608h462v-44h-520v44l454 608h-454v44zM302 801q-18 0 -30.5 12.5t-12.5 30.5t12.5 30.5t30.5 12.5t30.5 -12.5t12.5 -30.5t-12.5 -30.5t-30.5 -12.5z"/>
            <glyph glyph-name="uni1E24" unicode="&#x1e24;" horiz-adv-x="766"
                   d="M102 0v696h47v-308h468v308h47v-696h-47v344h-468v-344h-47zM383 -161q-19 0 -31.5 12.5t-12.5 30.5t12.5 30.5t31.5 12.5t31.5 -12.5t12.5 -30.5t-12.5 -30.5t-31.5 -12.5z"/>
            <glyph glyph-name="uni1E36" unicode="&#x1e36;" horiz-adv-x="596"
                   d="M553 44v-44h-451v696h47v-652h404zM330 -161q-19 0 -31.5 12.5t-12.5 30.5t12.5 30.5t31.5 12.5t31.5 -12.5t12.5 -30.5t-12.5 -30.5t-31.5 -12.5z"/>
            <glyph glyph-name="Ldot" unicode="&#x13f;" horiz-adv-x="596"
                   d="M553 44v-44h-451v696h47v-652h404zM411 320q-19 0 -32 13t-13 32t13 32t32 13t32 -13t13 -32t-13 -32t-32 -13z"/>
            <glyph glyph-name="edotaccent" unicode="&#x117;" horiz-adv-x="547"
                   d="M286 -14q-72 0 -125 32.5t-81.5 92.5t-28.5 141q0 78 28 138t79.5 94t123.5 34q69 0 116.5 -31.5t72 -86t24.5 -124.5v-34h-398q3 -98 53 -155.5t136 -57.5q56 0 95 22.5t50 57.5h51q-17 -57 -71 -90t-125 -33zM282 475q-80 0 -128 -53t-56 -138h351q-2 84 -44 137.5
t-123 53.5zM273 614q-18 0 -30.5 12.5t-12.5 30.5t12.5 30.5t30.5 12.5t30.5 -12.5t12.5 -30.5t-12.5 -30.5t-30.5 -12.5z"/>
            <glyph glyph-name="cdotaccent" unicode="&#x10b;" horiz-adv-x="521"
                   d="M282 -14q-68 0 -120 33.5t-81.5 93.5t-29.5 139q0 78 29.5 138t81.5 94t120 34q80 0 131 -41.5t64 -108.5h-50q-8 45 -45.5 76t-99.5 31q-54 0 -96 -28.5t-65.5 -78.5t-23.5 -116t23.5 -116.5t65.5 -78.5t96 -28q63 0 100.5 30t45.5 77h49q-12 -66 -63.5 -108t-131.5 -42
zM282 614q-18 0 -30.5 12.5t-12.5 30.5t12.5 30.5t30.5 12.5t30.5 -12.5t12.5 -30.5t-12.5 -30.5t-30.5 -12.5z"/>
            <glyph glyph-name="gdotaccent" unicode="&#x121;" horiz-adv-x="593"
                   d="M278 -10q-67 0 -118.5 34t-80 94t-28.5 136q0 77 28.5 136.5t80 93.5t118.5 34q61 0 108.5 -31t75.5 -84v102h45v-496q0 -106 -55 -166.5t-159 -60.5q-83 0 -140 38t-77 93h52q16 -37 57 -62.5t108 -25.5q84 0 126.5 48t42.5 136v96q-28 -53 -75.5 -84t-108.5 -31z
M279 33q55 0 96.5 29t65 79t23.5 113t-23.5 113t-65 79t-96.5 29q-54 0 -95 -28.5t-64 -78.5t-23 -114t23 -114t64 -78.5t95 -28.5zM283 614q-18 0 -30.5 12.5t-12.5 30.5t12.5 30.5t30.5 12.5t30.5 -12.5t12.5 -30.5t-12.5 -30.5t-30.5 -12.5z"/>
            <glyph glyph-name="zdotaccent" unicode="&#x17c;" horiz-adv-x="485"
                   d="M43 0v43l341 419h-341v43h394v-43l-339 -419h347v-43h-402zM241 614q-18 0 -30.5 12.5t-12.5 30.5t12.5 30.5t30.5 12.5t30.5 -12.5t12.5 -30.5t-12.5 -30.5t-30.5 -12.5z"/>
            <glyph glyph-name="uni1E25" unicode="&#x1e25;" horiz-adv-x="561"
                   d="M86 0v725h45v-301q26 44 70 69t95 25q59 0 100 -27t62.5 -74t21.5 -106v-311h-45v298q0 83 -36 130t-106 47q-42 0 -79 -19.5t-60 -58t-23 -95.5v-302h-45zM283 -161q-18 0 -30.5 12.5t-12.5 30.5t12.5 30.5t30.5 12.5t30.5 -12.5t12.5 -30.5t-12.5 -30.5t-30.5 -12.5z
"/>
            <glyph glyph-name="uni1E37" unicode="&#x1e37;" horiz-adv-x="217"
                   d="M86 0v725h45v-725h-45zM109 -161q-18 0 -30.5 12.5t-12.5 30.5t12.5 30.5t30.5 12.5t30.5 -12.5t12.5 -30.5t-12.5 -30.5t-30.5 -12.5z"/>
            <glyph glyph-name="ldot" unicode="&#x140;" horiz-adv-x="334"
                   d="M86 0v725h45v-725h-45zM270 320q-19 0 -32 13t-13 32t13 32t32 13t32 -13t13 -32t-13 -32t-32 -13z"/>
            <glyph glyph-name="uni030A" unicode="&#x30a;" horiz-adv-x="0"
                   d="M0 569q-48 0 -79.5 32.5t-31.5 76.5t31.5 76.5t79.5 32.5t79.5 -32.5t31.5 -76.5t-31.5 -76.5t-79.5 -32.5zM0 610q29 0 48.5 20t19.5 48q0 29 -19.5 48.5t-48.5 19.5t-48.5 -19.5t-19.5 -48.5q0 -28 19.5 -48t48.5 -20z"/>
            <glyph glyph-name="glyph482" horiz-adv-x="0"
                   d="M0 706q-48 0 -79.5 32.5t-31.5 76.5t31.5 76.5t79.5 32.5t79.5 -32.5t31.5 -76.5t-31.5 -76.5t-79.5 -32.5zM0 747q29 0 48.5 20t19.5 48q0 29 -19.5 48.5t-48.5 19.5t-48.5 -19.5t-19.5 -48.5q0 -28 19.5 -48t48.5 -20z"/>
            <glyph glyph-name="ring" unicode="&#x2da;" horiz-adv-x="561"
                   d="M281 569q-48 0 -79.5 32.5t-31.5 76.5t31.5 76.5t79.5 32.5t79.5 -32.5t31.5 -76.5t-31.5 -76.5t-79.5 -32.5zM281 610q29 0 48.5 20t19.5 48q0 29 -19.5 48.5t-48.5 19.5t-48.5 -19.5t-19.5 -48.5q0 -28 19.5 -48t48.5 -20z"/>
            <glyph glyph-name="Aring" unicode="&#xc5;" horiz-adv-x="668"
                   d="M594 0l-91 221h-340l-91 -221h-49l288 696h46l288 -696h-51zM181 265h304l-152 370zM333 656q-48 0 -79.5 32.5t-31.5 76.5t31.5 76.5t79.5 32.5t79.5 -32.5t31.5 -76.5t-31.5 -76.5t-79.5 -32.5zM333 697q29 0 48.5 20t19.5 48q0 29 -19.5 48.5t-48.5 19.5t-48.5 -19.5
t-19.5 -48.5q0 -28 19.5 -48t48.5 -20z"/>
            <glyph glyph-name="Uring" unicode="&#x16e;" horiz-adv-x="740"
                   d="M370 -14q-91 0 -153 38t-94 107t-32 162v403h47v-403q0 -121 58.5 -191.5t173.5 -70.5q116 0 174 70.5t58 191.5v403h47v-403q0 -93 -32 -162t-94 -107t-153 -38zM370 756q-48 0 -79.5 32.5t-31.5 76.5t31.5 76.5t79.5 32.5t79.5 -32.5t31.5 -76.5t-31.5 -76.5
t-79.5 -32.5zM370 797q29 0 48.5 20t19.5 48q0 29 -19.5 48.5t-48.5 19.5t-48.5 -19.5t-19.5 -48.5q0 -28 19.5 -48t48.5 -20z"/>
            <glyph glyph-name="Aringacute" unicode="&#x1fa;" horiz-adv-x="668"
                   d="M305 903l71 127h54l-76 -127h-49zM23 0l274 662q-33 11 -53.5 39.5t-20.5 63.5q0 44 31.5 76.5t79.5 32.5t79.5 -32.5t31.5 -76.5q0 -35 -20.5 -63.5t-53.5 -39.5l274 -662h-51l-91 221h-340l-91 -221h-49zM334 697q29 0 48.5 20t19.5 48q0 29 -19.5 48.5t-48.5 19.5
t-48.5 -19.5t-19.5 -48.5q0 -28 19.5 -48t48.5 -20zM181 266h304l-152 369z"/>
            <glyph glyph-name="aring" unicode="&#xe5;" horiz-adv-x="526"
                   d="M217 -14q-76 0 -123.5 40t-47.5 111q0 74 54.5 115t157.5 41h142v31q0 80 -39.5 115.5t-106.5 35.5q-57 0 -95 -23.5t-46 -58.5h-48q13 59 65 92t122 33q89 0 141 -47t52 -147v-324h-45v87q-29 -50 -79 -75.5t-104 -25.5zM219 28q40 0 81.5 19t70.5 57t29 96v51h-142
q-80 0 -123.5 -29t-43.5 -85q0 -51 35.5 -80t92.5 -29zM263 569q-48 0 -79.5 32.5t-31.5 76.5t31.5 76.5t79.5 32.5t79.5 -32.5t31.5 -76.5t-31.5 -76.5t-79.5 -32.5zM263 610q29 0 48.5 20t19.5 48q0 29 -19.5 48.5t-48.5 19.5t-48.5 -19.5t-19.5 -48.5q0 -28 19.5 -48
t48.5 -20z"/>
            <glyph glyph-name="uring" unicode="&#x16f;" horiz-adv-x="557"
                   d="M426 201v304h45v-505h-45v80q-25 -43 -66 -68t-91 -25q-56 0 -98.5 26t-66 73t-23.5 110v309h45v-304q0 -77 40 -124t105 -47q43 0 78 20.5t56 59t21 91.5zM276 569q-48 0 -79.5 32.5t-31.5 76.5t31.5 76.5t79.5 32.5t79.5 -32.5t31.5 -76.5t-31.5 -76.5t-79.5 -32.5z
M276 610q29 0 48.5 20t19.5 48q0 29 -19.5 48.5t-48.5 19.5t-48.5 -19.5t-19.5 -48.5q0 -28 19.5 -48t48.5 -20z"/>
            <glyph glyph-name="aringacute" unicode="&#x1fb;" horiz-adv-x="526"
                   d="M217 -14q-76 0 -123.5 40t-47.5 111q0 74 54.5 115t157.5 41h142v31q0 80 -39.5 115.5t-106.5 35.5q-57 0 -95 -23.5t-46 -58.5h-48q13 59 65 92t122 33q89 0 141 -47t52 -147v-324h-45v87q-29 -50 -79 -75.5t-104 -25.5zM219 28q40 0 81.5 19t70.5 57t29 96v51h-142
q-80 0 -123.5 -29t-43.5 -85q0 -51 35.5 -80t92.5 -29zM263 569q-48 0 -79.5 32.5t-31.5 76.5t31.5 76.5t79.5 32.5t79.5 -32.5t31.5 -76.5t-31.5 -76.5t-79.5 -32.5zM263 610q29 0 48.5 20t19.5 48q0 29 -19.5 48.5t-48.5 19.5t-48.5 -19.5t-19.5 -48.5q0 -28 19.5 -48
t48.5 -20zM282 821h-48l88 144h54z"/>
            <glyph glyph-name="glyph490" horiz-adv-x="0"
                   d="M-133 582l106 151h54l106 -151h-48l-85 116l-85 -116h-48z"/>
            <glyph glyph-name="glyph491" horiz-adv-x="0"
                   d="M68 588q-19 0 -37 9t-43 30q-22 19 -33.5 25t-22.5 6q-17 0 -23.5 -11.5t-6.5 -31.5v-25h-41v26q0 38 19 60.5t52 22.5q20 0 37.5 -9t42.5 -30q22 -19 34 -25t22 -6q17 0 23.5 11.5t6.5 31.5v25h41v-26q0 -37 -19 -60t-52 -23z"/>
            <glyph glyph-name="glyph492" horiz-adv-x="0"
                   d="M-27 582l-106 151h48l85 -116l85 116h48l-106 -151h-54z"/>
            <glyph glyph-name="glyph493" horiz-adv-x="0"
                   d="M78 616q-18 0 -30 12.5t-12 29.5t12 29.5t30 12.5t30 -12.5t12 -29.5t-12 -29.5t-30 -12.5zM-78 616q-18 0 -30 12.5t-12 29.5t12 29.5t30 12.5t30 -12.5t12 -29.5t-12 -29.5t-30 -12.5z"/>
            <glyph glyph-name="glyph494" horiz-adv-x="0"
                   d="M0 582q-60 0 -96.5 39t-41.5 109h46q4 -52 27.5 -80t64.5 -28t64.5 28t27.5 80h46q-4 -70 -41 -109t-97 -39z"/>
            <glyph glyph-name="uniFEFF" unicode="&#xfeff;" horiz-adv-x="0"
            />
            <glyph glyph-name="uniFFFD" unicode="&#xfffd;" horiz-adv-x="1000"
                   d="M500 -123l-475 475l475 475l475 -475zM423 231h119v9q0 19 11.5 36.5t49.5 39.5q47 28 71 60t24 78q0 48 -25 84.5t-69 56.5t-100 20q-94 0 -149 -47.5t-65 -118.5h122q5 23 26.5 38.5t56.5 15.5q34 0 54 -15t20 -36q0 -17 -12.5 -31.5t-52.5 -38.5q-47 -28 -64 -59
t-17 -75v-17zM489 34q32 0 54 22.5t22 53.5q0 32 -22 55t-54 23q-31 0 -53.5 -23t-22.5 -55q0 -31 22.5 -53.5t53.5 -22.5z"/>
            <glyph glyph-name="uni1EAE" unicode="&#x1eae;" horiz-adv-x="668"
                   d="M594 0l-91 221h-340l-91 -221h-49l288 696h46l288 -696h-51zM181 265h304l-152 370zM486 855q-4 -47 -48.5 -74.5t-104.5 -27.5q-61 0 -104.5 27.5t-48.5 74.5h48q5 -28 34 -44.5t71 -16.5t71 16.5t34 44.5h48zM352 875h-48l83 136h54z"/>
            <glyph glyph-name="uni1EB6" unicode="&#x1eb6;" horiz-adv-x="668"
                   d="M594 0l-91 221h-340l-91 -221h-49l288 696h46l288 -696h-51zM181 265h304l-152 370zM333 773q-61 0 -104.5 38t-48.5 103h46q4 -46 34 -73.5t73 -27.5t73 27.5t34 73.5h46q-4 -65 -48.5 -103t-104.5 -38zM334 -161q-19 0 -31.5 12.5t-12.5 30.5t12.5 30.5t31.5 12.5
t31.5 -12.5t12.5 -30.5t-12.5 -30.5t-31.5 -12.5z"/>
            <glyph glyph-name="uni1EB0" unicode="&#x1eb0;" horiz-adv-x="668"
                   d="M594 0l-91 221h-340l-91 -221h-49l288 696h46l288 -696h-51zM181 265h304l-152 370zM486 855q-4 -47 -48.5 -74.5t-104.5 -27.5q-61 0 -104.5 27.5t-48.5 74.5h48q5 -28 34 -44.5t71 -16.5t71 16.5t34 44.5h48zM312 875l-89 136h54l83 -136h-48z"/>
            <glyph glyph-name="uni1EB2" unicode="&#x1eb2;" horiz-adv-x="668"
                   d="M594 0l-91 221h-340l-91 -221h-49l288 696h46l288 -696h-51zM181 265h304l-152 370zM293 886l22 7q36 11 56.5 22.5t20.5 33.5q0 41 -67 41h-86v40h86q54 0 82.5 -21t28.5 -60q0 -38 -28 -57t-80 -36l-22 -7zM333 753q-61 0 -104.5 27.5t-48.5 74.5h48q5 -28 34 -44.5
t71 -16.5t71 16.5t34 44.5h48q-4 -47 -48.5 -74.5t-104.5 -27.5z"/>
            <glyph glyph-name="uni1EB4" unicode="&#x1eb4;" horiz-adv-x="668"
                   d="M594 0l-91 221h-340l-91 -221h-49l288 696h46l288 -696h-51zM181 265h304l-152 370zM486 855q-4 -47 -48.5 -74.5t-104.5 -27.5q-61 0 -104.5 27.5t-48.5 74.5h48q5 -28 34 -44.5t71 -16.5t71 16.5t34 44.5h48zM407 903q-20 0 -39.5 8.5t-46.5 30.5q-22 18 -35 24.5
t-27 6.5q-44 0 -44 -43v-25h-41v26q0 38 24 60.5t61 22.5q20 0 39.5 -8.5t46.5 -30.5q23 -18 36 -24.5t26 -6.5q44 0 44 43v25h41v-26q0 -37 -23.5 -60t-61.5 -23z"/>
            <glyph glyph-name="uni1EA4" unicode="&#x1ea4;" horiz-adv-x="668"
                   d="M594 0l-91 221h-340l-91 -221h-49l288 696h46l288 -696h-51zM181 265h304l-152 370zM186 751l120 137h54l120 -137h-51l-96 105l-96 -105h-51zM492 844h-48l83 136h54z"/>
            <glyph glyph-name="uni1EAC" unicode="&#x1eac;" horiz-adv-x="668"
                   d="M594 0l-91 221h-340l-91 -221h-49l288 696h46l288 -696h-51zM181 265h304l-152 370zM181 773l125 144h54l125 -144h-51l-101 112l-101 -112h-51zM334 -161q-19 0 -31.5 12.5t-12.5 30.5t12.5 30.5t31.5 12.5t31.5 -12.5t12.5 -30.5t-12.5 -30.5t-31.5 -12.5z"/>
            <glyph glyph-name="uni1EA6" unicode="&#x1ea6;" horiz-adv-x="668"
                   d="M594 0l-91 221h-340l-91 -221h-49l288 696h46l288 -696h-51zM181 265h304l-152 370zM186 751l120 137h54l120 -137h-51l-96 105l-96 -105h-51zM462 844l-89 136h54l83 -136h-48z"/>
            <glyph glyph-name="uni1EA8" unicode="&#x1ea8;" horiz-adv-x="668"
                   d="M594 0l-91 221h-340l-91 -221h-49l288 696h46l288 -696h-51zM181 265h304l-152 370zM186 751l120 137h54l120 -137h-51l-96 105l-96 -105h-51zM456 836l-29 31l43 14q36 12 56.5 24.5t20.5 36.5q0 48 -67 48h-86v40h86q111 0 111 -86q0 -40 -28 -62t-80 -38z"/>
            <glyph glyph-name="uni1EAA" unicode="&#x1eaa;" horiz-adv-x="668"
                   d="M594 0l-91 221h-340l-91 -221h-49l288 696h46l288 -696h-51zM181 265h304l-152 370zM186 751l120 137h54l120 -137h-51l-96 105l-96 -105h-51zM407 922q-20 0 -39.5 8.5t-46.5 30.5q-22 18 -35 24.5t-27 6.5q-44 0 -44 -43v-25h-41v26q0 38 24 60.5t61 22.5
q20 0 39.5 -8.5t46.5 -30.5q23 -18 36 -24.5t26 -6.5q44 0 44 43v25h41v-26q0 -37 -23.5 -60t-61.5 -23z"/>
            <glyph glyph-name="uni1EA0" unicode="&#x1ea0;" horiz-adv-x="668"
                   d="M594 0l-91 221h-340l-91 -221h-49l288 696h46l288 -696h-51zM181 265h304l-152 370zM334 -161q-19 0 -31.5 12.5t-12.5 30.5t12.5 30.5t31.5 12.5t31.5 -12.5t12.5 -30.5t-12.5 -30.5t-31.5 -12.5z"/>
            <glyph glyph-name="uni1EA2" unicode="&#x1ea2;" horiz-adv-x="668"
                   d="M594 0l-91 221h-340l-91 -221h-49l288 696h46l288 -696h-51zM181 265h304l-152 370zM273 785l41 13q36 11 57 24t21 37q0 48 -67 48h-86v40h86q111 0 111 -86q0 -40 -28 -62t-80 -38l-43 -13z"/>
            <glyph glyph-name="uni1EBE" unicode="&#x1ebe;" horiz-adv-x="641"
                   d="M102 0v696h461v-44h-414v-269h404v-44h-404v-295h419v-44h-466zM186 751l120 137h54l120 -137h-51l-96 105l-96 -105h-51zM492 844h-48l83 136h54z"/>
            <glyph glyph-name="uni1EC6" unicode="&#x1ec6;" horiz-adv-x="641"
                   d="M102 0v696h461v-44h-414v-269h404v-44h-404v-295h419v-44h-466zM181 773l125 144h54l125 -144h-51l-101 112l-101 -112h-51zM335 -161q-19 0 -31.5 12.5t-12.5 30.5t12.5 30.5t31.5 12.5t31.5 -12.5t12.5 -30.5t-12.5 -30.5t-31.5 -12.5z"/>
            <glyph glyph-name="uni1EC0" unicode="&#x1ec0;" horiz-adv-x="641"
                   d="M102 0v696h461v-44h-414v-269h404v-44h-404v-295h419v-44h-466zM186 751l120 137h54l120 -137h-51l-96 105l-96 -105h-51zM462 844l-89 136h54l83 -136h-48z"/>
            <glyph glyph-name="uni1EC2" unicode="&#x1ec2;" horiz-adv-x="641"
                   d="M102 0v696h461v-44h-414v-269h404v-44h-404v-295h419v-44h-466zM186 751l120 137h54l120 -137h-51l-96 105l-96 -105h-51zM456 836l-29 31l43 14q36 12 56.5 24.5t20.5 36.5q0 48 -67 48h-86v40h86q111 0 111 -86q0 -40 -28 -62t-80 -38z"/>
            <glyph glyph-name="uni1EC4" unicode="&#x1ec4;" horiz-adv-x="641"
                   d="M102 0v696h461v-44h-414v-269h404v-44h-404v-295h419v-44h-466zM186 751l120 137h54l120 -137h-51l-96 105l-96 -105h-51zM407 922q-20 0 -39.5 8.5t-46.5 30.5q-22 18 -35 24.5t-27 6.5q-44 0 -44 -43v-25h-41v26q0 38 24 60.5t61 22.5q20 0 39.5 -8.5t46.5 -30.5
q23 -18 36 -24.5t26 -6.5q44 0 44 43v25h41v-26q0 -37 -23.5 -60t-61.5 -23z"/>
            <glyph glyph-name="uni1EB8" unicode="&#x1eb8;" horiz-adv-x="641"
                   d="M102 0v696h461v-44h-414v-269h404v-44h-404v-295h419v-44h-466zM335 -161q-19 0 -31.5 12.5t-12.5 30.5t12.5 30.5t31.5 12.5t31.5 -12.5t12.5 -30.5t-12.5 -30.5t-31.5 -12.5z"/>
            <glyph glyph-name="uni1EBA" unicode="&#x1eba;" horiz-adv-x="641"
                   d="M102 0v696h461v-44h-414v-269h404v-44h-404v-295h419v-44h-466zM273 785l41 13q36 11 57 24t21 37q0 48 -67 48h-86v40h86q111 0 111 -86q0 -40 -28 -62t-80 -38l-43 -13z"/>
            <glyph glyph-name="uni1EBC" unicode="&#x1ebc;" horiz-adv-x="641"
                   d="M102 0v696h461v-44h-414v-269h404v-44h-404v-295h419v-44h-466zM408 779q-21 0 -40.5 8.5t-46.5 30.5q-22 18 -35 24.5t-25 6.5q-46 0 -46 -43v-25h-41v26q0 38 23.5 60.5t60.5 22.5q21 0 40.5 -8.5t46.5 -30.5q23 -18 35.5 -24.5t24.5 -6.5q46 0 46 43v25h41v-26
q0 -37 -23.5 -60t-60.5 -23z"/>
            <glyph glyph-name="uni1ECA" unicode="&#x1eca;" horiz-adv-x="251"
                   d="M149 0h-47v696h47v-696zM126 -161q-19 0 -31.5 12.5t-12.5 30.5t12.5 30.5t31.5 12.5t31.5 -12.5t12.5 -30.5t-12.5 -30.5t-31.5 -12.5z"/>
            <glyph glyph-name="uni1EC8" unicode="&#x1ec8;" horiz-adv-x="251"
                   d="M149 0h-47v696h47v-696zM66 785l41 13q36 11 57 24t21 37q0 48 -67 48h-86v40h86q111 0 111 -86q0 -40 -28 -62t-80 -38l-43 -13z"/>
            <glyph glyph-name="uni1E3E" unicode="&#x1e3e;" horiz-adv-x="880"
                   d="M149 0h-47v696h47l292 -464l290 464h47v-696h-47v613l-291 -465l-291 462v-610zM459 773h-48l88 144h54z"/>
            <glyph glyph-name="uni1ED0" unicode="&#x1ed0;" horiz-adv-x="784"
                   d="M392 -14q-97 0 -172 46.5t-118 128.5t-43 187q0 106 43 187.5t118 128t172 46.5t172 -46.5t118 -128t43 -187.5q0 -105 -43 -187t-118 -128.5t-172 -46.5zM392 31q83 0 147 41t101 112.5t37 163.5t-37 163.5t-101 112.5t-147 41q-82 0 -146.5 -41t-101.5 -112.5
t-37 -163.5t37 -163.5t101.5 -112.5t146.5 -41zM245 751l120 137h54l120 -137h-51l-96 105l-96 -105h-51zM551 844h-48l83 136h54z"/>
            <glyph glyph-name="uni1ED8" unicode="&#x1ed8;" horiz-adv-x="784"
                   d="M392 -14q-97 0 -172 46.5t-118 128.5t-43 187q0 106 43 187.5t118 128t172 46.5t172 -46.5t118 -128t43 -187.5q0 -105 -43 -187t-118 -128.5t-172 -46.5zM392 31q83 0 147 41t101 112.5t37 163.5t-37 163.5t-101 112.5t-147 41q-82 0 -146.5 -41t-101.5 -112.5
t-37 -163.5t37 -163.5t101.5 -112.5t146.5 -41zM240 773l125 144h54l125 -144h-51l-101 112l-101 -112h-51zM392 -161q-19 0 -31.5 12.5t-12.5 30.5t12.5 30.5t31.5 12.5t31.5 -12.5t12.5 -30.5t-12.5 -30.5t-31.5 -12.5z"/>
            <glyph glyph-name="uni1ED2" unicode="&#x1ed2;" horiz-adv-x="784"
                   d="M392 -14q-97 0 -172 46.5t-118 128.5t-43 187q0 106 43 187.5t118 128t172 46.5t172 -46.5t118 -128t43 -187.5q0 -105 -43 -187t-118 -128.5t-172 -46.5zM392 31q83 0 147 41t101 112.5t37 163.5t-37 163.5t-101 112.5t-147 41q-82 0 -146.5 -41t-101.5 -112.5
t-37 -163.5t37 -163.5t101.5 -112.5t146.5 -41zM245 751l120 137h54l120 -137h-51l-96 105l-96 -105h-51zM521 844l-89 136h54l83 -136h-48z"/>
            <glyph glyph-name="uni1ED4" unicode="&#x1ed4;" horiz-adv-x="784"
                   d="M392 -14q-97 0 -172 46.5t-118 128.5t-43 187q0 106 43 187.5t118 128t172 46.5t172 -46.5t118 -128t43 -187.5q0 -105 -43 -187t-118 -128.5t-172 -46.5zM392 31q83 0 147 41t101 112.5t37 163.5t-37 163.5t-101 112.5t-147 41q-82 0 -146.5 -41t-101.5 -112.5
t-37 -163.5t37 -163.5t101.5 -112.5t146.5 -41zM245 751l120 137h54l120 -137h-51l-96 105l-96 -105h-51zM515 836l-29 31l43 14q36 12 56.5 24.5t20.5 36.5q0 48 -67 48h-86v40h86q111 0 111 -86q0 -40 -28 -62t-80 -38z"/>
            <glyph glyph-name="uni1ED6" unicode="&#x1ed6;" horiz-adv-x="784"
                   d="M392 -14q-97 0 -172 46.5t-118 128.5t-43 187q0 106 43 187.5t118 128t172 46.5t172 -46.5t118 -128t43 -187.5q0 -105 -43 -187t-118 -128.5t-172 -46.5zM392 31q83 0 147 41t101 112.5t37 163.5t-37 163.5t-101 112.5t-147 41q-82 0 -146.5 -41t-101.5 -112.5
t-37 -163.5t37 -163.5t101.5 -112.5t146.5 -41zM245 751l120 137h54l120 -137h-51l-96 105l-96 -105h-51zM466 922q-20 0 -39.5 8.5t-46.5 30.5q-22 18 -35 24.5t-27 6.5q-44 0 -44 -43v-25h-41v26q0 38 24 60.5t61 22.5q20 0 39.5 -8.5t46.5 -30.5q23 -18 36 -24.5t26 -6.5
q44 0 44 43v25h41v-26q0 -37 -23.5 -60t-61.5 -23z"/>
            <glyph glyph-name="uni1ECC" unicode="&#x1ecc;" horiz-adv-x="784"
                   d="M392 -14q-97 0 -172 46.5t-118 128.5t-43 187q0 106 43 187.5t118 128t172 46.5t172 -46.5t118 -128t43 -187.5q0 -105 -43 -187t-118 -128.5t-172 -46.5zM392 31q83 0 147 41t101 112.5t37 163.5t-37 163.5t-101 112.5t-147 41q-82 0 -146.5 -41t-101.5 -112.5
t-37 -163.5t37 -163.5t101.5 -112.5t146.5 -41zM392 -161q-19 0 -31.5 12.5t-12.5 30.5t12.5 30.5t31.5 12.5t31.5 -12.5t12.5 -30.5t-12.5 -30.5t-31.5 -12.5z"/>
            <glyph glyph-name="uni1ECE" unicode="&#x1ece;" horiz-adv-x="784"
                   d="M392 -14q-97 0 -172 46.5t-118 128.5t-43 187q0 106 43 187.5t118 128t172 46.5t172 -46.5t118 -128t43 -187.5q0 -105 -43 -187t-118 -128.5t-172 -46.5zM392 31q83 0 147 41t101 112.5t37 163.5t-37 163.5t-101 112.5t-147 41q-82 0 -146.5 -41t-101.5 -112.5
t-37 -163.5t37 -163.5t101.5 -112.5t146.5 -41zM332 785l41 13q36 11 57 24t21 37q0 48 -67 48h-86v40h86q111 0 111 -86q0 -40 -28 -62t-80 -38l-43 -13z"/>
            <glyph glyph-name="Ohorn" unicode="&#x1a0;" horiz-adv-x="784"
                   d="M725 348q0 -105 -43 -187t-118 -128.5t-172 -46.5t-172 46.5t-118 128.5t-43 187q0 106 43 187.5t118 128t172 46.5q29 0 55 -4.5t51 -11.5q14 -4 31.5 -6t28.5 -2h7q53 0 78 26.5t25 78.5v23h46v-23q0 -66 -31.5 -103t-93.5 -41q63 -48 99.5 -125.5t36.5 -173.5z
M107 348q0 -92 37 -163.5t101.5 -112.5t146.5 -41q83 0 147 41t101 112.5t37 163.5t-37 163.5t-101 112.5t-147 41q-82 0 -146.5 -41t-101.5 -112.5t-37 -163.5z"/>
            <glyph glyph-name="uni1EDA" unicode="&#x1eda;" horiz-adv-x="784"
                   d="M725 348q0 -105 -43 -187t-118 -128.5t-172 -46.5t-172 46.5t-118 128.5t-43 187q0 106 43 187.5t118 128t172 46.5q29 0 55 -4.5t51 -11.5q14 -4 31.5 -6t28.5 -2h7q53 0 78 26.5t25 78.5v23h46v-23q0 -66 -31.5 -103t-93.5 -41q63 -48 99.5 -125.5t36.5 -173.5z
M107 348q0 -92 37 -163.5t101.5 -112.5t146.5 -41q83 0 147 41t101 112.5t37 163.5t-37 163.5t-101 112.5t-147 41q-82 0 -146.5 -41t-101.5 -112.5t-37 -163.5zM411 773h-48l88 144h54z"/>
            <glyph glyph-name="uni1EE2" unicode="&#x1ee2;" horiz-adv-x="784"
                   d="M725 348q0 -105 -43 -187t-118 -128.5t-172 -46.5t-172 46.5t-118 128.5t-43 187q0 106 43 187.5t118 128t172 46.5q29 0 55 -4.5t51 -11.5q14 -4 31.5 -6t28.5 -2h7q53 0 78 26.5t25 78.5v23h46v-23q0 -66 -31.5 -103t-93.5 -41q63 -48 99.5 -125.5t36.5 -173.5z
M107 348q0 -92 37 -163.5t101.5 -112.5t146.5 -41q83 0 147 41t101 112.5t37 163.5t-37 163.5t-101 112.5t-147 41q-82 0 -146.5 -41t-101.5 -112.5t-37 -163.5zM392 -161q-19 0 -31.5 12.5t-12.5 30.5t12.5 30.5t31.5 12.5t31.5 -12.5t12.5 -30.5t-12.5 -30.5t-31.5 -12.5z
"/>
            <glyph glyph-name="uni1EDC" unicode="&#x1edc;" horiz-adv-x="784"
                   d="M725 348q0 -105 -43 -187t-118 -128.5t-172 -46.5t-172 46.5t-118 128.5t-43 187q0 106 43 187.5t118 128t172 46.5q29 0 55 -4.5t51 -11.5q14 -4 31.5 -6t28.5 -2h7q53 0 78 26.5t25 78.5v23h46v-23q0 -66 -31.5 -103t-93.5 -41q63 -48 99.5 -125.5t36.5 -173.5z
M107 348q0 -92 37 -163.5t101.5 -112.5t146.5 -41q83 0 147 41t101 112.5t37 163.5t-37 163.5t-101 112.5t-147 41q-82 0 -146.5 -41t-101.5 -112.5t-37 -163.5zM373 773l-94 144h54l88 -144h-48z"/>
            <glyph glyph-name="uni1EDE" unicode="&#x1ede;" horiz-adv-x="784"
                   d="M725 348q0 -105 -43 -187t-118 -128.5t-172 -46.5t-172 46.5t-118 128.5t-43 187q0 106 43 187.5t118 128t172 46.5q29 0 55 -4.5t51 -11.5q14 -4 31.5 -6t28.5 -2h7q53 0 78 26.5t25 78.5v23h46v-23q0 -66 -31.5 -103t-93.5 -41q63 -48 99.5 -125.5t36.5 -173.5z
M107 348q0 -92 37 -163.5t101.5 -112.5t146.5 -41q83 0 147 41t101 112.5t37 163.5t-37 163.5t-101 112.5t-147 41q-82 0 -146.5 -41t-101.5 -112.5t-37 -163.5zM332 785l41 13q36 11 57 24t21 37q0 48 -67 48h-86v40h86q111 0 111 -86q0 -40 -28 -62t-80 -38l-43 -13z"/>
            <glyph glyph-name="uni1EE0" unicode="&#x1ee0;" horiz-adv-x="784"
                   d="M725 348q0 -105 -43 -187t-118 -128.5t-172 -46.5t-172 46.5t-118 128.5t-43 187q0 106 43 187.5t118 128t172 46.5q29 0 55 -4.5t51 -11.5q14 -4 31.5 -6t28.5 -2h7q53 0 78 26.5t25 78.5v23h46v-23q0 -66 -31.5 -103t-93.5 -41q63 -48 99.5 -125.5t36.5 -173.5z
M107 348q0 -92 37 -163.5t101.5 -112.5t146.5 -41q83 0 147 41t101 112.5t37 163.5t-37 163.5t-101 112.5t-147 41q-82 0 -146.5 -41t-101.5 -112.5t-37 -163.5zM467 779q-21 0 -40.5 8.5t-46.5 30.5q-22 18 -35 24.5t-25 6.5q-46 0 -46 -43v-25h-41v26q0 38 23.5 60.5
t60.5 22.5q21 0 40.5 -8.5t46.5 -30.5q23 -18 35.5 -24.5t24.5 -6.5q46 0 46 43v25h41v-26q0 -37 -23.5 -60t-60.5 -23z"/>
            <glyph glyph-name="uni1EE4" unicode="&#x1ee4;" horiz-adv-x="740"
                   d="M370 -14q-91 0 -153 38t-94 107t-32 162v403h47v-403q0 -121 58.5 -191.5t173.5 -70.5q116 0 174 70.5t58 191.5v403h47v-403q0 -93 -32 -162t-94 -107t-153 -38zM370 -161q-19 0 -31.5 12.5t-12.5 30.5t12.5 30.5t31.5 12.5t31.5 -12.5t12.5 -30.5t-12.5 -30.5
t-31.5 -12.5z"/>
            <glyph glyph-name="uni1EE6" unicode="&#x1ee6;" horiz-adv-x="740"
                   d="M370 -14q-91 0 -153 38t-94 107t-32 162v403h47v-403q0 -121 58.5 -191.5t173.5 -70.5q116 0 174 70.5t58 191.5v403h47v-403q0 -93 -32 -162t-94 -107t-153 -38zM310 785l41 13q36 11 57 24t21 37q0 48 -67 48h-86v40h86q111 0 111 -86q0 -40 -28 -62t-80 -38l-43 -13z
"/>
            <glyph glyph-name="Uhorn" unicode="&#x1af;" horiz-adv-x="740"
                   d="M649 293q0 -93 -32 -162t-94 -107t-153 -38t-153 38t-94 107t-32 162v403h47v-403q0 -121 58.5 -191.5t173.5 -70.5q116 0 174 70.5t58 191.5v403h40q93 0 93 105v23h46v-23q0 -73 -34 -110.5t-98 -37.5v-360z"/>
            <glyph glyph-name="uni1EE8" unicode="&#x1ee8;" horiz-adv-x="740"
                   d="M649 293q0 -93 -32 -162t-94 -107t-153 -38t-153 38t-94 107t-32 162v403h47v-403q0 -121 58.5 -191.5t173.5 -70.5q116 0 174 70.5t58 191.5v403h40q93 0 93 105v23h46v-23q0 -73 -34 -110.5t-98 -37.5v-360zM389 773h-48l88 144h54z"/>
            <glyph glyph-name="uni1EF0" unicode="&#x1ef0;" horiz-adv-x="740"
                   d="M649 293q0 -93 -32 -162t-94 -107t-153 -38t-153 38t-94 107t-32 162v403h47v-403q0 -121 58.5 -191.5t173.5 -70.5q116 0 174 70.5t58 191.5v403h40q93 0 93 105v23h46v-23q0 -73 -34 -110.5t-98 -37.5v-360zM370 -161q-19 0 -31.5 12.5t-12.5 30.5t12.5 30.5t31.5 12.5
t31.5 -12.5t12.5 -30.5t-12.5 -30.5t-31.5 -12.5z"/>
            <glyph glyph-name="uni1EEA" unicode="&#x1eea;" horiz-adv-x="740"
                   d="M649 293q0 -93 -32 -162t-94 -107t-153 -38t-153 38t-94 107t-32 162v403h47v-403q0 -121 58.5 -191.5t173.5 -70.5q116 0 174 70.5t58 191.5v403h40q93 0 93 105v23h46v-23q0 -73 -34 -110.5t-98 -37.5v-360zM351 773l-94 144h54l88 -144h-48z"/>
            <glyph glyph-name="uni1EEC" unicode="&#x1eec;" horiz-adv-x="740"
                   d="M649 293q0 -93 -32 -162t-94 -107t-153 -38t-153 38t-94 107t-32 162v403h47v-403q0 -121 58.5 -191.5t173.5 -70.5q116 0 174 70.5t58 191.5v403h40q93 0 93 105v23h46v-23q0 -73 -34 -110.5t-98 -37.5v-360zM310 785l41 13q36 11 57 24t21 37q0 48 -67 48h-86v40h86
q111 0 111 -86q0 -40 -28 -62t-80 -38l-43 -13z"/>
            <glyph glyph-name="uni1EEE" unicode="&#x1eee;" horiz-adv-x="740"
                   d="M649 293q0 -93 -32 -162t-94 -107t-153 -38t-153 38t-94 107t-32 162v403h47v-403q0 -121 58.5 -191.5t173.5 -70.5q116 0 174 70.5t58 191.5v403h40q93 0 93 105v23h46v-23q0 -73 -34 -110.5t-98 -37.5v-360zM445 779q-21 0 -40.5 8.5t-46.5 30.5q-22 18 -35 24.5
t-25 6.5q-46 0 -46 -43v-25h-41v26q0 38 23.5 60.5t60.5 22.5q21 0 40.5 -8.5t46.5 -30.5q23 -18 35.5 -24.5t24.5 -6.5q46 0 46 43v25h41v-26q0 -37 -23.5 -60t-60.5 -23z"/>
            <glyph glyph-name="uni1EF4" unicode="&#x1ef4;" horiz-adv-x="614"
                   d="M285 0v279l-266 417h57l233 -370l231 370h55l-263 -415v-281h-47zM309 -161q-19 0 -31.5 12.5t-12.5 30.5t12.5 30.5t31.5 12.5t31.5 -12.5t12.5 -30.5t-12.5 -30.5t-31.5 -12.5z"/>
            <glyph glyph-name="uni1EF6" unicode="&#x1ef6;" horiz-adv-x="614"
                   d="M285 0v279l-266 417h57l233 -370l231 370h55l-263 -415v-281h-47zM247 785l41 13q36 11 57 24t21 37q0 48 -67 48h-86v40h86q111 0 111 -86q0 -40 -28 -62t-80 -38l-43 -13z"/>
            <glyph glyph-name="uni1EF8" unicode="&#x1ef8;" horiz-adv-x="614"
                   d="M285 0v279l-266 417h57l233 -370l231 370h55l-263 -415v-281h-47zM382 779q-21 0 -40.5 8.5t-46.5 30.5q-22 18 -35 24.5t-25 6.5q-46 0 -46 -43v-25h-41v26q0 38 23.5 60.5t60.5 22.5q21 0 40.5 -8.5t46.5 -30.5q23 -18 35.5 -24.5t24.5 -6.5q46 0 46 43v25h41v-26
q0 -37 -23.5 -60t-60.5 -23z"/>
            <glyph glyph-name="uni1EAF" unicode="&#x1eaf;" horiz-adv-x="526"
                   d="M217 -14q-76 0 -123.5 40t-47.5 111q0 74 54.5 115t157.5 41h142v31q0 80 -39.5 115.5t-106.5 35.5q-57 0 -95 -23.5t-46 -58.5h-48q13 59 65 92t122 33q89 0 141 -47t52 -147v-324h-45v87q-29 -50 -79 -75.5t-104 -25.5zM219 28q40 0 81.5 19t70.5 57t29 96v51h-142
q-80 0 -123.5 -29t-43.5 -85q0 -51 35.5 -80t92.5 -29zM407 700q-12 -56 -51.5 -87t-92.5 -31t-92.5 31t-51.5 87h47q10 -37 36.5 -57.5t60.5 -20.5q35 0 61 20.5t36 57.5h47zM286 720h-48l75 151h53z"/>
            <glyph glyph-name="uni1EB7" unicode="&#x1eb7;" horiz-adv-x="526"
                   d="M217 -14q-76 0 -123.5 40t-47.5 111q0 74 54.5 115t157.5 41h142v31q0 80 -39.5 115.5t-106.5 35.5q-57 0 -95 -23.5t-46 -58.5h-48q13 59 65 92t122 33q89 0 141 -47t52 -147v-324h-45v87q-29 -50 -79 -75.5t-104 -25.5zM219 28q40 0 81.5 19t70.5 57t29 96v51h-142
q-80 0 -123.5 -29t-43.5 -85q0 -51 35.5 -80t92.5 -29zM263 582q-60 0 -101.5 39t-46.5 109h46q4 -52 32.5 -80t69.5 -28t69.5 28t32.5 80h46q-4 -70 -46 -109t-102 -39zM263 -161q-18 0 -30.5 12.5t-12.5 30.5t12.5 30.5t30.5 12.5t30.5 -12.5t12.5 -30.5t-12.5 -30.5
t-30.5 -12.5z"/>
            <glyph glyph-name="uni1EB1" unicode="&#x1eb1;" horiz-adv-x="526"
                   d="M217 -14q-76 0 -123.5 40t-47.5 111q0 74 54.5 115t157.5 41h142v31q0 80 -39.5 115.5t-106.5 35.5q-57 0 -95 -23.5t-46 -58.5h-48q13 59 65 92t122 33q89 0 141 -47t52 -147v-324h-45v87q-29 -50 -79 -75.5t-104 -25.5zM219 28q40 0 81.5 19t70.5 57t29 96v51h-142
q-80 0 -123.5 -29t-43.5 -85q0 -51 35.5 -80t92.5 -29zM407 700q-12 -56 -51.5 -87t-92.5 -31t-92.5 31t-51.5 87h47q10 -37 36.5 -57.5t60.5 -20.5q35 0 61 20.5t36 57.5h47zM240 720l-80 151h53l75 -151h-48z"/>
            <glyph glyph-name="uni1EB3" unicode="&#x1eb3;" horiz-adv-x="526"
                   d="M217 -14q-76 0 -123.5 40t-47.5 111q0 74 54.5 115t157.5 41h142v31q0 80 -39.5 115.5t-106.5 35.5q-57 0 -95 -23.5t-46 -58.5h-48q13 59 65 92t122 33q89 0 141 -47t52 -147v-324h-45v87q-29 -50 -79 -75.5t-104 -25.5zM219 28q40 0 81.5 19t70.5 57t29 96v51h-142
q-80 0 -123.5 -29t-43.5 -85q0 -51 35.5 -80t92.5 -29zM223 727l22 7q36 11 56.5 22.5t20.5 34.5q0 40 -63 40h-90v40h90q54 0 80.5 -21t26.5 -59q0 -37 -28 -57t-80 -37l-22 -7zM263 582q-53 0 -92.5 31t-51.5 87h47q10 -37 36.5 -57.5t60.5 -20.5q35 0 61 20.5t36 57.5h47
q-12 -56 -51.5 -87t-92.5 -31z"/>
            <glyph glyph-name="uni1EB5" unicode="&#x1eb5;" horiz-adv-x="526"
                   d="M217 -14q-76 0 -123.5 40t-47.5 111q0 74 54.5 115t157.5 41h142v31q0 80 -39.5 115.5t-106.5 35.5q-57 0 -95 -23.5t-46 -58.5h-48q13 59 65 92t122 33q89 0 141 -47t52 -147v-324h-45v87q-29 -50 -79 -75.5t-104 -25.5zM219 28q40 0 81.5 19t70.5 57t29 96v51h-142
q-80 0 -123.5 -29t-43.5 -85q0 -51 35.5 -80t92.5 -29zM407 700q-12 -56 -51.5 -87t-92.5 -31t-92.5 31t-51.5 87h47q10 -37 36.5 -57.5t60.5 -20.5q35 0 61 20.5t36 57.5h47zM337 757q-20 0 -40.5 9t-45.5 30q-22 19 -36 25t-25 6q-40 0 -40 -43v-25h-41v26q0 38 23 60.5
t57 22.5q20 0 40.5 -9t45.5 -30q22 -19 36 -25t25 -6q40 0 40 43v25h41v-26q0 -37 -22.5 -60t-57.5 -23z"/>
            <glyph glyph-name="uni1EA5" unicode="&#x1ea5;" horiz-adv-x="526"
                   d="M217 -14q-76 0 -123.5 40t-47.5 111q0 74 54.5 115t157.5 41h142v31q0 80 -39.5 115.5t-106.5 35.5q-57 0 -95 -23.5t-46 -58.5h-48q13 59 65 92t122 33q89 0 141 -47t52 -147v-324h-45v87q-29 -50 -79 -75.5t-104 -25.5zM219 28q40 0 81.5 19t70.5 57t29 96v51h-142
q-80 0 -123.5 -29t-43.5 -85q0 -51 35.5 -80t92.5 -29zM124 582l112 147h54l112 -147h-49l-90 113l-90 -113h-49zM411 707h-48l75 151h53z"/>
            <glyph glyph-name="uni1EAD" unicode="&#x1ead;" horiz-adv-x="526"
                   d="M217 -14q-76 0 -123.5 40t-47.5 111q0 74 54.5 115t157.5 41h142v31q0 80 -39.5 115.5t-106.5 35.5q-57 0 -95 -23.5t-46 -58.5h-48q13 59 65 92t122 33q89 0 141 -47t52 -147v-324h-45v87q-29 -50 -79 -75.5t-104 -25.5zM219 28q40 0 81.5 19t70.5 57t29 96v51h-142
q-80 0 -123.5 -29t-43.5 -85q0 -51 35.5 -80t92.5 -29zM119 582l117 151h54l117 -151h-49l-95 118l-95 -118h-49zM263 -161q-18 0 -30.5 12.5t-12.5 30.5t12.5 30.5t30.5 12.5t30.5 -12.5t12.5 -30.5t-12.5 -30.5t-30.5 -12.5z"/>
            <glyph glyph-name="uni1EA7" unicode="&#x1ea7;" horiz-adv-x="526"
                   d="M217 -14q-76 0 -123.5 40t-47.5 111q0 74 54.5 115t157.5 41h142v31q0 80 -39.5 115.5t-106.5 35.5q-57 0 -95 -23.5t-46 -58.5h-48q13 59 65 92t122 33q89 0 141 -47t52 -147v-324h-45v87q-29 -50 -79 -75.5t-104 -25.5zM219 28q40 0 81.5 19t70.5 57t29 96v51h-142
q-80 0 -123.5 -29t-43.5 -85q0 -51 35.5 -80t92.5 -29zM124 582l112 147h54l112 -147h-49l-90 113l-90 -113h-49zM380 707l-80 151h53l75 -151h-48z"/>
            <glyph glyph-name="uni1EA9" unicode="&#x1ea9;" horiz-adv-x="526"
                   d="M217 -14q-76 0 -123.5 40t-47.5 111q0 74 54.5 115t157.5 41h142v31q0 80 -39.5 115.5t-106.5 35.5q-57 0 -95 -23.5t-46 -58.5h-48q13 59 65 92t122 33q89 0 141 -47t52 -147v-324h-45v87q-29 -50 -79 -75.5t-104 -25.5zM219 28q40 0 81.5 19t70.5 57t29 96v51h-142
q-80 0 -123.5 -29t-43.5 -85q0 -51 35.5 -80t92.5 -29zM124 582l112 147h54l112 -147h-49l-90 113l-90 -113h-49zM381 681l-25 33l42 13q36 11 56.5 24t20.5 37q0 48 -67 48h-86v40h86q111 0 111 -86q0 -40 -28 -62t-80 -38z"/>
            <glyph glyph-name="uni1EAB" unicode="&#x1eab;" horiz-adv-x="526"
                   d="M217 -14q-76 0 -123.5 40t-47.5 111q0 74 54.5 115t157.5 41h142v31q0 80 -39.5 115.5t-106.5 35.5q-57 0 -95 -23.5t-46 -58.5h-48q13 59 65 92t122 33q89 0 141 -47t52 -147v-324h-45v87q-29 -50 -79 -75.5t-104 -25.5zM219 28q40 0 81.5 19t70.5 57t29 96v51h-142
q-80 0 -123.5 -29t-43.5 -85q0 -51 35.5 -80t92.5 -29zM124 582l112 147h54l112 -147h-49l-90 113l-90 -113h-49zM337 763q-20 0 -40.5 9t-45.5 30q-22 19 -36 25t-25 6q-40 0 -40 -43v-25h-41v26q0 38 23 60.5t57 22.5q20 0 40.5 -9t45.5 -30q22 -19 36 -25t25 -6
q40 0 40 43v25h41v-26q0 -37 -22.5 -60t-57.5 -23z"/>
            <glyph glyph-name="uni1EA1" unicode="&#x1ea1;" horiz-adv-x="526"
                   d="M217 -14q-76 0 -123.5 40t-47.5 111q0 74 54.5 115t157.5 41h142v31q0 80 -39.5 115.5t-106.5 35.5q-57 0 -95 -23.5t-46 -58.5h-48q13 59 65 92t122 33q89 0 141 -47t52 -147v-324h-45v87q-29 -50 -79 -75.5t-104 -25.5zM219 28q40 0 81.5 19t70.5 57t29 96v51h-142
q-80 0 -123.5 -29t-43.5 -85q0 -51 35.5 -80t92.5 -29zM263 -161q-18 0 -30.5 12.5t-12.5 30.5t12.5 30.5t30.5 12.5t30.5 -12.5t12.5 -30.5t-12.5 -30.5t-30.5 -12.5z"/>
            <glyph glyph-name="uni1EA3" unicode="&#x1ea3;" horiz-adv-x="526"
                   d="M217 -14q-76 0 -123.5 40t-47.5 111q0 74 54.5 115t157.5 41h142v31q0 80 -39.5 115.5t-106.5 35.5q-57 0 -95 -23.5t-46 -58.5h-48q13 59 65 92t122 33q89 0 141 -47t52 -147v-324h-45v87q-29 -50 -79 -75.5t-104 -25.5zM219 28q40 0 81.5 19t70.5 57t29 96v51h-142
q-80 0 -123.5 -29t-43.5 -85q0 -51 35.5 -80t92.5 -29zM215 569l-11 35l41 13q36 11 56.5 25t20.5 38q0 48 -67 48h-86v40h86q111 0 111 -86q0 -40 -28 -62t-80 -38z"/>
            <glyph glyph-name="uni1EBF" unicode="&#x1ebf;" horiz-adv-x="547"
                   d="M286 -14q-72 0 -125 32.5t-81.5 92.5t-28.5 141q0 78 28 138t79.5 94t123.5 34q69 0 116.5 -31.5t72 -86t24.5 -124.5v-34h-398q3 -98 53 -155.5t136 -57.5q56 0 95 22.5t50 57.5h51q-17 -57 -71 -90t-125 -33zM282 475q-80 0 -128 -53t-56 -138h351q-2 84 -44 137.5
t-123 53.5zM134 582l112 147h54l112 -147h-49l-90 113l-90 -113h-49zM421 707h-48l75 151h53z"/>
            <glyph glyph-name="uni1EC7" unicode="&#x1ec7;" horiz-adv-x="547"
                   d="M286 -14q-72 0 -125 32.5t-81.5 92.5t-28.5 141q0 78 28 138t79.5 94t123.5 34q69 0 116.5 -31.5t72 -86t24.5 -124.5v-34h-398q3 -98 53 -155.5t136 -57.5q56 0 95 22.5t50 57.5h51q-17 -57 -71 -90t-125 -33zM282 475q-80 0 -128 -53t-56 -138h351q-2 84 -44 137.5
t-123 53.5zM129 582l117 151h54l117 -151h-49l-95 118l-95 -118h-49zM273 -161q-18 0 -30.5 12.5t-12.5 30.5t12.5 30.5t30.5 12.5t30.5 -12.5t12.5 -30.5t-12.5 -30.5t-30.5 -12.5z"/>
            <glyph glyph-name="uni1EC1" unicode="&#x1ec1;" horiz-adv-x="547"
                   d="M286 -14q-72 0 -125 32.5t-81.5 92.5t-28.5 141q0 78 28 138t79.5 94t123.5 34q69 0 116.5 -31.5t72 -86t24.5 -124.5v-34h-398q3 -98 53 -155.5t136 -57.5q56 0 95 22.5t50 57.5h51q-17 -57 -71 -90t-125 -33zM282 475q-80 0 -128 -53t-56 -138h351q-2 84 -44 137.5
t-123 53.5zM134 582l112 147h54l112 -147h-49l-90 113l-90 -113h-49zM390 707l-80 151h53l75 -151h-48z"/>
            <glyph glyph-name="uni1EC3" unicode="&#x1ec3;" horiz-adv-x="547"
                   d="M286 -14q-72 0 -125 32.5t-81.5 92.5t-28.5 141q0 78 28 138t79.5 94t123.5 34q69 0 116.5 -31.5t72 -86t24.5 -124.5v-34h-398q3 -98 53 -155.5t136 -57.5q56 0 95 22.5t50 57.5h51q-17 -57 -71 -90t-125 -33zM282 475q-80 0 -128 -53t-56 -138h351q-2 84 -44 137.5
t-123 53.5zM134 582l112 147h54l112 -147h-49l-90 113l-90 -113h-49zM391 681l-25 33l42 13q36 11 56.5 24t20.5 37q0 48 -67 48h-86v40h86q111 0 111 -86q0 -40 -28 -62t-80 -38z"/>
            <glyph glyph-name="uni1EC5" unicode="&#x1ec5;" horiz-adv-x="547"
                   d="M286 -14q-72 0 -125 32.5t-81.5 92.5t-28.5 141q0 78 28 138t79.5 94t123.5 34q69 0 116.5 -31.5t72 -86t24.5 -124.5v-34h-398q3 -98 53 -155.5t136 -57.5q56 0 95 22.5t50 57.5h51q-17 -57 -71 -90t-125 -33zM282 475q-80 0 -128 -53t-56 -138h351q-2 84 -44 137.5
t-123 53.5zM134 582l112 147h54l112 -147h-49l-90 113l-90 -113h-49zM347 763q-20 0 -40.5 9t-45.5 30q-22 19 -36 25t-25 6q-40 0 -40 -43v-25h-41v26q0 38 23 60.5t57 22.5q20 0 40.5 -9t45.5 -30q22 -19 36 -25t25 -6q40 0 40 43v25h41v-26q0 -37 -22.5 -60t-57.5 -23z
"/>
            <glyph glyph-name="uni1EB9" unicode="&#x1eb9;" horiz-adv-x="547"
                   d="M286 -14q-72 0 -125 32.5t-81.5 92.5t-28.5 141q0 78 28 138t79.5 94t123.5 34q69 0 116.5 -31.5t72 -86t24.5 -124.5v-34h-398q3 -98 53 -155.5t136 -57.5q56 0 95 22.5t50 57.5h51q-17 -57 -71 -90t-125 -33zM282 475q-80 0 -128 -53t-56 -138h351q-2 84 -44 137.5
t-123 53.5zM273 -161q-18 0 -30.5 12.5t-12.5 30.5t12.5 30.5t30.5 12.5t30.5 -12.5t12.5 -30.5t-12.5 -30.5t-30.5 -12.5z"/>
            <glyph glyph-name="uni1EBB" unicode="&#x1ebb;" horiz-adv-x="547"
                   d="M286 -14q-72 0 -125 32.5t-81.5 92.5t-28.5 141q0 78 28 138t79.5 94t123.5 34q69 0 116.5 -31.5t72 -86t24.5 -124.5v-34h-398q3 -98 53 -155.5t136 -57.5q56 0 95 22.5t50 57.5h51q-17 -57 -71 -90t-125 -33zM282 475q-80 0 -128 -53t-56 -138h351q-2 84 -44 137.5
t-123 53.5zM225 569l-11 35l41 13q36 11 56.5 25t20.5 38q0 48 -67 48h-86v40h86q111 0 111 -86q0 -40 -28 -62t-80 -38z"/>
            <glyph glyph-name="uni1EBD" unicode="&#x1ebd;" horiz-adv-x="547"
                   d="M286 -14q-72 0 -125 32.5t-81.5 92.5t-28.5 141q0 78 28 138t79.5 94t123.5 34q69 0 116.5 -31.5t72 -86t24.5 -124.5v-34h-398q3 -98 53 -155.5t136 -57.5q56 0 95 22.5t50 57.5h51q-17 -57 -71 -90t-125 -33zM282 475q-80 0 -128 -53t-56 -138h351q-2 84 -44 137.5
t-123 53.5zM346 588q-19 0 -39.5 9t-45.5 30q-22 19 -35.5 25t-23.5 6q-42 0 -42 -43v-25h-41v26q0 38 23 60.5t58 22.5q20 0 40 -9t45 -30q22 -19 35.5 -25t23.5 -6q42 0 42 43v25h41v-26q0 -37 -23 -60t-58 -23z"/>
            <glyph glyph-name="uni1ECB" unicode="&#x1ecb;" horiz-adv-x="217"
                   d="M109 595q-18 0 -30.5 12.5t-12.5 30.5t12.5 30.5t30.5 12.5t30.5 -12.5t12.5 -30.5t-12.5 -30.5t-30.5 -12.5zM86 0v505h45v-505h-45zM109 -161q-18 0 -30.5 12.5t-12.5 30.5t12.5 30.5t30.5 12.5t30.5 -12.5t12.5 -30.5t-12.5 -30.5t-30.5 -12.5z"/>
            <glyph glyph-name="uni1EC9" unicode="&#x1ec9;" horiz-adv-x="217"
                   d="M86 0v505h45v-505h-45zM61 569l-11 35l41 13q36 11 56.5 25t20.5 38q0 48 -67 48h-86v40h86q111 0 111 -86q0 -40 -28 -62t-80 -38z"/>
            <glyph glyph-name="uni1E3F" unicode="&#x1e3f;" horiz-adv-x="860"
                   d="M86 0v505h45v-77q24 42 64.5 66t87.5 24q55 0 95.5 -28t60.5 -79q23 50 68.5 78.5t99.5 28.5q78 0 125 -54.5t47 -147.5v-316h-45v311q0 77 -35.5 120.5t-93.5 43.5q-39 0 -73.5 -20t-55.5 -56.5t-21 -87.5v-311h-45v311q0 77 -35.5 120.5t-93.5 43.5q-39 0 -73.5 -20.5
t-55.5 -58t-21 -88.5v-308h-45zM456 582h-47l75 151h52z"/>
            <glyph glyph-name="uni1ED1" unicode="&#x1ed1;" horiz-adv-x="564"
                   d="M282 -14q-68 0 -120 34t-81.5 94t-29.5 138t29.5 138t81.5 94t120 34t120 -34t81.5 -94t29.5 -138t-29.5 -138t-81.5 -94t-120 -34zM282 29q55 0 96.5 28.5t65 79t23.5 115.5q0 66 -23.5 116t-65 78.5t-96.5 28.5q-54 0 -96 -28.5t-65.5 -78.5t-23.5 -116
q0 -65 23.5 -115.5t65.5 -79t96 -28.5zM143 582l112 147h54l112 -147h-49l-90 113l-90 -113h-49zM430 707h-48l75 151h53z"/>
            <glyph glyph-name="uni1ED9" unicode="&#x1ed9;" horiz-adv-x="564"
                   d="M282 -14q-68 0 -120 34t-81.5 94t-29.5 138t29.5 138t81.5 94t120 34t120 -34t81.5 -94t29.5 -138t-29.5 -138t-81.5 -94t-120 -34zM282 29q55 0 96.5 28.5t65 79t23.5 115.5q0 66 -23.5 116t-65 78.5t-96.5 28.5q-54 0 -96 -28.5t-65.5 -78.5t-23.5 -116
q0 -65 23.5 -115.5t65.5 -79t96 -28.5zM138 582l117 151h54l117 -151h-49l-95 118l-95 -118h-49zM282 -161q-18 0 -30.5 12.5t-12.5 30.5t12.5 30.5t30.5 12.5t30.5 -12.5t12.5 -30.5t-12.5 -30.5t-30.5 -12.5z"/>
            <glyph glyph-name="uni1ED3" unicode="&#x1ed3;" horiz-adv-x="564"
                   d="M282 -14q-68 0 -120 34t-81.5 94t-29.5 138t29.5 138t81.5 94t120 34t120 -34t81.5 -94t29.5 -138t-29.5 -138t-81.5 -94t-120 -34zM282 29q55 0 96.5 28.5t65 79t23.5 115.5q0 66 -23.5 116t-65 78.5t-96.5 28.5q-54 0 -96 -28.5t-65.5 -78.5t-23.5 -116
q0 -65 23.5 -115.5t65.5 -79t96 -28.5zM143 582l112 147h54l112 -147h-49l-90 113l-90 -113h-49zM399 707l-80 151h53l75 -151h-48z"/>
            <glyph glyph-name="uni1ED5" unicode="&#x1ed5;" horiz-adv-x="564"
                   d="M282 -14q-68 0 -120 34t-81.5 94t-29.5 138t29.5 138t81.5 94t120 34t120 -34t81.5 -94t29.5 -138t-29.5 -138t-81.5 -94t-120 -34zM282 29q55 0 96.5 28.5t65 79t23.5 115.5q0 66 -23.5 116t-65 78.5t-96.5 28.5q-54 0 -96 -28.5t-65.5 -78.5t-23.5 -116
q0 -65 23.5 -115.5t65.5 -79t96 -28.5zM143 582l112 147h54l112 -147h-49l-90 113l-90 -113h-49zM400 681l-25 33l42 13q36 11 56.5 24t20.5 37q0 48 -67 48h-86v40h86q111 0 111 -86q0 -40 -28 -62t-80 -38z"/>
            <glyph glyph-name="uni1ED7" unicode="&#x1ed7;" horiz-adv-x="564"
                   d="M282 -14q-68 0 -120 34t-81.5 94t-29.5 138t29.5 138t81.5 94t120 34t120 -34t81.5 -94t29.5 -138t-29.5 -138t-81.5 -94t-120 -34zM282 29q55 0 96.5 28.5t65 79t23.5 115.5q0 66 -23.5 116t-65 78.5t-96.5 28.5q-54 0 -96 -28.5t-65.5 -78.5t-23.5 -116
q0 -65 23.5 -115.5t65.5 -79t96 -28.5zM143 582l112 147h54l112 -147h-49l-90 113l-90 -113h-49zM356 763q-20 0 -40.5 9t-45.5 30q-22 19 -36 25t-25 6q-40 0 -40 -43v-25h-41v26q0 38 23 60.5t57 22.5q20 0 40.5 -9t45.5 -30q22 -19 36 -25t25 -6q40 0 40 43v25h41v-26
q0 -37 -22.5 -60t-57.5 -23z"/>
            <glyph glyph-name="uni1ECD" unicode="&#x1ecd;" horiz-adv-x="564"
                   d="M282 -14q-68 0 -120 34t-81.5 94t-29.5 138t29.5 138t81.5 94t120 34t120 -34t81.5 -94t29.5 -138t-29.5 -138t-81.5 -94t-120 -34zM282 29q55 0 96.5 28.5t65 79t23.5 115.5q0 66 -23.5 116t-65 78.5t-96.5 28.5q-54 0 -96 -28.5t-65.5 -78.5t-23.5 -116
q0 -65 23.5 -115.5t65.5 -79t96 -28.5zM282 -161q-18 0 -30.5 12.5t-12.5 30.5t12.5 30.5t30.5 12.5t30.5 -12.5t12.5 -30.5t-12.5 -30.5t-30.5 -12.5z"/>
            <glyph glyph-name="uni1ECF" unicode="&#x1ecf;" horiz-adv-x="564"
                   d="M282 -14q-68 0 -120 34t-81.5 94t-29.5 138t29.5 138t81.5 94t120 34t120 -34t81.5 -94t29.5 -138t-29.5 -138t-81.5 -94t-120 -34zM282 29q55 0 96.5 28.5t65 79t23.5 115.5q0 66 -23.5 116t-65 78.5t-96.5 28.5q-54 0 -96 -28.5t-65.5 -78.5t-23.5 -116
q0 -65 23.5 -115.5t65.5 -79t96 -28.5zM234 569l-11 35l41 13q36 11 56.5 25t20.5 38q0 48 -67 48h-86v40h86q111 0 111 -86q0 -40 -28 -62t-80 -38z"/>
            <glyph glyph-name="ohorn" unicode="&#x1a1;" horiz-adv-x="564"
                   d="M513 252q0 -78 -29.5 -138t-81.5 -94t-120 -34t-120 34t-81.5 94t-29.5 138t29.5 138t81.5 94t120 34q23 0 44.5 -4.5t43.5 -12.5q20 -6 35 -6q82 0 82 95v23h44v-23q0 -116 -98 -131q38 -35 59 -88.5t21 -118.5zM97 252q0 -65 23.5 -115.5t65.5 -79t96 -28.5
q55 0 96.5 28.5t65 79t23.5 115.5q0 66 -23.5 116t-65 78.5t-96.5 28.5q-54 0 -96 -28.5t-65.5 -78.5t-23.5 -116z"/>
            <glyph glyph-name="uni1EDB" unicode="&#x1edb;" horiz-adv-x="564"
                   d="M513 252q0 -78 -29.5 -138t-81.5 -94t-120 -34t-120 34t-81.5 94t-29.5 138t29.5 138t81.5 94t120 34q23 0 44.5 -4.5t43.5 -12.5q20 -6 35 -6q82 0 82 95v23h44v-23q0 -116 -98 -131q38 -35 59 -88.5t21 -118.5zM97 252q0 -65 23.5 -115.5t65.5 -79t96 -28.5
q55 0 96.5 28.5t65 79t23.5 115.5q0 66 -23.5 116t-65 78.5t-96.5 28.5q-54 0 -96 -28.5t-65.5 -78.5t-23.5 -116zM300 582h-47l75 151h52z"/>
            <glyph glyph-name="uni1EE3" unicode="&#x1ee3;" horiz-adv-x="564"
                   d="M513 252q0 -78 -29.5 -138t-81.5 -94t-120 -34t-120 34t-81.5 94t-29.5 138t29.5 138t81.5 94t120 34q23 0 44.5 -4.5t43.5 -12.5q20 -6 35 -6q82 0 82 95v23h44v-23q0 -116 -98 -131q38 -35 59 -88.5t21 -118.5zM97 252q0 -65 23.5 -115.5t65.5 -79t96 -28.5
q55 0 96.5 28.5t65 79t23.5 115.5q0 66 -23.5 116t-65 78.5t-96.5 28.5q-54 0 -96 -28.5t-65.5 -78.5t-23.5 -116zM282 -161q-18 0 -30.5 12.5t-12.5 30.5t12.5 30.5t30.5 12.5t30.5 -12.5t12.5 -30.5t-12.5 -30.5t-30.5 -12.5z"/>
            <glyph glyph-name="uni1EDD" unicode="&#x1edd;" horiz-adv-x="564"
                   d="M513 252q0 -78 -29.5 -138t-81.5 -94t-120 -34t-120 34t-81.5 94t-29.5 138t29.5 138t81.5 94t120 34q23 0 44.5 -4.5t43.5 -12.5q20 -6 35 -6q82 0 82 95v23h44v-23q0 -116 -98 -131q38 -35 59 -88.5t21 -118.5zM97 252q0 -65 23.5 -115.5t65.5 -79t96 -28.5
q55 0 96.5 28.5t65 79t23.5 115.5q0 66 -23.5 116t-65 78.5t-96.5 28.5q-54 0 -96 -28.5t-65.5 -78.5t-23.5 -116zM264 582l-80 151h52l75 -151h-47z"/>
            <glyph glyph-name="uni1EDF" unicode="&#x1edf;" horiz-adv-x="564"
                   d="M513 252q0 -78 -29.5 -138t-81.5 -94t-120 -34t-120 34t-81.5 94t-29.5 138t29.5 138t81.5 94t120 34q23 0 44.5 -4.5t43.5 -12.5q20 -6 35 -6q82 0 82 95v23h44v-23q0 -116 -98 -131q38 -35 59 -88.5t21 -118.5zM97 252q0 -65 23.5 -115.5t65.5 -79t96 -28.5
q55 0 96.5 28.5t65 79t23.5 115.5q0 66 -23.5 116t-65 78.5t-96.5 28.5q-54 0 -96 -28.5t-65.5 -78.5t-23.5 -116zM234 569l-11 35l41 13q36 11 56.5 25t20.5 38q0 48 -67 48h-86v40h86q111 0 111 -86q0 -40 -28 -62t-80 -38z"/>
            <glyph glyph-name="uni1EE1" unicode="&#x1ee1;" horiz-adv-x="564"
                   d="M513 252q0 -78 -29.5 -138t-81.5 -94t-120 -34t-120 34t-81.5 94t-29.5 138t29.5 138t81.5 94t120 34q23 0 44.5 -4.5t43.5 -12.5q20 -6 35 -6q82 0 82 95v23h44v-23q0 -116 -98 -131q38 -35 59 -88.5t21 -118.5zM97 252q0 -65 23.5 -115.5t65.5 -79t96 -28.5
q55 0 96.5 28.5t65 79t23.5 115.5q0 66 -23.5 116t-65 78.5t-96.5 28.5q-54 0 -96 -28.5t-65.5 -78.5t-23.5 -116zM350 588q-19 0 -37 9t-43 30q-22 19 -33.5 25t-22.5 6q-17 0 -23.5 -11.5t-6.5 -31.5v-25h-41v26q0 38 19 60.5t52 22.5q20 0 37.5 -9t42.5 -30
q22 -19 34 -25t22 -6q17 0 23.5 11.5t6.5 31.5v25h41v-26q0 -37 -19 -60t-52 -23z"/>
            <glyph glyph-name="uni1EE5" unicode="&#x1ee5;" horiz-adv-x="557"
                   d="M426 201v304h45v-505h-45v80q-25 -43 -66 -68t-91 -25q-56 0 -98.5 26t-66 73t-23.5 110v309h45v-304q0 -77 40 -124t105 -47q43 0 78 20.5t56 59t21 91.5zM279 -161q-18 0 -30.5 12.5t-12.5 30.5t12.5 30.5t30.5 12.5t30.5 -12.5t12.5 -30.5t-12.5 -30.5t-30.5 -12.5z
"/>
            <glyph glyph-name="uni1EE7" unicode="&#x1ee7;" horiz-adv-x="557"
                   d="M426 201v304h45v-505h-45v80q-25 -43 -66 -68t-91 -25q-56 0 -98.5 26t-66 73t-23.5 110v309h45v-304q0 -77 40 -124t105 -47q43 0 78 20.5t56 59t21 91.5zM228 569l-11 35l41 13q36 11 56.5 25t20.5 38q0 48 -67 48h-86v40h86q111 0 111 -86q0 -40 -28 -62t-80 -38z"/>
            <glyph glyph-name="uhorn" unicode="&#x1b0;" horiz-adv-x="567"
                   d="M268 -13q-85 0 -136 55.5t-51 147.5v315h45v-310q0 -75 39.5 -120t104.5 -45q43 0 78 19.5t56.5 56.5t21.5 89v310h40q83 0 83 95v23h44v-23q0 -136 -122 -136v-464h-45v78q-25 -42 -66.5 -66.5t-91.5 -24.5z"/>
            <glyph glyph-name="uni1EE9" unicode="&#x1ee9;" horiz-adv-x="567"
                   d="M268 -13q-85 0 -136 55.5t-51 147.5v315h45v-310q0 -75 39.5 -120t104.5 -45q43 0 78 19.5t56.5 56.5t21.5 89v310h40q83 0 83 95v23h44v-23q0 -136 -122 -136v-464h-45v78q-25 -42 -66.5 -66.5t-91.5 -24.5zM294 582h-47l75 151h52z"/>
            <glyph glyph-name="uni1EF1" unicode="&#x1ef1;" horiz-adv-x="567"
                   d="M268 -13q-85 0 -136 55.5t-51 147.5v315h45v-310q0 -75 39.5 -120t104.5 -45q43 0 78 19.5t56.5 56.5t21.5 89v310h40q83 0 83 95v23h44v-23q0 -136 -122 -136v-464h-45v78q-25 -42 -66.5 -66.5t-91.5 -24.5zM279 -161q-18 0 -30.5 12.5t-12.5 30.5t12.5 30.5t30.5 12.5
t30.5 -12.5t12.5 -30.5t-12.5 -30.5t-30.5 -12.5z"/>
            <glyph glyph-name="uni1EEB" unicode="&#x1eeb;" horiz-adv-x="567"
                   d="M268 -13q-85 0 -136 55.5t-51 147.5v315h45v-310q0 -75 39.5 -120t104.5 -45q43 0 78 19.5t56.5 56.5t21.5 89v310h40q83 0 83 95v23h44v-23q0 -136 -122 -136v-464h-45v78q-25 -42 -66.5 -66.5t-91.5 -24.5zM258 582l-80 151h52l75 -151h-47z"/>
            <glyph glyph-name="uni1EED" unicode="&#x1eed;" horiz-adv-x="567"
                   d="M268 -13q-85 0 -136 55.5t-51 147.5v315h45v-310q0 -75 39.5 -120t104.5 -45q43 0 78 19.5t56.5 56.5t21.5 89v310h40q83 0 83 95v23h44v-23q0 -136 -122 -136v-464h-45v78q-25 -42 -66.5 -66.5t-91.5 -24.5zM228 569l-11 35l41 13q36 11 56.5 25t20.5 38q0 48 -67 48
h-86v40h86q111 0 111 -86q0 -40 -28 -62t-80 -38z"/>
            <glyph glyph-name="uni1EEF" unicode="&#x1eef;" horiz-adv-x="567"
                   d="M268 -13q-85 0 -136 55.5t-51 147.5v315h45v-310q0 -75 39.5 -120t104.5 -45q43 0 78 19.5t56.5 56.5t21.5 89v310h40q83 0 83 95v23h44v-23q0 -136 -122 -136v-464h-45v78q-25 -42 -66.5 -66.5t-91.5 -24.5zM344 588q-19 0 -37 9t-43 30q-22 19 -33.5 25t-22.5 6
q-17 0 -23.5 -11.5t-6.5 -31.5v-25h-41v26q0 38 19 60.5t52 22.5q20 0 37.5 -9t42.5 -30q22 -19 34 -25t22 -6q17 0 23.5 11.5t6.5 31.5v25h41v-26q0 -37 -19 -60t-52 -23z"/>
            <glyph glyph-name="uni1EF5" unicode="&#x1ef5;" horiz-adv-x="483"
                   d="M136 -205l83 205l-202 505h50l176 -451l175 451h48l-284 -710h-46zM329 -161q-18 0 -30.5 12.5t-12.5 30.5t12.5 30.5t30.5 12.5t30.5 -12.5t12.5 -30.5t-12.5 -30.5t-30.5 -12.5z"/>
            <glyph glyph-name="uni1EF7" unicode="&#x1ef7;" horiz-adv-x="483"
                   d="M136 -205l83 205l-202 505h50l176 -451l175 451h48l-284 -710h-46zM194 569l-11 35l41 13q36 11 56.5 25t20.5 38q0 48 -67 48h-86v40h86q111 0 111 -86q0 -40 -28 -62t-80 -38z"/>
            <glyph glyph-name="uni1EF9" unicode="&#x1ef9;" horiz-adv-x="483"
                   d="M136 -205l83 205l-202 505h50l176 -451l175 451h48l-284 -710h-46zM315 588q-19 0 -39.5 9t-45.5 30q-22 19 -35.5 25t-23.5 6q-42 0 -42 -43v-25h-41v26q0 38 23 60.5t58 22.5q20 0 40 -9t45 -30q22 -19 35.5 -25t23.5 -6q42 0 42 43v25h41v-26q0 -37 -23 -60t-58 -23z
"/>
            <glyph glyph-name="uni031B" unicode="&#x31b;" horiz-adv-x="0"
                   d="M-95 505q83 0 83 95v23h44v-23q0 -136 -126 -136h-41v41h40z"/>
            <glyph glyph-name="hookabovecomb" unicode="&#x309;" horiz-adv-x="0"
                   d="M-48 569l-11 35l41 13q36 11 56.5 25t20.5 38q0 48 -67 48h-86v40h86q111 0 111 -86q0 -40 -28 -62t-80 -38z"/>
            <glyph glyph-name="glyph593" horiz-adv-x="0"
                   d="M-60 785l41 13q36 11 57 24t21 37q0 48 -67 48h-86v40h86q111 0 111 -86q0 -40 -28 -62t-80 -38l-43 -13z"/>
            <glyph glyph-name="glyph594" horiz-adv-x="0"
                   d="M-14 667l-29 31l43 14q36 12 56.5 24.5t20.5 36.5q0 48 -67 48h-86v40h86q111 0 111 -86q0 -40 -28 -62t-80 -38z"/>
            <glyph glyph-name="glyph595" horiz-adv-x="0"
                   d="M-24 513l-25 33l42 13q36 11 56.5 24t20.5 37q0 48 -67 48h-86v40h86q111 0 111 -86q0 -40 -28 -62t-80 -38z"/>
            <glyph glyph-name="glyph596" horiz-adv-x="0"
                   d="M-40 727l22 7q36 11 56.5 22.5t20.5 34.5q0 40 -63 40h-90v40h90q54 0 80.5 -21t26.5 -59q0 -37 -28 -57t-80 -37l-22 -7zM0 582q-53 0 -92.5 31t-51.5 87h47q10 -37 36.5 -57.5t60.5 -20.5q35 0 61 20.5t36 57.5h47q-12 -56 -51.5 -87t-92.5 -31z"/>
            <glyph glyph-name="glyph597" horiz-adv-x="0"
                   d="M-40 886l22 7q36 11 56.5 22.5t20.5 33.5q0 41 -67 41h-86v40h86q54 0 82.5 -21t28.5 -60q0 -38 -28 -57t-80 -36l-22 -7zM0 753q-61 0 -104.5 27.5t-48.5 74.5h48q5 -28 34 -44.5t71 -16.5t71 16.5t34 44.5h48q-4 -47 -48.5 -74.5t-104.5 -27.5z"/>
            <glyph glyph-name="glyph598" horiz-adv-x="0"
                   d="M-23 582l-80 151h53l75 -151h-48z"/>
            <glyph glyph-name="glyph599" horiz-adv-x="0"
                   d="M38 582h-48l75 151h53z"/>
            <glyph glyph-name="glyph600" horiz-adv-x="0"
                   d="M-21 725l-89 136h54l83 -136h-48z"/>
            <glyph glyph-name="glyph601" horiz-adv-x="0"
                   d="M39 725h-48l83 136h54z"/>
            <glyph glyph-name="glyph602" horiz-adv-x="0"
                   d="M-23 602l-80 151h53l75 -151h-48z"/>
            <glyph glyph-name="glyph603" horiz-adv-x="0"
                   d="M23 602h-48l75 151h53z"/>
            <glyph glyph-name="glyph604" horiz-adv-x="0"
                   d="M74 588q-20 0 -40.5 9t-45.5 30q-22 19 -36 25t-25 6q-40 0 -40 -43v-25h-41v26q0 38 23 60.5t57 22.5q20 0 40.5 -9t45.5 -30q22 -19 36 -25t25 -6q40 0 40 43v25h41v-26q0 -37 -22.5 -60t-57.5 -23z"/>
            <glyph glyph-name="glyph605" horiz-adv-x="0"
                   d="M-21 725l-89 136h54l83 -136h-48z"/>
            <glyph glyph-name="glyph606" horiz-adv-x="0"
                   d="M19 725h-48l83 136h54z"/>
            <glyph glyph-name="glyph607" horiz-adv-x="0"
                   d="M74 753q-20 0 -39.5 8.5t-46.5 30.5q-22 18 -35 24.5t-27 6.5q-44 0 -44 -43v-25h-41v26q0 38 24 60.5t61 22.5q20 0 39.5 -8.5t46.5 -30.5q23 -18 36 -24.5t26 -6.5q44 0 44 43v25h41v-26q0 -37 -23.5 -60t-61.5 -23z"/>
            <glyph glyph-name="glyph608" horiz-adv-x="0"
                   d="M144 700q-12 -56 -51.5 -87t-92.5 -31t-92.5 31t-51.5 87h47q10 -37 36.5 -57.5t60.5 -20.5q35 0 61 20.5t36 57.5h47z"/>
            <glyph glyph-name="glyph609" horiz-adv-x="0"
                   d="M153 855q-4 -47 -48.5 -74.5t-104.5 -27.5q-61 0 -104.5 27.5t-48.5 74.5h48q5 -28 34 -44.5t71 -16.5t71 16.5t34 44.5h48z"/>
            <glyph glyph-name="glyph610" horiz-adv-x="0"
                   d="M-147 862h51l96 -105l96 105h51l-120 -137h-54z"/>
            <glyph glyph-name="glyph611" horiz-adv-x="0"
                   d="M-147 751l120 137h54l120 -137h-51l-96 105l-96 -105h-51z"/>
            <glyph glyph-name="glyph612" horiz-adv-x="0"
                   d="M135 848q0 -17 -12 -29.5t-30 -12.5t-30 12.5t-12 29.5t12 29.5t30 12.5t30 -12.5t12 -29.5zM-51 848q0 -17 -12 -29.5t-30 -12.5t-30 12.5t-12 29.5t12 29.5t30 12.5t30 -12.5t12 -29.5z"/>
            <glyph glyph-name="glyph613" horiz-adv-x="0"
                   d="M-145 826h290v-42h-290v42z"/>
            <glyph glyph-name="glyph614" horiz-adv-x="0"
                   d="M-27 551l-112 147h49l90 -113l90 113h49l-112 -147h-54z"/>
            <glyph glyph-name="glyph615" horiz-adv-x="0"
                   d="M-139 582l112 147h54l112 -147h-49l-90 113l-90 -113h-49z"/>
            <glyph glyph-name="glyph616" horiz-adv-x="0"
                   d="M88 616q-18 0 -30 12.5t-12 29.5t12 29.5t30 12.5t30 -12.5t12 -29.5t-12 -29.5t-30 -12.5zM-88 616q-18 0 -30 12.5t-12 29.5t12 29.5t30 12.5t30 -12.5t12 -29.5t-12 -29.5t-30 -12.5z"/>
            <glyph glyph-name="glyph617" horiz-adv-x="0"
                   d="M-140 660h280v-42h-280v42z"/>
            <glyph glyph-name="uni01CD" unicode="&#x1cd;" horiz-adv-x="668"
                   d="M594 0l-91 221h-340l-91 -221h-49l288 696h46l288 -696h-51zM181 265h304l-152 370zM306 773l-125 144h51l101 -112l101 112h51l-125 -144h-54z"/>
            <glyph glyph-name="Ccircumflex" unicode="&#x108;" horiz-adv-x="708"
                   d="M59 348q0 107 41 188.5t112.5 127.5t162.5 46q113 0 184 -53.5t99 -156.5h-52q-21 77 -80.5 121t-150.5 44q-77 0 -138 -39t-95.5 -110t-34.5 -168t34.5 -168t95.5 -110t138 -39q92 0 152 44t79 116h52q-28 -97 -99.5 -151t-183.5 -54q-91 0 -162.5 46t-112.5 127.5
t-41 188.5zM223 773l125 144h54l125 -144h-51l-101 112l-101 -112h-51z"/>
            <glyph glyph-name="Gcircumflex" unicode="&#x11c;" horiz-adv-x="749"
                   d="M387 -14q-96 0 -170 46.5t-116 128.5t-42 187q0 80 24.5 146t69 114.5t104 75t129.5 26.5q101 0 176 -46t111 -129h-54q-25 59 -89 94.5t-144 35.5q-79 0 -142.5 -39.5t-100 -110.5t-36.5 -167q0 -95 36 -166.5t99 -111t145 -39.5q74 0 131.5 33.5t90.5 92t33 133.5v28
h-256v44h303v-72q0 -89 -38.5 -157.5t-106.5 -107.5t-157 -39zM231 773l125 144h54l125 -144h-51l-101 112l-101 -112h-51z"/>
            <glyph glyph-name="Hcircumflex" unicode="&#x124;" horiz-adv-x="766"
                   d="M102 0v696h47v-308h468v308h47v-696h-47v344h-468v-344h-47zM231 773l125 144h54l125 -144h-51l-101 112l-101 -112h-51z"/>
            <glyph glyph-name="uni01CF" unicode="&#x1cf;" horiz-adv-x="251"
                   d="M149 0h-47v696h47v-696zM99 773l-125 144h51l101 -112l101 112h51l-125 -144h-54z"/>
            <glyph glyph-name="Jcircumflex" unicode="&#x134;" horiz-adv-x="595"
                   d="M457 208v488h47v-488q0 -63 -27.5 -113t-78 -79.5t-119.5 -29.5q-100 0 -165.5 56t-80.5 150h51q11 -73 63.5 -117t131.5 -44q53 0 93 23t62.5 63.5t22.5 90.5zM328 773l125 144h54l125 -144h-51l-101 112l-101 -112h-51z"/>
            <glyph glyph-name="uni01F8" unicode="&#x1f8;" horiz-adv-x="762"
                   d="M102 0v696h47l464 -618v618h47v-696h-46l-465 619v-619h-47zM362 773l-94 144h54l88 -144h-48z"/>
            <glyph glyph-name="uni01D1" unicode="&#x1d1;" horiz-adv-x="784"
                   d="M392 -14q-97 0 -172 46.5t-118 128.5t-43 187q0 106 43 187.5t118 128t172 46.5t172 -46.5t118 -128t43 -187.5q0 -105 -43 -187t-118 -128.5t-172 -46.5zM392 31q83 0 147 41t101 112.5t37 163.5t-37 163.5t-101 112.5t-147 41q-82 0 -146.5 -41t-101.5 -112.5
t-37 -163.5t37 -163.5t101.5 -112.5t146.5 -41zM365 773l-125 144h51l101 -112l101 112h51l-125 -144h-54z"/>
            </font>
</defs>
</svg>
